<?xml version="1.0" encoding="utf-8"?>
<!-- Generator: Adobe Illustrator 21.1.0, SVG Export Plug-In . SVG Version: 6.00 Build 0)  -->
<svg version="1.1" id="Layer_1" xmlns="http://www.w3.org/2000/svg" xmlns:xlink="http://www.w3.org/1999/xlink" x="0px" y="0px"
	 viewBox="0 0 56.7 59.1" style="enable-background:new 0 0 56.7 59.1;" xml:space="preserve">
<style type="text/css">
	.st0{clip-path:url(#SVGID_2_);}
	.st1{clip-path:url(#SVGID_4_);enable-background:new    ;}
	.st2{clip-path:url(#SVGID_6_);}
	.st3{clip-path:url(#SVGID_8_);}
	.st4{clip-path:url(#SVGID_10_);fill:#D9F4EF;}
	.st5{clip-path:url(#SVGID_12_);}
	.st6{clip-path:url(#SVGID_14_);enable-background:new    ;}
	.st7{clip-path:url(#SVGID_16_);}
	.st8{clip-path:url(#SVGID_18_);}
	.st9{clip-path:url(#SVGID_20_);fill:#414042;}
	.st10{clip-path:url(#SVGID_22_);}
	.st11{clip-path:url(#SVGID_24_);fill:#FFFFFF;}
	.st12{fill:#6EA39B;}
</style>
<g>
	<defs>
		<rect id="SVGID_1_" x="449.3" y="-1535.1" width="20.8" height="24.6"/>
	</defs>
	<clipPath id="SVGID_2_">
		<use xlink:href="#SVGID_1_"  style="overflow:visible;"/>
	</clipPath>
	<g class="st0">
		<defs>
			<rect id="SVGID_3_" x="-689.7" y="-1566.4" width="1440" height="3399"/>
		</defs>
		<clipPath id="SVGID_4_">
			<use xlink:href="#SVGID_3_"  style="overflow:visible;"/>
		</clipPath>
		<g class="st1">
			<g>
				<defs>
					<rect id="SVGID_5_" x="449.3" y="-1535.4" width="21" height="25"/>
				</defs>
				<clipPath id="SVGID_6_">
					<use xlink:href="#SVGID_5_"  style="overflow:visible;"/>
				</clipPath>
				<g class="st2">
					<defs>
						<path id="SVGID_7_" d="M464.7-1510.5c-0.1,0-0.2,0-0.3,0l-0.2,0c-9.2-1.8-15.6-10.3-14.8-19.7c0.1-1.3,0.7-2.5,1.8-3.3
							l1.7-1.3c0.4-0.3,0.9-0.2,1.2,0.2l4.1,5.4c0.3,0.4,0.2,1-0.2,1.3l-2.5,2c0,0-0.1,0.1,0,0.1l0,0.3c0.4,3.6,2.8,6.6,6.1,7.8
							c0,0,0.1,0,0.1,0l2.5-2c0.4-0.3,0.9-0.2,1.2,0.2l4.4,5.7c0.3,0.4,0.2,0.9-0.2,1.3l-1.7,1.3
							C467.2-1510.7,466-1510.3,464.7-1510.5"/>
					</defs>
					<clipPath id="SVGID_8_">
						<use xlink:href="#SVGID_7_"  style="overflow:visible;"/>
					</clipPath>
					<g class="st3">
						<defs>
							<rect id="SVGID_9_" x="449.3" y="-1535.4" width="21" height="25"/>
						</defs>
						<clipPath id="SVGID_10_">
							<use xlink:href="#SVGID_9_"  style="overflow:visible;"/>
						</clipPath>
						<rect x="444.3" y="-1540.1" class="st4" width="30.8" height="34.6"/>
					</g>
				</g>
			</g>
		</g>
	</g>
</g>
<g>
	<defs>
		<rect id="SVGID_11_" x="454.3" y="-1535.1" width="20.8" height="24.6"/>
	</defs>
	<clipPath id="SVGID_12_">
		<use xlink:href="#SVGID_11_"  style="overflow:visible;"/>
	</clipPath>
	<g class="st5">
		<defs>
			<rect id="SVGID_13_" x="-689.7" y="-1566.4" width="1440" height="3399"/>
		</defs>
		<clipPath id="SVGID_14_">
			<use xlink:href="#SVGID_13_"  style="overflow:visible;"/>
		</clipPath>
		<g class="st6">
			<g>
				<defs>
					<rect id="SVGID_15_" x="453.3" y="-1535.4" width="22" height="25"/>
				</defs>
				<clipPath id="SVGID_16_">
					<use xlink:href="#SVGID_15_"  style="overflow:visible;"/>
				</clipPath>
				<g class="st7">
					<defs>
						<path id="SVGID_17_" d="M469.7-1510.6c-0.1,0-0.2,0-0.3,0l-0.2,0c-9.2-1.8-15.6-10.3-14.8-19.7c0.1-1.3,0.7-2.5,1.8-3.3
							l1.7-1.3c0.4-0.3,0.9-0.2,1.2,0.2l4.1,5.4c0.3,0.4,0.2,1-0.2,1.3l-2.5,2c0,0-0.1,0.1,0,0.1l0,0.3c0.4,3.6,2.8,6.6,6.1,7.8
							c0,0,0.1,0,0.1,0l2.5-2c0.4-0.3,0.9-0.2,1.2,0.2l4.4,5.7c0.3,0.4,0.2,1-0.2,1.3l-1.7,1.3
							C472.1-1510.7,470.9-1510.4,469.7-1510.6z M458.2-1533l-1,0.8c-0.6,0.5-1,1.2-1.1,2c-0.7,8.5,5.1,16.2,13.4,17.8l0.2,0
							c0.8,0.2,1.6,0,2.3-0.5l1-0.7l-3.3-4.3l-1.8,1.4c-0.5,0.4-1.2,0.5-1.8,0.3c-4-1.5-6.8-5.1-7.3-9.3l0-0.3
							c-0.1-0.7,0.2-1.3,0.7-1.7l1.8-1.4L458.2-1533z"/>
					</defs>
					<clipPath id="SVGID_18_">
						<use xlink:href="#SVGID_17_"  style="overflow:visible;"/>
					</clipPath>
					<g class="st8">
						<defs>
							<rect id="SVGID_19_" x="453.3" y="-1535.4" width="22" height="25"/>
						</defs>
						<clipPath id="SVGID_20_">
							<use xlink:href="#SVGID_19_"  style="overflow:visible;"/>
						</clipPath>
						<rect x="449.3" y="-1540.1" class="st9" width="30.8" height="34.6"/>
					</g>
				</g>
			</g>
		</g>
	</g>
</g>
<g>
	<g>
		<defs>
			<circle id="SVGID_21_" cx="28.3" cy="29.6" r="20.5"/>
		</defs>
		<clipPath id="SVGID_22_">
			<use xlink:href="#SVGID_21_"  style="overflow:visible;"/>
		</clipPath>
		<g class="st10">
			<defs>
				<rect id="SVGID_23_" x="-914.2" y="-2307.9" width="1440" height="3399"/>
			</defs>
			<clipPath id="SVGID_24_">
				<use xlink:href="#SVGID_23_"  style="overflow:visible;"/>
			</clipPath>
			<rect x="2.8" y="4.1" class="st11" width="51" height="51"/>
		</g>
	</g>
	<path class="st12" d="M20.8,24l3.6-1.7l5.2,7.7l-5.2,7.7L20.8,36l3.2-6L20.8,24z M29.4,24l3.6-1.7l5.2,7.7L33,37.7L29.4,36l3.2-6
		L29.4,24z"/>
</g>
</svg>
