<?xml version="1.0" encoding="utf-8"?>
<!-- Generator: Adobe Illustrator 21.1.0, SVG Export Plug-In . SVG Version: 6.00 Build 0)  -->
<svg version="1.1" id="Layer_1" xmlns="http://www.w3.org/2000/svg" xmlns:xlink="http://www.w3.org/1999/xlink" x="0px" y="0px"
	 viewBox="0 0 82.5 77.9" style="enable-background:new 0 0 82.5 77.9;" xml:space="preserve">
<style type="text/css">
	.st0{fill:#D9F4EF;}
	.st1{fill:#424143;}
</style>
<title>hamburger</title>
<g id="Layer_2">
	<g id="Layer_2-2">
		<path class="st0" d="M65.2,38.3c0,1.7-1.7,2.1-3.8,2.1H18c-2.1,0-3.8-0.4-3.8-2.1v-1.2c0-1.7,1.7-2.6,3.8-2.6h43.5
			c2.1,0,3.8,0.9,3.8,2.6V38.3z"/>
		<path class="st0" d="M65.2,56.3c0,1.7-1.7,2.1-3.8,2.1H18c-2.1,0-3.8-0.4-3.8-2.1v-1.2c0-1.7,1.7-2.6,3.8-2.6h43.5
			c2.1,0,3.8,0.9,3.8,2.6V56.3z"/>
		<path class="st1" d="M68.2,42.1c0,1.7-1.7,4.4-3.8,4.4H21c-2.1,0-3.8-2.6-3.8-4.4v-1.2c0.2-1.9,1.8-3.4,3.8-3.4h43.5
			c1.9,0,3.6,1.4,3.8,3.4V42.1z"/>
		<path class="st1" d="M68.2,60.1c0,1.7-1.7,4.4-3.8,4.4H21c-2.1,0-3.8-2.7-3.8-4.4v-1.2c0.2-1.9,1.8-3.4,3.8-3.4h43.5
			c1.9,0,3.6,1.4,3.8,3.4V60.1z"/>
		<path class="st0" d="M65.2,17.3c0,1.7-1.7,2.1-3.8,2.1H18c-2.1,0-3.8-0.4-3.8-2.1v-1.2c0-1.7,1.7-2.6,3.8-2.6h43.5
			c2.1,0,3.8,0.9,3.8,2.6V17.3z"/>
		<path class="st1" d="M68.2,21.1c0,1.7-1.7,4.4-3.8,4.4H21c-2.1,0-3.8-2.6-3.8-4.4v-1.2c0.2-1.9,1.8-3.4,3.8-3.4h43.5
			c1.9,0,3.6,1.4,3.8,3.4V21.1z"/>
	</g>
</g>
</svg>
