<svg xmlns="http://www.w3.org/2000/svg" xmlns:xlink="http://www.w3.org/1999/xlink" viewBox="0 0 339 176.58"><defs><style>.cls-1{fill:none;}.cls-2{fill:#fff;}.cls-3{clip-path:url(#clip-path);}.cls-4{fill:#d9f4ef;}.cls-5{clip-path:url(#clip-path-2);}.cls-6{clip-path:url(#clip-path-3);}.cls-7{clip-path:url(#clip-path-4);}.cls-8{clip-path:url(#clip-path-5);}.cls-9{clip-path:url(#clip-path-6);}.cls-10{clip-path:url(#clip-path-7);}.cls-11{clip-path:url(#clip-path-8);}.cls-12{clip-path:url(#clip-path-9);}.cls-13{clip-path:url(#clip-path-10);}.cls-14{clip-path:url(#clip-path-11);}.cls-15{clip-path:url(#clip-path-12);}.cls-16{clip-path:url(#clip-path-13);}.cls-17{clip-path:url(#clip-path-14);}.cls-18{clip-path:url(#clip-path-15);}.cls-19{clip-path:url(#clip-path-16);}.cls-20{clip-path:url(#clip-path-17);}.cls-21{fill:#eab7ba;}.cls-22{clip-path:url(#clip-path-18);}.cls-23{clip-path:url(#clip-path-19);}.cls-24{clip-path:url(#clip-path-20);}.cls-25{clip-path:url(#clip-path-21);}.cls-26{clip-path:url(#clip-path-22);}.cls-27{clip-path:url(#clip-path-23);}.cls-28{clip-path:url(#clip-path-24);}.cls-29{clip-path:url(#clip-path-25);}.cls-30{clip-path:url(#clip-path-26);}.cls-31{fill:#414042;}.cls-32{clip-path:url(#clip-path-27);}.cls-33{clip-path:url(#clip-path-28);}.cls-34{clip-path:url(#clip-path-29);}.cls-35{clip-path:url(#clip-path-30);}.cls-36{clip-path:url(#clip-path-31);}.cls-37{clip-path:url(#clip-path-32);}.cls-38{clip-path:url(#clip-path-33);}.cls-39{clip-path:url(#clip-path-34);}.cls-40{clip-path:url(#clip-path-35);}.cls-41{clip-path:url(#clip-path-36);}.cls-42{clip-path:url(#clip-path-37);}.cls-43{clip-path:url(#clip-path-38);}.cls-44{clip-path:url(#clip-path-39);}.cls-45{clip-path:url(#clip-path-40);}.cls-46{clip-path:url(#clip-path-41);}.cls-47{clip-path:url(#clip-path-42);}.cls-48{clip-path:url(#clip-path-43);}.cls-49{clip-path:url(#clip-path-44);}.cls-50{clip-path:url(#clip-path-45);}.cls-51{clip-path:url(#clip-path-46);}.cls-52{clip-path:url(#clip-path-47);}</style><clipPath id="clip-path"><path class="cls-1" d="M122,61.31V57.93a1.35,1.35,0,0,1,1.35-1.35h3.42a1.35,1.35,0,1,1,0,2.7h-2.07v2a1.35,1.35,0,1,1-2.7,0m60.44-3.38a1.35,1.35,0,0,1,1.35-1.35h3.38a1.35,1.35,0,0,1,1.35,1.35v3.42a1.35,1.35,0,1,1-2.7,0V59.28h-2a1.35,1.35,0,0,1-1.35-1.35M120,54.37V79.62H122v-1.4a1.35,1.35,0,1,1,2.7,0v1.4h5.43a7.11,7.11,0,0,0-6.8-5.07A1.35,1.35,0,0,1,122,73.2V66.37A1.35,1.35,0,0,1,123.36,65a7.1,7.1,0,0,0,7.09-7.09,1.35,1.35,0,0,1,1.35-1.35h46.93a1.35,1.35,0,0,1,1.35,1.35,7.1,7.1,0,0,0,7.1,7.09,1.35,1.35,0,0,1,1.35,1.35V73.2a1.35,1.35,0,0,1-1.35,1.35,7.11,7.11,0,0,0-6.8,5.07h5.47V78.26a1.35,1.35,0,1,1,2.7,0v1.36h2V54.37Z"/></clipPath><clipPath id="clip-path-2"><path class="cls-1" d="M166.43,73.82a1.35,1.35,0,0,1,1.35-1.35h3.88a1.35,1.35,0,1,1,0,2.7h-3.88a1.35,1.35,0,0,1-1.35-1.35M134,69.69a1.35,1.35,0,0,1,1.35-1.35h7.75a1.35,1.35,0,0,1,0,2.7h-7.75A1.35,1.35,0,0,1,134,69.69m32.44,0a1.35,1.35,0,0,1,1.35-1.35h7.75a1.35,1.35,0,0,1,0,2.7h-7.75a1.35,1.35,0,0,1-1.35-1.35m-28.57-4.14a1.35,1.35,0,0,1,1.35-1.35h3.87a1.35,1.35,0,1,1,0,2.7h-3.87a1.35,1.35,0,0,1-1.35-1.35m14.81-6.27a7.16,7.16,0,0,1,4.58,2.55,8.11,8.11,0,1,1-9.71,10.35,7.16,7.16,0,0,1,3.22-12.9H133.06a9.81,9.81,0,0,1-8.35,8.35v4.31a9.82,9.82,0,0,1,8.24,7.68h44.65a9.82,9.82,0,0,1,8.24-7.68V67.63a9.81,9.81,0,0,1-8.35-8.35Z"/></clipPath><clipPath id="clip-path-3"><path class="cls-1" d="M117.26,44.46v7.22l.94,0h5.33V45.93a1.35,1.35,0,0,1,1.35-1.35H193.2v-.12Z"/></clipPath><clipPath id="clip-path-4"><path class="cls-1" d="M126.23,47.28v4.39h65.64a1.35,1.35,0,0,1,1.34,1.17V47.28Z"/></clipPath><clipPath id="clip-path-5"><path class="cls-1" d="M158.87,66.37a7.16,7.16,0,0,1-7.16,7.16h-.27a5.4,5.4,0,1,0,7.39-7.88,7,7,0,0,1,0,.72"/></clipPath><clipPath id="clip-path-6"><path class="cls-1" d="M171,97.93v17.82h0V108.3a3.35,3.35,0,0,1,3.34-3.34h3.55v-3.31a3.34,3.34,0,0,1,3.34-3.34H218.3v-.37Z"/></clipPath><clipPath id="clip-path-7"><path class="cls-1" d="M179.06,125.57a2.1,2.1,0,1,0,2.1-2.1,2.1,2.1,0,0,0-2.1,2.1"/></clipPath><clipPath id="clip-path-8"><path class="cls-1" d="M181.25,101a.64.64,0,0,0-.64.64V105H215a3.35,3.35,0,0,1,3.28,2.71V101Z"/></clipPath><clipPath id="clip-path-9"><path class="cls-1" d="M179.26,118.45h-5.55v9.49H177a4.79,4.79,0,0,1,7.62-5.7,4.79,4.79,0,0,1,7.62,5.7h23.44v-9.49Z"/></clipPath><clipPath id="clip-path-10"><path class="cls-1" d="M179.26,107.66h-4.91a.64.64,0,0,0-.64.64v4h41.95v-4a.64.64,0,0,0-.64-.64Z"/></clipPath><clipPath id="clip-path-11"><path class="cls-1" d="M186,125.57a2.1,2.1,0,1,0,2.1-2.1,2.1,2.1,0,0,0-2.1,2.1"/></clipPath><clipPath id="clip-path-12"><path class="cls-1" d="M145.89,101.81a7.37,7.37,0,0,0,3.24,6.1,10,10,0,0,0,3.59-.94,5.19,5.19,0,1,1,5.47-6.8,10,10,0,0,0,.25-2.25,10.13,10.13,0,0,0-.1-1.45,7.37,7.37,0,0,0-12.46,5.34"/></clipPath><clipPath id="clip-path-13"><path class="cls-1" d="M138.43,97.93a10,10,0,0,0,6.36,9.32,10.07,10.07,0,0,1,12-14.89,10,10,0,0,0-18.33,5.56"/></clipPath><clipPath id="clip-path-14"><path class="cls-1" d="M150.78,101.81a2.49,2.49,0,1,0,2.49-2.49,2.5,2.5,0,0,0-2.49,2.49"/></clipPath><clipPath id="clip-path-15"><path class="cls-1" d="M128.61,110.54a2,2,0,0,0,.67,1.5,4.88,4.88,0,0,0,2.41-3.21,2,2,0,0,0-1.05-.3,2,2,0,0,0-2,2"/></clipPath><clipPath id="clip-path-16"><path class="cls-1" d="M122,107.76a4.88,4.88,0,0,0,4.35,4.85,4.72,4.72,0,0,1,4.24-6.79,4.9,4.9,0,0,1,.8.07,4.88,4.88,0,0,0-9.39,1.87"/></clipPath><clipPath id="clip-path-17"><path class="cls-1" d="M135.31,128.57a7.74,7.74,0,0,0,5.81,7.49,7.9,7.9,0,0,1,8.42-11.69,7.73,7.73,0,0,0-14.23,4.2"/></clipPath><clipPath id="clip-path-18"><path class="cls-1" d="M142.76,132.12a5.19,5.19,0,0,0,1.9,4,7.73,7.73,0,0,0,6.11-7.56,7.45,7.45,0,0,0,0-.85,5.15,5.15,0,0,0-2.77-.8,5.21,5.21,0,0,0-5.2,5.2"/></clipPath><clipPath id="clip-path-19"><path class="cls-1" d="M201.54,82.17a8.08,8.08,0,0,0,.51,2.84h4.28a7.9,7.9,0,0,1,10.77-6,8.09,8.09,0,0,0-15.56,3.13"/></clipPath><clipPath id="clip-path-20"><path class="cls-1" d="M208.92,86.35h0a5.18,5.18,0,0,0,1.71,3.84,8.1,8.1,0,0,0,7.09-7.6,5.2,5.2,0,0,0-8.8,3.75"/></clipPath><clipPath id="clip-path-21"><path class="cls-1" d="M203.73,87.7A8.14,8.14,0,0,0,207,89.83a7.93,7.93,0,0,1-.69-2.13Z"/></clipPath><clipPath id="clip-path-22"><path class="cls-1" d="M202.46,60.91a4.47,4.47,0,0,0,4.07,4.45,4.39,4.39,0,0,1,4.61-6,4.47,4.47,0,0,0-8.67,1.53"/></clipPath><clipPath id="clip-path-23"><path class="cls-1" d="M208.92,63.74a1.7,1.7,0,0,0,.33,1,4.48,4.48,0,0,0,2-2.57,1.69,1.69,0,0,0-2.31,1.58"/></clipPath><clipPath id="clip-path-24"><path class="cls-1" d="M150.74,59.28a7.16,7.16,0,0,0-3.22,12.9,8.11,8.11,0,0,1,9.71-10.35,7.16,7.16,0,0,0-4.58-2.55Z"/></clipPath><clipPath id="clip-path-25"><path class="cls-1" d="M149.83,69.69a5.39,5.39,0,0,0,1.6,3.84h.27a7.16,7.16,0,0,0,7.16-7.16,7,7,0,0,0,0-.72,5.4,5.4,0,0,0-9,4"/></clipPath><clipPath id="clip-path-26"><path class="cls-1" d="M179.06,125.57a2.1,2.1,0,1,1,2.1,2.1,2.1,2.1,0,0,1-2.1-2.1m6.9,0a2.1,2.1,0,1,1,2.1,2.1,2.1,2.1,0,0,1-2.1-2.1m-1.35-3.33a4.8,4.8,0,1,0,0,6.66,4.8,4.8,0,1,0,0-6.66"/></clipPath><clipPath id="clip-path-27"><path class="cls-1" d="M183.8,56.58a1.35,1.35,0,1,0,0,2.7h2v2.07a1.35,1.35,0,1,0,2.7,0V57.93a1.35,1.35,0,0,0-1.35-1.35Z"/></clipPath><clipPath id="clip-path-28"><path class="cls-1" d="M185.85,78.26v2h-2.07a1.35,1.35,0,0,0,0,2.7h3.42a1.35,1.35,0,0,0,1.35-1.35V78.26a1.35,1.35,0,1,0-2.7,0"/></clipPath><clipPath id="clip-path-29"><path class="cls-1" d="M122,78.22v3.42A1.35,1.35,0,0,0,123.38,83h3.38a1.35,1.35,0,1,0,0-2.7h-2V78.22a1.35,1.35,0,1,0-2.7,0"/></clipPath><clipPath id="clip-path-30"><path class="cls-1" d="M123.36,56.58A1.35,1.35,0,0,0,122,57.93v3.38a1.35,1.35,0,1,0,2.7,0v-2h2.07a1.35,1.35,0,1,0,0-2.7Z"/></clipPath><clipPath id="clip-path-31"><path class="cls-1" d="M132.94,79.62a9.82,9.82,0,0,0-8.24-7.68V67.63a9.81,9.81,0,0,0,8.35-8.35h44.41a9.81,9.81,0,0,0,8.35,8.35v4.31a9.82,9.82,0,0,0-8.24,7.68c0,.22-.09.44-.12.67H133.06c0-.23-.07-.45-.11-.67m-1.14-23a1.35,1.35,0,0,0-1.35,1.35A7.1,7.1,0,0,1,123.36,65,1.35,1.35,0,0,0,122,66.37V73.2a1.35,1.35,0,0,0,1.35,1.35,7.1,7.1,0,0,1,6.8,5.07,7,7,0,0,1,.3,2A1.35,1.35,0,0,0,131.8,83h46.93a1.35,1.35,0,0,0,1.35-1.35,7.1,7.1,0,0,1,7.1-7.09,1.35,1.35,0,0,0,1.35-1.35V66.37A1.35,1.35,0,0,0,187.18,65a7.1,7.1,0,0,1-7.1-7.09,1.35,1.35,0,0,0-1.35-1.35Z"/></clipPath><clipPath id="clip-path-32"><path class="cls-1" d="M151.44,73.53a5.4,5.4,0,1,1,3.8,1.57,5.39,5.39,0,0,1-3.8-1.57m-4.31-3.84a8.11,8.11,0,1,0,8.11-8.11,8,8,0,0,0-8.11,8.11"/></clipPath><clipPath id="clip-path-33"><path class="cls-1" d="M167.78,68.34a1.35,1.35,0,0,0,0,2.7h7.75a1.35,1.35,0,0,0,0-2.7Z"/></clipPath><clipPath id="clip-path-34"><path class="cls-1" d="M167.78,72.47a1.35,1.35,0,1,0,0,2.7h3.88a1.35,1.35,0,1,0,0-2.7Z"/></clipPath><clipPath id="clip-path-35"><path class="cls-1" d="M139.21,64.2a1.35,1.35,0,1,0,0,2.7h3.87a1.35,1.35,0,1,0,0-2.7Z"/></clipPath><clipPath id="clip-path-36"><path class="cls-1" d="M135.33,68.34a1.35,1.35,0,1,0,0,2.7h7.75a1.35,1.35,0,0,0,0-2.7Z"/></clipPath><clipPath id="clip-path-37"><path class="cls-1" d="M144.66,136.13a5.2,5.2,0,1,1,3.3,1.18,5.19,5.19,0,0,1-3.3-1.18m-4.6-4a7.91,7.91,0,1,0,7.9-7.9,7.85,7.85,0,0,0-7.9,7.9"/></clipPath><clipPath id="clip-path-38"><path class="cls-1" d="M129.27,112a2,2,0,0,1,1.35-3.51,2,2,0,0,1,1.05.3,2,2,0,1,1-2.41,3.21m-3.37-1.5a4.72,4.72,0,1,0,5.52-4.65,4.9,4.9,0,0,0-.8-.07,4.72,4.72,0,0,0-4.72,4.72"/></clipPath><clipPath id="clip-path-39"><path class="cls-1" d="M209.24,64.73a1.69,1.69,0,1,1,1.37.7,1.7,1.7,0,0,1-1.37-.7m-3-1a4.39,4.39,0,1,0,4.39-4.39,4.38,4.38,0,0,0-4.39,4.39"/></clipPath><clipPath id="clip-path-40"><path class="cls-1" d="M149.14,107.92a7.37,7.37,0,1,1,4.13,1.27,7.37,7.37,0,0,1-4.13-1.27m-5.94-6.1a10.08,10.08,0,1,0,10.08-10.07,10,10,0,0,0-10.08,10.07"/></clipPath><clipPath id="clip-path-41"><path class="cls-1" d="M150.78,101.81a2.49,2.49,0,1,1,2.49,2.49,2.5,2.5,0,0,1-2.49-2.49m-2.7,0a5.2,5.2,0,0,0,4.65,5.16l.54,0a5.19,5.19,0,1,0-5.19-5.19"/></clipPath><clipPath id="clip-path-42"><path class="cls-1" d="M226.42,62.5V65H223.9a1.35,1.35,0,1,0,0,2.7h2.52v2.52a1.35,1.35,0,1,0,2.7,0V67.72h2.52a1.35,1.35,0,1,0,0-2.7h-2.52V62.5a1.35,1.35,0,0,0-2.7,0"/></clipPath><clipPath id="clip-path-43"><path class="cls-1" d="M175.14,29.28v3h-3a1.35,1.35,0,0,0,0,2.7h3v3a1.35,1.35,0,0,0,2.7,0v-3h3a1.35,1.35,0,0,0,0-2.7h-3v-3a1.35,1.35,0,0,0-2.7,0"/></clipPath><clipPath id="clip-path-44"><path class="cls-1" d="M117.26,96.2v1.46H115.8a1.35,1.35,0,1,0,0,2.7h1.46v1.46a1.35,1.35,0,1,0,2.7,0v-1.46h1.46a1.35,1.35,0,0,0,0-2.7H120V96.2a1.35,1.35,0,1,0-2.7,0"/></clipPath><clipPath id="clip-path-45"><path class="cls-1" d="M179.81,140.54V142h-1.46a1.35,1.35,0,0,0,0,2.7h1.46v1.46a1.35,1.35,0,1,0,2.7,0v-1.46H184a1.35,1.35,0,1,0,0-2.7h-1.46v-1.46a1.35,1.35,0,1,0-2.7,0"/></clipPath><clipPath id="clip-path-46"><path class="cls-1" d="M146.61,25v1.46h-1.46a1.35,1.35,0,0,0,0,2.7h1.46v1.46a1.35,1.35,0,1,0,2.7,0V29.11h1.46a1.35,1.35,0,0,0,0-2.7h-1.46V25a1.35,1.35,0,0,0-2.7,0"/></clipPath><clipPath id="clip-path-47"><path class="cls-1" d="M173.71,131.76v-13.3h41.95v13.3a.64.64,0,0,1-.64.64H174.36a.64.64,0,0,1-.64-.64m0-23.46a.64.64,0,0,1,.64-.64H215a.64.64,0,0,1,.64.64v4H173.71Zm6.89-6.65a.64.64,0,0,1,.64-.64h40.66a.64.64,0,0,1,.64.64v23.46a.64.64,0,0,1-.64.64h-3.55v-8.64h0v-8.8a3.09,3.09,0,0,0-.06-.63A3.35,3.35,0,0,0,215,105H180.61Zm30-11.45a5.18,5.18,0,0,1-1.71-3.84h0a5.21,5.21,0,1,1,1.71,3.85M102.87,69.68a15.33,15.33,0,0,1,14.39-15.3h0V85a15.35,15.35,0,0,1-14.39-15.3M120,79.62V54.37h70.56V85H120Zm6.27-32.34h70.56V53h0v24.9h-3.56V53a1.49,1.49,0,0,0,0-.18,1.35,1.35,0,0,0-1.34-1.17H126.23Zm89.44-23.67h-.18l-.08,0-.05,0-.07,0,0,0-.08,0,0,0-.08,0,0,0-.07.05,0,0-.06.06-7.24,7.24a1.35,1.35,0,1,0,1.91,1.91l4.93-4.93V40.45a11.22,11.22,0,0,1-11.2,11.2h-3.77V45.93a1.35,1.35,0,0,0-1.35-1.35H124.87a1.35,1.35,0,0,0-1.35,1.35v5.72H118.2l-.94,0a18,18,0,0,0,.94,36h88.14a7.9,7.9,0,0,0,15.57,0h.2a14,14,0,0,1,3.14,27.69V101.65a3.34,3.34,0,0,0-3.34-3.34H181.25a3.34,3.34,0,0,0-3.34,3.34V105h-3.55A3.35,3.35,0,0,0,171,108.3v7.46H145a15.51,15.51,0,0,0-15.5,15.49v17.12l-4.93-4.93a1.35,1.35,0,0,0-1.91,1.91l7.23,7.23.11.1h0l.09.07,0,0,.08,0,0,0,.08,0h0l.09,0h0l.09,0h.52l.07,0h.06l.07,0,.06,0,.06,0,.06,0,.05,0,.06,0,.05,0,.06,0,.07-.06,0,0h0l7.24-7.24a1.35,1.35,0,0,0-1.91-1.91l-4.93,4.93V131.24A12.81,12.81,0,0,1,145,118.45h26v13.3a3.35,3.35,0,0,0,3.34,3.34H215a3.34,3.34,0,0,0,3.34-3.34v-3.31h3.55a3.34,3.34,0,0,0,3.34-3.34v-6.95A16.73,16.73,0,0,0,222.1,85h-.2a7.9,7.9,0,0,0-15.57,0H193.22V80.61h4.91a1.35,1.35,0,0,0,1.35-1.35V54.35h3.77a13.92,13.92,0,0,0,13.9-13.9V28.21l4.93,4.93A1.35,1.35,0,0,0,224,31.24L216.76,24l-.1-.09,0,0-.07,0-.05,0-.06,0-.06,0-.06,0-.06,0-.06,0-.06,0-.06,0h-.4"/></clipPath></defs><title>image2</title><g id="Layer_2" data-name="Layer 2"><g id="Layer_2-2" data-name="Layer 2"><rect class="cls-2" width="339" height="176.58"/><g class="cls-3"><rect class="cls-4" x="115.14" y="49.54" width="80.19" height="34.9"/></g><g class="cls-5"><rect class="cls-4" x="119.89" y="54.45" width="70.75" height="29.99"/></g><g class="cls-6"><rect class="cls-4" x="112.44" y="39.63" width="85.58" height="16.87"/></g><g class="cls-7"><rect class="cls-4" x="121.41" y="42.45" width="76.61" height="15.21"/></g><rect class="cls-4" x="117.26" y="54.38" height="25.23"/><g class="cls-8"><rect class="cls-4" x="146.62" y="60.82" width="18.84" height="19.1"/></g><rect class="cls-4" x="170.97" y="118.45" width="0.15" height="9.49"/><g class="cls-9"><rect class="cls-4" x="166.15" y="93.1" width="56.96" height="27.48"/></g><g class="cls-10"><rect class="cls-4" x="174.24" y="118.64" width="13.83" height="13.85"/></g><g class="cls-11"><rect class="cls-4" x="175.79" y="96.18" width="47.33" height="16.31"/></g><g class="cls-12"><rect class="cls-4" x="168.9" y="113.62" width="51.58" height="19.14"/></g><g class="cls-13"><rect class="cls-4" x="168.9" y="102.83" width="51.58" height="14.3"/></g><g class="cls-14"><rect class="cls-4" x="181.14" y="118.64" width="13.83" height="13.85"/></g><g class="cls-15"><rect class="cls-4" x="141.08" y="89.61" width="22.19" height="23.13"/></g><g class="cls-16"><rect class="cls-4" x="133.62" y="83.09" width="27.97" height="28.99"/></g><g class="cls-17"><rect class="cls-4" x="145.96" y="94.49" width="14.62" height="14.64"/></g><g class="cls-18"><rect class="cls-4" x="123.79" y="103.69" width="12.7" height="13.17"/></g><g class="cls-19"><rect class="cls-4" x="117.22" y="98.05" width="19.02" height="19.39"/></g><g class="cls-20"><rect class="cls-21" x="130.5" y="116.01" width="23.86" height="24.88"/></g><g class="cls-22"><rect class="cls-4" x="137.95" y="122.09" width="17.65" height="18.87"/></g><g class="cls-23"><rect class="cls-21" x="196.72" y="69.25" width="25.19" height="20.58"/></g><g class="cls-24"><rect class="cls-4" x="204.1" y="76.33" width="18.43" height="18.7"/></g><g class="cls-25"><rect class="cls-4" x="198.91" y="82.88" width="12.92" height="11.78"/></g><g class="cls-26"><rect class="cls-21" x="197.64" y="51.61" width="18.31" height="18.58"/></g><g class="cls-27"><rect class="cls-4" x="204.1" y="57.22" width="11.94" height="12.34"/></g><g class="cls-28"><rect class="cls-2" x="139.73" y="54.45" width="22.33" height="22.56"/></g><g class="cls-29"><rect class="cls-2" x="145.02" y="59.45" width="18.67" height="18.91"/></g><g class="cls-30"><rect class="cls-31" x="171.54" y="115.94" width="26.13" height="19.25"/></g><g class="cls-32"><rect class="cls-31" x="177.63" y="51.75" width="15.71" height="15.78"/></g><g class="cls-33"><rect class="cls-31" x="177.61" y="72.08" width="15.75" height="15.73"/></g><g class="cls-34"><rect class="cls-31" x="117.21" y="72.04" width="15.71" height="15.78"/></g><g class="cls-35"><rect class="cls-31" x="117.19" y="51.75" width="15.75" height="15.73"/></g><g class="cls-36"><rect class="cls-31" x="117.19" y="51.75" width="76.15" height="36.07"/></g><g class="cls-37"><rect class="cls-31" x="142.32" y="56.75" width="25.85" height="25.87"/></g><g class="cls-38"><rect class="cls-31" x="161.61" y="63.51" width="20.08" height="12.36"/></g><g class="cls-39"><rect class="cls-31" x="161.61" y="67.65" width="16.21" height="12.36"/></g><g class="cls-40"><rect class="cls-31" x="133.04" y="59.37" width="16.21" height="12.36"/></g><g class="cls-41"><rect class="cls-31" x="129.17" y="63.51" width="20.08" height="12.36"/></g><g class="cls-42"><rect class="cls-31" x="135.25" y="119.39" width="25.44" height="25.45"/></g><g class="cls-43"><rect class="cls-31" x="121.09" y="100.99" width="19.07" height="19.09"/></g><g class="cls-44"><rect class="cls-31" x="201.4" y="54.52" width="18.42" height="18.44"/></g><g class="cls-45"><rect class="cls-31" x="138.38" y="86.91" width="29.79" height="29.8"/></g><g class="cls-46"><rect class="cls-31" x="143.26" y="91.79" width="20.02" height="20.04"/></g><g class="cls-47"><rect class="cls-31" x="217.73" y="56.32" width="20.08" height="20.1"/></g><g class="cls-48"><rect class="cls-31" x="166.02" y="23.1" width="20.95" height="20.97"/></g><g class="cls-49"><rect class="cls-31" x="109.63" y="90.02" width="17.95" height="17.97"/></g><g class="cls-50"><rect class="cls-31" x="172.18" y="134.36" width="17.95" height="17.97"/></g><g class="cls-51"><rect class="cls-31" x="138.99" y="18.78" width="17.95" height="17.97"/></g><g class="cls-52"><rect class="cls-31" x="95.35" y="18.78" width="148.3" height="139.03"/></g></g></g></svg>