<svg xmlns="http://www.w3.org/2000/svg" xmlns:xlink="http://www.w3.org/1999/xlink" viewBox="0 0 339 176.58"><defs><style>.cls-1{fill:none;}.cls-2{fill:#fff;}.cls-3{clip-path:url(#clip-path);}.cls-4{fill:#414042;}.cls-5{clip-path:url(#clip-path-2);}.cls-6{fill:#eab7ba;}.cls-7{clip-path:url(#clip-path-3);}.cls-8{clip-path:url(#clip-path-4);}.cls-9{clip-path:url(#clip-path-5);}.cls-10{clip-path:url(#clip-path-6);}.cls-11{clip-path:url(#clip-path-7);}.cls-12{fill:#d9f4ef;}.cls-13{fill:#b3ddd5;}.cls-14{clip-path:url(#clip-path-8);}.cls-15{clip-path:url(#clip-path-9);}.cls-16{clip-path:url(#clip-path-10);}.cls-17{clip-path:url(#clip-path-11);}.cls-18{clip-path:url(#clip-path-12);}.cls-19{clip-path:url(#clip-path-13);}.cls-20{clip-path:url(#clip-path-14);}.cls-21{clip-path:url(#clip-path-15);}.cls-22{clip-path:url(#clip-path-16);}.cls-23{clip-path:url(#clip-path-17);}.cls-24{clip-path:url(#clip-path-18);}.cls-25{clip-path:url(#clip-path-19);}.cls-26{clip-path:url(#clip-path-20);}.cls-27{clip-path:url(#clip-path-21);}.cls-28{clip-path:url(#clip-path-22);}.cls-29{clip-path:url(#clip-path-23);}.cls-30{clip-path:url(#clip-path-24);}.cls-31{clip-path:url(#clip-path-25);}.cls-32{clip-path:url(#clip-path-26);}.cls-33{clip-path:url(#clip-path-27);}.cls-34{clip-path:url(#clip-path-28);}.cls-35{clip-path:url(#clip-path-29);}.cls-36{clip-path:url(#clip-path-30);}.cls-37{clip-path:url(#clip-path-31);}</style><clipPath id="clip-path"><path class="cls-1" d="M132.2,128.41h16.08a23,23,0,0,0,3.83,5.11l.22.21H132.2Zm52,5.11a22.92,22.92,0,0,0,3.82-5.11h12.62v5.32H184l.22-.21m-54.79-13h16.3a22.91,22.91,0,0,0,1.41,5.32h-17.7Zm61.21,0h11.79v5.32H189.2a22.7,22.7,0,0,0,1.4-5.32m-54.31-7.84h9.63a23.2,23.2,0,0,0-.47,4.64c0,.23,0,.46,0,.68H136.3Zm54.53,4.64a23.21,23.21,0,0,0-.47-4.64h14.84V118H190.82q0-.34,0-.68M132.2,104.87h16.94a22.64,22.64,0,0,0-2.55,5.32H132.2Zm55,0h12.43v5.32H189.7a22.69,22.69,0,0,0-2.54-5.32M148,117.35a20.18,20.18,0,1,1,20.17,20.33A20.27,20.27,0,0,1,148,117.35m36.21-16.16A22.69,22.69,0,0,0,178.53,97h26.67v5.32h-20c-.34-.39-.7-.78-1.07-1.15m-16.49-12h34.69V94.5H167.7Zm-2.81-7.85h34.7v5.32h-34.7Zm-1.25-2.52a1.26,1.26,0,0,0-1.25,1.26v7.84a1.26,1.26,0,0,0,1.25,1.26h1.56V94.7a22.43,22.43,0,0,0-13.08,6.5c-.37.37-.73.76-1.07,1.15h-20.1a1.26,1.26,0,0,0-1.25,1.26v7.84a1.26,1.26,0,0,0,1.25,1.26h2.85V118h-5.65a1.26,1.26,0,0,0-1.25,1.26v7.84a1.26,1.26,0,0,0,1.25,1.26h1.56v5.32H70.32a1.26,1.26,0,0,0,0,2.53h85.07a22.57,22.57,0,0,0,25.52,0h87.77a1.26,1.26,0,0,0,0-2.53H203.14v-5.32c1.2,0,1.76-.57,1.76-1.26v-6.58h1.56a1.26,1.26,0,0,0,1.25-1.26v-7.85a1.26,1.26,0,0,0-1.25-1.26h-4.37v-5.32h4.37a1.26,1.26,0,0,0,1.25-1.26V95.76a1.26,1.26,0,0,0-1.25-1.26H204.9V87.92a1.26,1.26,0,0,0-1.25-1.26h-1.56V80.08a1.26,1.26,0,0,0-1.25-1.26Z"/></clipPath><clipPath id="clip-path-2"><path class="cls-1" d="M139.51,42.07a1.26,1.26,0,0,1-1.25,1.16h0A1.26,1.26,0,0,1,137,42.07a5.11,5.11,0,1,0-10,2,1.36,1.36,0,0,1,0,.25c.13.61,1.84,3.12,5.12,6.6s5.45,5.16,6.18,5.45c.47-.2,1.88-1.19,4.46-3.84a62.68,62.68,0,0,0,5.6-6.54,14.18,14.18,0,0,0,.84-1.29,5.09,5.09,0,0,0,.27-.72,5.12,5.12,0,1,0-10-1.85"/></clipPath><clipPath id="clip-path-3"><path class="cls-1" d="M138.26,43.23h0a1.26,1.26,0,0,0,1.25-1.16,5.11,5.11,0,1,1,10,1.85,5.09,5.09,0,0,1-.27.72,14.18,14.18,0,0,1-.84,1.29,62.68,62.68,0,0,1-5.6,6.54c-2.58,2.65-4,3.64-4.46,3.84-.73-.29-3-2.08-6.18-5.45s-5-6-5.12-6.6a1.36,1.36,0,0,0,0-.25,5.12,5.12,0,1,1,10-2,1.26,1.26,0,0,0,1.25,1.16h0m1.17-6.38a7.73,7.73,0,0,0-1.18,1.41,7.67,7.67,0,0,0-1.18-1.41,7.56,7.56,0,0,0-5.18-2,7.65,7.65,0,0,0-7.61,7.67,7.76,7.76,0,0,0,.31,2.19c.09.56.45,1.5,2,3.51a58.39,58.39,0,0,0,3.9,4.53,54.9,54.9,0,0,0,4.27,4.11c2.13,1.8,3,2,3.62,2s1.69,0,6-4.35a65.72,65.72,0,0,0,6.11-7.1,15.9,15.9,0,0,0,1-1.58l0-.07a8,8,0,0,0,.42-1.13,7.68,7.68,0,0,0-7.31-9.82,7.57,7.57,0,0,0-5.18,2"/></clipPath><clipPath id="clip-path-4"><path class="cls-1" d="M183.5,61.21a1.25,1.25,0,0,1-1.25,1.16h0A1.26,1.26,0,0,1,181,61.21a3.66,3.66,0,0,0-7.31.29,3.77,3.77,0,0,0,.17,1.11,1.48,1.48,0,0,1,0,.22,22.36,22.36,0,0,0,3.87,4.95,24.51,24.51,0,0,0,4.56,4.09,18.36,18.36,0,0,0,3.31-2.92A48,48,0,0,0,189.85,64a10.48,10.48,0,0,0,.63-1,3.66,3.66,0,0,0,.19-.5,3.77,3.77,0,0,0,.15-1,3.66,3.66,0,0,0-7.31-.29"/></clipPath><clipPath id="clip-path-5"><path class="cls-1" d="M182.25,62.37h0a1.25,1.25,0,0,0,1.25-1.16,3.66,3.66,0,0,1,7.31.29,3.77,3.77,0,0,1-.15,1,3.66,3.66,0,0,1-.19.5,10.67,10.67,0,0,1-.63,1,48.11,48.11,0,0,1-4.22,4.95,18.36,18.36,0,0,1-3.31,2.92,24.51,24.51,0,0,1-4.56-4.09,22.36,22.36,0,0,1-3.87-4.95,1.48,1.48,0,0,0,0-.22,3.77,3.77,0,0,1-.17-1.11,3.66,3.66,0,0,1,7.31-.29,1.26,1.26,0,0,0,1.25,1.16h0m0-4.61a6.15,6.15,0,0,0-11.08,3.74,6.27,6.27,0,0,0,.25,1.75A7,7,0,0,0,173,66.08a45.26,45.26,0,0,0,3,3.53c4.56,4.84,5.87,4.84,6.3,4.84s1.42,0,4.82-3.45a50.92,50.92,0,0,0,4.74-5.52,12.72,12.72,0,0,0,.81-1.25l0-.07a6.34,6.34,0,0,0,.34-.91,6.27,6.27,0,0,0,.24-1.74,6.15,6.15,0,0,0-11.08-3.74"/></clipPath><clipPath id="clip-path-6"><path class="cls-1" d="M144.42,78.07a1.26,1.26,0,0,1-2.52,0,2.24,2.24,0,1,0-4.36.86,1.55,1.55,0,0,1,0,.17,17.2,17.2,0,0,0,2.66,3.35,20.53,20.53,0,0,0,3,2.73,30.4,30.4,0,0,0,5.06-5.38c.22-.31.34-.51.42-.64a2.59,2.59,0,0,0,.11-.29,2.24,2.24,0,1,0-4.38-.81"/></clipPath><clipPath id="clip-path-7"><path class="cls-1" d="M143.17,79.23a1.26,1.26,0,0,0,1.25-1.16,2.24,2.24,0,1,1,4.38.81,2.59,2.59,0,0,1-.11.29c-.07.13-.2.33-.42.64a30.4,30.4,0,0,1-5.06,5.38,20.53,20.53,0,0,1-3-2.73,17.2,17.2,0,0,1-2.66-3.35,1.55,1.55,0,0,0,0-.17,2.24,2.24,0,1,1,4.36-.86,1.25,1.25,0,0,0,1.25,1.16h0m0-4.21a4.73,4.73,0,0,0-8.23,3.22,4.88,4.88,0,0,0,.18,1.32,5.37,5.37,0,0,0,1.19,2.15,32.81,32.81,0,0,0,2.18,2.53c3.35,3.55,4.33,3.55,4.74,3.55s1.35-.2,3.68-2.56a36.43,36.43,0,0,0,3.41-4,9.39,9.39,0,0,0,.6-.92l0-.07a4.91,4.91,0,0,0,.26-.7,4.82,4.82,0,0,0,.19-1.34A4.73,4.73,0,0,0,143.15,75"/></clipPath><clipPath id="clip-path-8"><path class="cls-1" d="M136.3,112.72V118h9.18c0-.23,0-.46,0-.68a23.2,23.2,0,0,1,.47-4.64Z"/></clipPath><clipPath id="clip-path-9"><path class="cls-1" d="M135,120.56h-5.66v5.32h17.7a22.91,22.91,0,0,1-1.41-5.32Z"/></clipPath><clipPath id="clip-path-10"><path class="cls-1" d="M132.2,128.41v5.32h20.13l-.22-.21a23,23,0,0,1-3.83-5.11Z"/></clipPath><clipPath id="clip-path-11"><path class="cls-1" d="M203.65,97H178.53a22.69,22.69,0,0,1,5.65,4.17c.37.37.73.76,1.07,1.15h20V97Z"/></clipPath><clipPath id="clip-path-12"><path class="cls-1" d="M132.2,104.87v5.32h14.4a22.64,22.64,0,0,1,2.55-5.32Z"/></clipPath><clipPath id="clip-path-13"><path class="cls-1" d="M187.16,104.87a22.69,22.69,0,0,1,2.54,5.32h9.89v-5.32Z"/></clipPath><clipPath id="clip-path-14"><path class="cls-1" d="M200.84,112.72H190.36a23.21,23.21,0,0,1,.47,4.64q0,.34,0,.68h14.39v-5.32Z"/></clipPath><clipPath id="clip-path-15"><path class="cls-1" d="M190.61,120.56a22.7,22.7,0,0,1-1.4,5.32h13.19v-5.32Z"/></clipPath><clipPath id="clip-path-16"><path class="cls-1" d="M188,128.41a22.92,22.92,0,0,1-3.82,5.11l-.22.21h16.66v-5.32Z"/></clipPath><clipPath id="clip-path-17"><path class="cls-1" d="M152.4,117.35a15.75,15.75,0,1,1,15.75,15.87,15.83,15.83,0,0,1-15.75-15.87m-4.42,0A20.18,20.18,0,1,0,168.15,97,20.27,20.27,0,0,0,148,117.35"/></clipPath><clipPath id="clip-path-18"><path class="cls-1" d="M165.45,113.46c0,.85.38,1.37,1.92,1.88v-3.57c-1.28.12-1.92.81-1.92,1.7"/></clipPath><clipPath id="clip-path-19"><path class="cls-1" d="M167.37,117.76c-2.93-.77-4.29-1.88-4.29-4.16s1.7-3.66,4.21-3.86v-.42a.88.88,0,0,1,.88-.87.86.86,0,0,1,.86.87v.44a7.23,7.23,0,0,1,3.11,1.11,1.08,1.08,0,0,1,.6,1,1.11,1.11,0,0,1-1.12,1.11,1.18,1.18,0,0,1-.6-.18,7.19,7.19,0,0,0-2.06-.89v3.88c3,.77,4.35,2,4.35,4.16s-1.72,3.7-4.27,3.94v1.21a.86.86,0,0,1-.86.87.88.88,0,0,1-.88-.87v-1.25a8.62,8.62,0,0,1-4.11-1.58,1.11,1.11,0,0,1-.54-1,1.1,1.1,0,0,1,1.76-.89,7.07,7.07,0,0,0,3,1.35Zm-12.47-.4A13.25,13.25,0,1,0,168.15,104a13.31,13.31,0,0,0-13.25,13.35"/></clipPath><clipPath id="clip-path-20"><path class="cls-1" d="M169,121.82c1.28-.14,2-.79,2-1.76s-.44-1.43-2-1.92Z"/></clipPath><clipPath id="clip-path-21"><path class="cls-1" d="M154.9,117.35a13.25,13.25,0,1,1,13.25,13.35,13.31,13.31,0,0,1-13.25-13.35m-2.51,0a15.75,15.75,0,1,0,15.75-15.87,15.83,15.83,0,0,0-15.75,15.87"/></clipPath><clipPath id="clip-path-22"><path class="cls-1" d="M238.18,81.22a2.3,2.3,0,0,0-.58,1.65v.87h-.3a.49.49,0,0,0-.49.49.49.49,0,0,0,.49.49h.3v1.67l-.48.14a.42.42,0,0,0-.31.42.41.41,0,0,0,.44.41h4.11a.5.5,0,0,0,.51-.5.51.51,0,0,0-.51-.51h-2.59V84.72h1.9a.49.49,0,0,0,.49-.49.5.5,0,0,0-.49-.49h-1.9V82.9a1.3,1.3,0,0,1,.31-.92.94.94,0,0,1,.69-.27,1.28,1.28,0,0,1,1,.49.53.53,0,0,0,.41.18.57.57,0,0,0,.39-1,2.34,2.34,0,0,0-1.83-.77,2.13,2.13,0,0,0-1.58.59"/></clipPath><clipPath id="clip-path-23"><path class="cls-1" d="M186.61,33.12V37h-3.88a1.26,1.26,0,0,0,0,2.52h3.88v3.91a1.25,1.25,0,1,0,2.51,0V39.55H193A1.26,1.26,0,0,0,193,37h-3.88V33.12a1.25,1.25,0,1,0-2.51,0"/></clipPath><clipPath id="clip-path-24"><path class="cls-1" d="M216.31,63.23v1.66h-1.65a1.26,1.26,0,0,0,0,2.52h1.65v1.66a1.25,1.25,0,1,0,2.5,0V67.42h1.65a1.26,1.26,0,0,0,0-2.52h-1.65V63.23a1.25,1.25,0,1,0-2.5,0"/></clipPath><clipPath id="clip-path-25"><path class="cls-1" d="M101.87,60.14V64.5H97.54a1.26,1.26,0,0,0,0,2.53h4.33v4.36a1.26,1.26,0,0,0,1.25,1.26h0a1.26,1.26,0,0,0,1.25-1.26V67h4.33a1.26,1.26,0,0,0,0-2.53h-4.33V60.14a1.25,1.25,0,1,0-2.51,0"/></clipPath><clipPath id="clip-path-26"><path class="cls-1" d="M116.23,88.55v2h-2a1.26,1.26,0,0,0,0,2.52h2v2a1.25,1.25,0,1,0,2.51,0v-2h2a1.26,1.26,0,0,0,0-2.52h-2v-2a1.25,1.25,0,1,0-2.51,0"/></clipPath><clipPath id="clip-path-27"><path class="cls-1" d="M227,107.53v3.41h-3.38a1.26,1.26,0,0,0,0,2.52H227v3.4a1.25,1.25,0,1,0,2.5,0v-3.4h3.38a1.26,1.26,0,0,0,0-2.52h-3.38v-3.41a1.25,1.25,0,1,0-2.5,0"/></clipPath><clipPath id="clip-path-28"><path class="cls-1" d="M91.94,113.55a7.76,7.76,0,1,1,7.76,7.82,7.79,7.79,0,0,1-7.76-7.82m-2.51,0a10.26,10.26,0,1,0,10.26-10.34,10.31,10.31,0,0,0-10.26,10.34"/></clipPath><clipPath id="clip-path-29"><path class="cls-1" d="M234,84a5.23,5.23,0,1,1,5.23,5.26A5.25,5.25,0,0,1,234,84m-2.5,0a7.73,7.73,0,1,0,7.73-7.79A7.77,7.77,0,0,0,231.48,84"/></clipPath><clipPath id="clip-path-30"><path class="cls-1" d="M165.23,110.2a5.8,5.8,0,0,0-1.47,4.16v2.2H163a1.24,1.24,0,0,0-1.23,1.24A1.23,1.23,0,0,0,163,119h.76v4.21l-1.21.36a1.06,1.06,0,0,0-.78,1.05,1,1,0,0,0,1.12,1h10.39a1.26,1.26,0,0,0,1.28-1.27,1.28,1.28,0,0,0-1.28-1.29h-6.55V119h4.79a1.25,1.25,0,0,0,1.23-1.24,1.26,1.26,0,0,0-1.23-1.24h-4.79v-2.13a3.29,3.29,0,0,1,.78-2.32,2.39,2.39,0,0,1,1.76-.67,3.24,3.24,0,0,1,2.54,1.24,1.34,1.34,0,0,0,1,.46,1.42,1.42,0,0,0,1.45-1.43,1.44,1.44,0,0,0-.45-1.05,5.91,5.91,0,0,0-4.63-1.94,5.36,5.36,0,0,0-4,1.48"/></clipPath><clipPath id="clip-path-31"><path class="cls-1" d="M98,108.61a3.54,3.54,0,0,0-.9,2.54v1.34h-.46a.76.76,0,0,0-.75.76.75.75,0,0,0,.75.76h.46v2.57l-.74.22a.65.65,0,0,0-.48.64.64.64,0,0,0,.68.63H103a.77.77,0,0,0,.78-.78.78.78,0,0,0-.78-.79H99V114h2.93a.76.76,0,0,0,.76-.76.77.77,0,0,0-.76-.76H99v-1.3a2,2,0,0,1,.48-1.42,1.47,1.47,0,0,1,1.07-.41,2,2,0,0,1,1.55.76.82.82,0,0,0,.64.28.87.87,0,0,0,.88-.88.89.89,0,0,0-.27-.64,3.62,3.62,0,0,0-2.83-1.18,3.27,3.27,0,0,0-2.44.91"/></clipPath></defs><title>image4</title><g id="Layer_2" data-name="Layer 2"><g id="Layer_2-2" data-name="Layer 2"><rect class="cls-2" width="339" height="176.58"/><g class="cls-3"><rect class="cls-4" x="64.35" y="74.06" width="210.3" height="70.9"/></g><g class="cls-5"><rect class="cls-6" x="122.05" y="32.57" width="32.38" height="28.49"/></g><g class="cls-7"><rect class="cls-4" x="119.55" y="30.05" width="37.39" height="33.57"/></g><g class="cls-8"><rect class="cls-6" x="168.95" y="53.06" width="26.58" height="23.56"/></g><g class="cls-9"><rect class="cls-4" x="166.44" y="50.54" width="31.59" height="28.66"/></g><g class="cls-10"><rect class="cls-6" x="132.71" y="71.24" width="20.89" height="18.7"/></g><g class="cls-11"><rect class="cls-4" x="130.21" y="68.71" width="25.9" height="23.85"/></g><polygon class="cls-12" points="164.89 81.34 164.89 86.66 166.44 86.66 199.59 86.66 199.59 81.34 164.89 81.34"/><polygon class="cls-13" points="200.84 89.18 167.7 89.18 167.7 94.5 169.26 94.5 202.39 94.5 202.39 89.18 200.84 89.18"/><g class="cls-14"><rect class="cls-13" x="131.59" y="107.96" width="19.07" height="14.83"/></g><g class="cls-15"><rect class="cls-12" x="124.68" y="115.81" width="27.14" height="14.83"/></g><g class="cls-16"><rect class="cls-13" x="127.49" y="123.65" width="29.56" height="14.83"/></g><g class="cls-17"><rect class="cls-12" x="173.82" y="92.27" width="36.1" height="14.83"/></g><g class="cls-18"><rect class="cls-12" x="127.49" y="100.12" width="26.38" height="14.83"/></g><g class="cls-19"><rect class="cls-13" x="182.44" y="100.12" width="21.86" height="14.83"/></g><g class="cls-20"><rect class="cls-12" x="185.65" y="107.96" width="24.27" height="14.83"/></g><g class="cls-21"><rect class="cls-13" x="184.49" y="115.81" width="22.62" height="14.83"/></g><g class="cls-22"><rect class="cls-12" x="179.25" y="123.65" width="26.1" height="14.83"/></g><g class="cls-23"><rect class="cls-2" x="143.26" y="92.27" width="49.78" height="50.16"/></g><g class="cls-24"><rect class="cls-2" x="160.73" y="107.01" width="11.36" height="13.09"/></g><g class="cls-25"><rect class="cls-2" x="150.19" y="99.25" width="35.93" height="36.21"/></g><g class="cls-26"><rect class="cls-2" x="164.24" y="113.39" width="11.42" height="13.19"/></g><g class="cls-27"><rect class="cls-4" x="147.68" y="96.73" width="40.94" height="41.25"/></g><g class="cls-28"><rect class="cls-4" x="232.09" y="75.88" width="14.5" height="16.23"/></g><g class="cls-29"><rect class="cls-4" x="176.76" y="27.1" width="22.21" height="22.39"/></g><g class="cls-30"><rect class="cls-4" x="208.69" y="57.21" width="17.73" height="17.88"/></g><g class="cls-31"><rect class="cls-4" x="91.58" y="54.12" width="23.1" height="23.28"/></g><g class="cls-32"><rect class="cls-4" x="108.25" y="82.53" width="18.48" height="18.63"/></g><g class="cls-33"><rect class="cls-4" x="217.69" y="101.51" width="21.2" height="21.37"/></g><g class="cls-34"><rect class="cls-4" x="84.71" y="98.45" width="29.96" height="30.19"/></g><g class="cls-35"><rect class="cls-4" x="226.76" y="71.45" width="24.89" height="25.09"/></g><g class="cls-36"><rect class="cls-4" x="157.05" y="103.96" width="22.22" height="26.48"/></g><g class="cls-37"><rect class="cls-4" x="91.21" y="102.95" width="17.25" height="19.89"/></g></g></g></svg>