<svg xmlns="http://www.w3.org/2000/svg" viewBox="0 0 339 176.58"><defs><style>.cls-1{fill:#fff;}.cls-2{fill:#d9f4ef;}.cls-3{fill:#414042;}</style></defs><title>image3</title><g id="Layer_2" data-name="Layer 2"><g id="Layer_2-2" data-name="Layer 2"><rect class="cls-1" width="339" height="176.58"/><path class="cls-2" d="M128.89,79.69l-2.21.38,6.7,9.68.06-10.66-.56-.08Z"/><path class="cls-2" d="M158.14,117l0-.16a1.72,1.72,0,0,1,.61-1.16l-3.32-9.76a1.75,1.75,0,0,1-.85.22h-7.82a1.73,1.73,0,1,1,0-3.46h7.57l-.86-2.53a23.72,23.72,0,0,0-14.16-19.38l-.28,0H136.9l-.09,14.52a1.74,1.74,0,0,1-3.16,1l-8.74-12.63a22,22,0,0,0-9.13,27.34h0v0l7.58,18.46a1.73,1.73,0,0,1,.13.66v8.8h19.36v-9l4.55,0v0a1.73,1.73,0,0,1,.51-1.23,1.7,1.7,0,0,1,1.23-.5l3.39,0,1-11.14Z"/><path class="cls-2" d="M112.61,112.34l0-.11a25.42,25.42,0,0,1,10.37-31.48h-.25l-3.52.6a23.69,23.69,0,0,0-11.27,30.27v0l7.58,18.46v10.53H120V130.44ZM182.09,88h-4a1.73,1.73,0,0,1-.52-.08l.89,9.51H183Z"/><path class="cls-2" d="M187.23,73.71A1.73,1.73,0,0,1,189,72h7.82a1.73,1.73,0,1,1,0,3.46H189a1.73,1.73,0,0,1-1.73-1.73m7.15,23.7a1.69,1.69,0,0,1,1.23.5,1.73,1.73,0,0,1,.51,1.23v9h19.36v-8.8l7.58-18.46v0a23.7,23.7,0,0,0-12.46-30.83,22,22,0,0,0-25.1,19.55,1.8,1.8,0,0,1-.08.38l-5,14.56h3.19a1.74,1.74,0,0,1,1.73,1.57l1.05,11.32h0Z"/><path class="cls-2" d="M176.41,85.74l5.67-16.66a25.47,25.47,0,0,1,15.4-20.69,23.73,23.73,0,0,0-20,21.06h0L171.77,86.3h4.55a1.74,1.74,0,0,1,.09-.56"/><polygon class="cls-2" points="188.1 109.92 192.66 109.92 192.66 100.89 188.1 100.91 188.1 109.26 188.1 109.92"/><path class="cls-3" d="M128.89,54.69h32.93a1.73,1.73,0,1,0,0-3.46H128.89a1.73,1.73,0,1,0,0,3.46m0,8.75h22.52a1.73,1.73,0,1,0,0-3.46H128.89a1.73,1.73,0,1,0,0,3.46m32.93,5.2H151.41a1.73,1.73,0,1,0,0,3.46h10.41a1.73,1.73,0,1,0,0-3.46"/><path class="cls-3" d="M152.56,128.14l-3.39,0a1.73,1.73,0,0,0-1.75,1.73v9H123.51V130.1a1.7,1.7,0,0,0-.13-.66L115.8,111v0h0a22,22,0,0,1,9.13-27.34l8.74,12.63a1.74,1.74,0,0,0,3.16-1l.09-14.52H139l.28,0A22,22,0,0,1,158,100.33a1.61,1.61,0,0,0,.08.39l5,14.56h-3.19a1.73,1.73,0,0,0-1.73,1.57V117l-1,11.16Zm-31.62-83.7h48.82V77.28H135.18A1.73,1.73,0,0,0,133.44,79v.09l-.06,10.66-6.7-9.68-1.41-2a1.73,1.73,0,0,0-1.43-.75h-2.9Zm37.74,87.2a1.73,1.73,0,0,0,1.73-1.57l1.06-11.33h4a1.73,1.73,0,0,0,1.64-2.29l-5.67-16.67a25.4,25.4,0,0,0-12.18-19h22.21A1.73,1.73,0,0,0,173.23,79V42.71A1.73,1.73,0,0,0,171.49,41H119.21a1.73,1.73,0,0,0-1.74,1.73V79a1.73,1.73,0,0,0,1.74,1.73h3.73a25.42,25.42,0,0,0-10.37,31.48l0,.11,7.43,18.1v10.19a1.73,1.73,0,0,0,1.73,1.73h27.38a1.73,1.73,0,0,0,1.74-1.73v-9l7.77,0Z"/><path class="cls-3" d="M156.32,104.42a1.73,1.73,0,0,0-1.73-1.73h-7.82a1.73,1.73,0,1,0,0,3.46h7.82a1.73,1.73,0,0,0,1.73-1.73m61,19.29a1.74,1.74,0,0,0-1.4.7l-8.14,11-.06-10a1.73,1.73,0,0,0-1.74-1.72H176.12V100.92h8.77l3.22,0,4.55,0v9a1.73,1.73,0,0,0,1.73,1.73h25.88v12.06Zm-32-37.58a1.73,1.73,0,0,0-1.73-1.57h-3.19l5-14.56a1.59,1.59,0,0,0,.08-.39,22,22,0,0,1,21.91-19.78,22,22,0,0,1,22,22,21.78,21.78,0,0,1-1.68,8.43v0l-7.58,18.46a1.71,1.71,0,0,0-.13.66v8.8H196.12v-9a1.72,1.72,0,0,0-.51-1.23,1.7,1.7,0,0,0-1.23-.5l-7.88,0h0ZM231,81.57a25.22,25.22,0,0,0,1.94-9.76,25.49,25.49,0,0,0-50.83-2.73l-5.67,16.66a1.74,1.74,0,0,0-.09.56,1.74,1.74,0,0,0,1.22,1.65,1.78,1.78,0,0,0,.52.08h4l.88,9.43h-8.59a1.73,1.73,0,0,0-1.74,1.73,1.08,1.08,0,0,1,0,.25v26a1.73,1.73,0,0,0,1.74,1.73h29.93l.09,13.47a1.73,1.73,0,0,0,1.2,1.63,1.69,1.69,0,0,0,.54.09,1.74,1.74,0,0,0,1.4-.7l10.72-14.48H222a1.73,1.73,0,0,0,1.73-1.73V109.92a1.71,1.71,0,0,0-.24-.87V99.73Z"/><path class="cls-3" d="M189,75.44h7.82a1.73,1.73,0,1,0,0-3.46H189a1.73,1.73,0,1,0,0,3.46M212.5,116H183.73a1.73,1.73,0,1,0,0,3.46H212.5a1.73,1.73,0,1,0,0-3.46"/></g></g></svg>