<?xml version="1.0" encoding="utf-8"?>
<!-- Generator: Adobe Illustrator 21.1.0, SVG Export Plug-In . SVG Version: 6.00 Build 0)  -->
<svg version="1.1" id="Layer_1" xmlns="http://www.w3.org/2000/svg" xmlns:xlink="http://www.w3.org/1999/xlink" x="0px" y="0px"
	 viewBox="0 0 187.2 195.1" style="enable-background:new 0 0 187.2 195.1;" xml:space="preserve">
<style type="text/css">
	.st0{fill:none;}
	.st1{fill:#DAEFEC;}
	.st2{clip-path:url(#SVGID_2_);}
	.st3{fill:#424143;}
	.st4{clip-path:url(#SVGID_4_);}
	.st5{clip-path:url(#SVGID_6_);}
	.st6{clip-path:url(#SVGID_8_);}
	.st7{clip-path:url(#SVGID_10_);}
	.st8{clip-path:url(#SVGID_12_);}
	.st9{clip-path:url(#SVGID_14_);}
	.st10{clip-path:url(#SVGID_16_);}
	.st11{clip-path:url(#SVGID_18_);}
	.st12{clip-path:url(#SVGID_20_);}
	.st13{clip-path:url(#SVGID_22_);}
	.st14{clip-path:url(#SVGID_24_);}
	.st15{clip-path:url(#SVGID_26_);}
	.st16{clip-path:url(#SVGID_28_);}
	.st17{clip-path:url(#SVGID_30_);}
	.st18{clip-path:url(#SVGID_32_);}
	.st19{clip-path:url(#SVGID_34_);}
	.st20{clip-path:url(#SVGID_36_);}
	.st21{clip-path:url(#SVGID_38_);}
	.st22{clip-path:url(#SVGID_40_);}
	.st23{clip-path:url(#SVGID_42_);}
	.st24{clip-path:url(#SVGID_44_);}
	.st25{clip-path:url(#SVGID_46_);}
	.st26{clip-path:url(#SVGID_48_);}
	.st27{clip-path:url(#SVGID_50_);}
	.st28{clip-path:url(#SVGID_52_);}
	.st29{clip-path:url(#SVGID_54_);}
	.st30{clip-path:url(#SVGID_56_);}
	.st31{clip-path:url(#SVGID_58_);}
	.st32{clip-path:url(#SVGID_60_);}
	.st33{clip-path:url(#SVGID_62_);}
	.st34{clip-path:url(#SVGID_64_);}
	.st35{clip-path:url(#SVGID_66_);}
	.st36{clip-path:url(#SVGID_68_);}
	.st37{clip-path:url(#SVGID_70_);}
	.st38{clip-path:url(#SVGID_72_);}
	.st39{clip-path:url(#SVGID_74_);}
	.st40{clip-path:url(#SVGID_76_);}
	.st41{fill:#EBB7BA;}
	.st42{clip-path:url(#SVGID_78_);}
	.st43{clip-path:url(#SVGID_80_);}
	.st44{clip-path:url(#SVGID_82_);}
	.st45{clip-path:url(#SVGID_84_);}
	.st46{clip-path:url(#SVGID_86_);}
	.st47{clip-path:url(#SVGID_88_);}
	.st48{clip-path:url(#SVGID_90_);}
	.st49{clip-path:url(#SVGID_92_);}
	.st50{clip-path:url(#SVGID_94_);}
	.st51{clip-path:url(#SVGID_96_);}
	.st52{clip-path:url(#SVGID_98_);}
	.st53{clip-path:url(#SVGID_100_);}
	.st54{clip-path:url(#SVGID_102_);}
	.st55{clip-path:url(#SVGID_104_);}
	.st56{clip-path:url(#SVGID_106_);}
	.st57{clip-path:url(#SVGID_108_);}
	.st58{clip-path:url(#SVGID_110_);}
	.st59{clip-path:url(#SVGID_112_);}
	.st60{clip-path:url(#SVGID_114_);}
	.st61{clip-path:url(#SVGID_116_);}
	.st62{clip-path:url(#SVGID_118_);}
	.st63{clip-path:url(#SVGID_120_);}
	.st64{fill:#D40005;}
	.st65{clip-path:url(#SVGID_122_);}
	.st66{clip-path:url(#SVGID_124_);}
	.st67{clip-path:url(#SVGID_126_);}
	.st68{clip-path:url(#SVGID_128_);}
	.st69{clip-path:url(#SVGID_130_);}
	.st70{clip-path:url(#SVGID_132_);}
	.st71{clip-path:url(#SVGID_134_);}
	.st72{clip-path:url(#SVGID_136_);}
	.st73{clip-path:url(#SVGID_138_);}
	.st74{clip-path:url(#SVGID_140_);}
	.st75{clip-path:url(#SVGID_142_);}
	.st76{clip-path:url(#SVGID_144_);}
</style>
<title>image1</title>
<rect y="1.1" class="st0" width="187.2" height="194.1"/>
<rect x="46.5" y="41.7" class="st1" width="74.6" height="30.1"/>
<g>
	<defs>
		<path id="SVGID_1_" d="M63.3,47.8c-2.1,0.5-3.9,2-4.8,4c-0.4,0.9-0.6,1.8-0.6,2.8l0,14.2c0,0.7,0.5,1.2,1.2,1.2c0,0,0,0,0.1,0l0,0
			h10.5c0.7,0,1.2-0.5,1.2-1.2c0-0.7-0.5-1.2-1.2-1.2h-9.3v-13v-0.1c0-0.6,0.1-1.3,0.4-1.8c0.6-1.3,1.8-2.2,3.2-2.6
			c0.9-0.3,1.8-0.2,2.6,0.3c0.8,0.5,1.5,1.3,1.8,2.2c0.2,0.6,0.9,1,1.5,0.8c0.6-0.2,1-0.9,0.8-1.5l0,0c-0.7-2.5-3-4.2-5.6-4.3
			C64.4,47.6,63.9,47.7,63.3,47.8"/>
	</defs>
	<clipPath id="SVGID_2_">
		<use xlink:href="#SVGID_1_"  style="overflow:visible;"/>
	</clipPath>
	<g class="st2">
		<rect x="55.5" y="45.1" class="st3" width="17.9" height="27.4"/>
	</g>
</g>
<g>
	<defs>
		<path id="SVGID_3_" d="M65.7,58.4h-8.5c-0.7,0-1.2,0.5-1.2,1.2s0.5,1.2,1.2,1.2l0,0h8.5c0.7,0,1.2-0.5,1.2-1.2
			S66.4,58.4,65.7,58.4z"/>
	</defs>
	<clipPath id="SVGID_4_">
		<use xlink:href="#SVGID_3_"  style="overflow:visible;"/>
	</clipPath>
	<g class="st4">
		<rect x="53.5" y="55.9" class="st3" width="15.9" height="7.5"/>
	</g>
</g>
<g>
	<defs>
		<path id="SVGID_5_" d="M113.1,68.4h-0.6c-0.7,0-1.2,0.5-1.2,1.2c0,0.7,0.5,1.2,1.2,1.2l0,0h0.6c2.1,0,3.9,1.7,3.9,3.9
			c0,0.7,0.5,1.2,1.2,1.2s1.2-0.5,1.2-1.2C119.4,71.2,116.6,68.4,113.1,68.4L113.1,68.4z"/>
	</defs>
	<clipPath id="SVGID_6_">
		<use xlink:href="#SVGID_5_"  style="overflow:visible;"/>
	</clipPath>
	<g class="st5">
		<rect x="108.8" y="65.9" class="st3" width="13.1" height="12.5"/>
	</g>
</g>
<g>
	<defs>
		<path id="SVGID_7_" d="M106.8,52h-1.3c-3.3,0-5.9,2.7-5.9,5.9c0,0,0,0,0,0v4.8c0,3.2,2.6,5.9,5.9,5.9h1.3c2.5,0,4.7-1.5,5.5-3.8
			c0.2-0.6-0.2-1.3-0.8-1.5c-0.6-0.2-1.2,0.1-1.4,0.7c-0.5,1.4-1.8,2.3-3.3,2.3h-1.3c-1.9,0-3.5-1.6-3.5-3.5L102,58
			c0-1.9,1.6-3.5,3.5-3.5h1.3c1.9,0,3.5,1.6,3.5,3.5v1.8c0,0.7,0.5,1.2,1.2,1.2l0,0c0.7,0,1.2-0.5,1.2-1.2c0,0,0,0,0,0v-1.9
			C112.7,54.7,110,52,106.8,52L106.8,52"/>
	</defs>
	<clipPath id="SVGID_8_">
		<use xlink:href="#SVGID_7_"  style="overflow:visible;"/>
	</clipPath>
	<g class="st6">
		<rect x="97.1" y="49.5" class="st3" width="18.1" height="21.6"/>
	</g>
</g>
<g>
	<defs>
		<path id="SVGID_9_" d="M111.8,68.6c-1.2,0.9-2.7,1.4-4.2,1.4h-1.6c-0.7,0-1.2,0.5-1.2,1.2c0,0.7,0.5,1.2,1.2,1.2h1.6
			c2,0,4-0.7,5.7-1.9c0.5-0.4,0.7-1.1,0.3-1.7C113.2,68.3,112.4,68.2,111.8,68.6C111.9,68.6,111.8,68.6,111.8,68.6"/>
	</defs>
	<clipPath id="SVGID_10_">
		<use xlink:href="#SVGID_9_"  style="overflow:visible;"/>
	</clipPath>
	<g class="st7">
		<rect x="102.2" y="65.9" class="st3" width="14" height="9.1"/>
	</g>
</g>
<g>
	<defs>
		<path id="SVGID_11_" d="M99.5,68.4c-3.5,0-6.3,2.8-6.3,6.3c0,0,0,0,0,0c0,0.7,0.5,1.2,1.2,1.2c0.7,0,1.2-0.5,1.2-1.2
			c0-2.1,1.7-3.9,3.9-3.9c0.7,0,1.2-0.5,1.2-1.2C100.7,69,100.2,68.4,99.5,68.4L99.5,68.4z"/>
	</defs>
	<clipPath id="SVGID_12_">
		<use xlink:href="#SVGID_11_"  style="overflow:visible;"/>
	</clipPath>
	<g class="st8">
		<rect x="90.8" y="65.9" class="st3" width="12.5" height="12.5"/>
	</g>
</g>
<g>
	<defs>
		<path id="SVGID_13_" d="M99.7,49c-0.2,0.8-0.2,1.6,0.2,2.4c0.2,0.4,0.6,0.7,1.1,0.7c0.2,0,0.3,0,0.5-0.1c0.6-0.3,0.9-1,0.6-1.6
			c0,0,0,0,0,0c-0.1-0.3-0.1-0.5-0.1-0.8c0.2-0.7,0.8-1.1,1.5-0.9c0.5,0.1,0.9,0.5,0.9,1c0.1,0.6,0.8,1.1,1.4,0.9
			c0.6-0.1,1-0.7,0.9-1.4c-0.3-2-2.2-3.3-4.2-3C101.2,46.6,100.1,47.6,99.7,49"/>
	</defs>
	<clipPath id="SVGID_14_">
		<use xlink:href="#SVGID_13_"  style="overflow:visible;"/>
	</clipPath>
	<g class="st9">
		<rect x="97.1" y="43.8" class="st3" width="12.3" height="10.8"/>
	</g>
</g>
<g>
	<defs>
		<path id="SVGID_15_" d="M104.6,48.9c0,0.1-0.1,0.2-0.1,0.4c0,0,0,0,0,0.1c-0.1,0.7,0.3,1.3,1,1.4s1.3-0.3,1.4-1v-0.1
			c0,0,0,0,0-0.1c0.2-0.7,1-1,1.6-0.8c0.6,0.2,0.9,0.8,0.8,1.4l-0.1,0.2c-0.2,0.6,0.2,1.3,0.8,1.5c0,0,0,0,0,0c0.1,0,0.2,0,0.3,0
			c0.5,0,1-0.3,1.1-0.8l0,0l0.1-0.2l0,0c0.5-2-0.6-4-2.6-4.5C107.1,45.9,105.1,47,104.6,48.9"/>
	</defs>
	<clipPath id="SVGID_16_">
		<use xlink:href="#SVGID_15_"  style="overflow:visible;"/>
	</clipPath>
	<g class="st10">
		<rect x="101.9" y="43.7" class="st3" width="12.3" height="10.7"/>
	</g>
</g>
<g>
	<defs>
		<path id="SVGID_17_" d="M96.1,52c-0.2,0.9-0.2,1.8,0.2,2.6c-1,0.7-1.5,2-1.3,3.2c0.1,0.6,0.6,1.1,1.2,1.1h0.1
			c0.7-0.1,1.1-0.7,1.1-1.3c0,0,0,0,0,0c-0.1-0.4,0.1-0.8,0.4-1c0.2-0.2,0.5-0.3,0.7-0.4c0.4-0.1,0.8-0.5,0.8-0.9
			c0.1-0.5-0.1-0.9-0.5-1.2c-0.4-0.3-0.6-0.8-0.5-1.3c0.2-0.7,0.9-1.1,1.6-0.9c0.1,0,0.2,0.1,0.3,0.2c0.6,0.4,1.3,0.2,1.7-0.3
			c0.4-0.6,0.2-1.3-0.3-1.7c-0.3-0.2-0.7-0.4-1.1-0.5C98.6,48.9,96.6,50.1,96.1,52"/>
	</defs>
	<clipPath id="SVGID_18_">
		<use xlink:href="#SVGID_17_"  style="overflow:visible;"/>
	</clipPath>
	<g class="st11">
		<rect x="92.4" y="46.8" class="st3" width="12.2" height="14.5"/>
	</g>
</g>
<g>
	<defs>
		<path id="SVGID_19_" d="M114.1,57.9c-0.5,0.5-0.5,1.2,0,1.7c0,0,0,0,0,0c0.3,0.3,0.5,0.8,0.3,1.2c-0.1,0.3-0.3,0.5-0.7,0.5
			c-0.7,0-1.2,0.5-1.3,1.1s0.5,1.2,1.1,1.3h0.2c1.4,0,2.6-0.9,2.9-2.3l0,0c0.3-1.3,0-2.7-1-3.6C115.3,57.5,114.5,57.5,114.1,57.9
			C114,57.9,114,57.9,114.1,57.9"/>
	</defs>
	<clipPath id="SVGID_20_">
		<use xlink:href="#SVGID_19_"  style="overflow:visible;"/>
	</clipPath>
	<g class="st12">
		<rect x="110" y="55.1" class="st3" width="9.4" height="11.2"/>
	</g>
</g>
<g>
	<defs>
		<path id="SVGID_21_" d="M109.5,50c-0.4,0.5-0.3,1.3,0.3,1.7s1.3,0.3,1.7-0.3c0.3-0.4,0.8-0.6,1.3-0.5c0.3,0.1,0.6,0.3,0.8,0.6
			c0.2,0.3,0.2,0.7,0.1,1c-0.1,0.2-0.2,0.4-0.4,0.6c-0.5,0.4-0.5,1.2-0.1,1.7c0,0,0,0,0,0c0.4,0.5,1.2,0.5,1.7,0.1c0,0,0,0,0,0
			c1.4-1.5,1.4-3.8-0.1-5.2c-1.5-1.4-3.8-1.4-5.2,0.1C109.6,49.9,109.5,49.9,109.5,50"/>
	</defs>
	<clipPath id="SVGID_22_">
		<use xlink:href="#SVGID_21_"  style="overflow:visible;"/>
	</clipPath>
	<g class="st13">
		<rect x="106.7" y="46" class="st3" width="11.9" height="11.7"/>
	</g>
</g>
<g>
	<defs>
		<path id="SVGID_23_" d="M114,52.8c-0.7,0.1-1.2,0.6-1.1,1.3c0.1,0.7,0.6,1.2,1.3,1.1c0,0,0.1,0,0.1,0c0.2,0,0.3,0,0.5,0
			c0.7,0.2,1.1,0.9,0.9,1.5c-0.1,0.5-0.5,0.8-1,0.9c-0.7,0.1-1.1,0.7-1,1.4c0.1,0.6,0.6,1,1.2,1c0.1,0,0.2,0,0.3,0
			c2-0.4,3.2-2.4,2.8-4.4c-0.3-1.3-1.3-2.4-2.6-2.8c-0.3-0.1-0.6-0.1-0.9-0.1L114,52.8"/>
	</defs>
	<clipPath id="SVGID_24_">
		<use xlink:href="#SVGID_23_"  style="overflow:visible;"/>
	</clipPath>
	<g class="st14">
		<rect x="110.4" y="50.2" class="st3" width="10.2" height="12.3"/>
	</g>
</g>
<g>
	<defs>
		<path id="SVGID_25_" d="M65.4,140.3l0.6,0.4c1.1,0.9,2.1,1.9,3,3c1.4-1,2.7-2.2,3.9-3.4c-0.3-0.5-0.6-0.9-0.9-1.4
			c-0.1,1.3-1.2,2.3-2.5,2.2c-1.3-0.1-2.3-1.2-2.2-2.5c0.1-1.3,1.2-2.3,2.5-2.2c0.4,0,0.8,0.2,1.2,0.4l0,0l-0.5-1.2
			c1.4-1.6,1.8-3,2.6-5.7c1-3.6,6.7-23.2,9.3-32.2L65.4,140.3z"/>
	</defs>
	<clipPath id="SVGID_26_">
		<use xlink:href="#SVGID_25_"  style="overflow:visible;"/>
	</clipPath>
	<g class="st15">
		<rect x="62.9" y="95.2" class="st1" width="22" height="51"/>
	</g>
</g>
<g>
	<defs>
		<path id="SVGID_27_" d="M78.3,145.2l-0.5-0.3c1.2,1.6,2.6,3,4.3,4.1c4-2.2,8.9-2.2,12.9,0C91.4,143.4,84,141.7,78.3,145.2"/>
	</defs>
	<clipPath id="SVGID_28_">
		<use xlink:href="#SVGID_27_"  style="overflow:visible;"/>
	</clipPath>
	<g class="st16">
		<rect x="75.3" y="140.9" class="st1" width="22.2" height="10.6"/>
	</g>
</g>
<g>
	<defs>
		<path id="SVGID_29_" d="M46.7,93.2c0,0,9.3,32,10.6,36.7c0.7,2.5,1.1,3.8,2.3,5.3c-1.7-5.9-10.4-36-10.5-36.3v-0.1
			c-0.6-4.2,0-8.5,1.9-12.3L48.8,81C46.8,84.7,46.1,89,46.7,93.2"/>
	</defs>
	<clipPath id="SVGID_30_">
		<use xlink:href="#SVGID_29_"  style="overflow:visible;"/>
	</clipPath>
	<g class="st17">
		<rect x="43.9" y="78.5" class="st1" width="18.1" height="59.2"/>
	</g>
</g>
<g>
	<defs>
		<path id="SVGID_31_" d="M72.8,154L72.8,154c-0.4,3.1,0.5,6.2,2.4,8.7c-0.1-0.7-0.1-1.3-0.2-2c0-0.5,0-1,0.1-1.5
			c0-1.4-0.3-2.8-0.7-4.2c-0.5-1.5-1.1-2.9-2-4.1C72.7,151.9,72.8,152.9,72.8,154"/>
	</defs>
	<clipPath id="SVGID_32_">
		<use xlink:href="#SVGID_31_"  style="overflow:visible;"/>
	</clipPath>
	<g class="st18">
		<rect x="70" y="148.5" class="st1" width="7.8" height="16.8"/>
	</g>
</g>
<g>
	<defs>
		<path id="SVGID_33_" d="M71.2,145.5c4.2,3.4,6.7,8.5,6.8,13.9c0,0,0,0.1,0,0.1c0,0.4-0.1,0.8-0.1,1.2c0,1.9,0.5,3.7,1.5,5.4
			c1.7,0.9,3.6,1.3,5.4,1.3h0.3c-2.5-1.3-4.1-3.8-4.2-6.7c0-0.2,0-0.4,0-0.6c-2.5-2-3.1-5.6-1.3-8.2l1.1-0.6c-3.1-1.9-5.5-4.7-7-8
			C73.1,144,72.3,144.7,71.2,145.5"/>
	</defs>
	<clipPath id="SVGID_34_">
		<use xlink:href="#SVGID_33_"  style="overflow:visible;"/>
	</clipPath>
	<g class="st19">
		<rect x="68.7" y="140.9" class="st1" width="18.9" height="29.1"/>
	</g>
</g>
<g>
	<defs>
		<path id="SVGID_35_" d="M87.9,150.2c1.3,0.8,2.3,2,2.7,3.4c2.9,0.8,5,3.3,5.4,6.3c0.6-1.4,0.9-2.9,0.9-4.5c0-0.5,0-0.9-0.1-1.4
			c-2-2.5-5-3.9-8.2-3.9L87.9,150.2"/>
	</defs>
	<clipPath id="SVGID_36_">
		<use xlink:href="#SVGID_35_"  style="overflow:visible;"/>
	</clipPath>
	<g class="st20">
		<rect x="85.4" y="147.6" class="st1" width="14" height="14.7"/>
	</g>
</g>
<g>
	<defs>
		<path id="SVGID_37_" d="M69.2,138.7c0,0.3,0.2,0.5,0.5,0.5s0.5-0.2,0.5-0.5c0-0.3-0.2-0.5-0.5-0.5S69.2,138.4,69.2,138.7
			L69.2,138.7"/>
	</defs>
	<clipPath id="SVGID_38_">
		<use xlink:href="#SVGID_37_"  style="overflow:visible;"/>
	</clipPath>
	<g class="st21">
		<rect x="66.7" y="135.7" class="st1" width="5.9" height="5.9"/>
	</g>
</g>
<g>
	<defs>
		<path id="SVGID_39_" d="M84.8,161.5c-0.3,0-0.6,0-0.9-0.1c0.4,2.6,2.7,4.4,5.3,4c2.6-0.4,4.4-2.7,4-5.3c-0.2-1.5-1.1-2.8-2.4-3.5
			C90.2,159.5,87.7,161.5,84.8,161.5"/>
	</defs>
	<clipPath id="SVGID_40_">
		<use xlink:href="#SVGID_39_"  style="overflow:visible;"/>
	</clipPath>
	<g class="st22">
		<rect x="81.4" y="154.1" class="st1" width="14.4" height="13.9"/>
	</g>
</g>
<g>
	<defs>
		<path id="SVGID_41_" d="M77.5,91.2c-0.2,1.2-0.6,2.3-1.3,3.3l-5.5,13.8c1.5-1.2,3.3-1.8,5.1-1.8L83.6,87c-0.3-2.1-1-4.1-2-6
			L77.5,91.2z"/>
	</defs>
	<clipPath id="SVGID_42_">
		<use xlink:href="#SVGID_41_"  style="overflow:visible;"/>
	</clipPath>
	<g class="st23">
		<rect x="68.2" y="78.5" class="st1" width="17.9" height="32.3"/>
	</g>
</g>
<g>
	<defs>
		<path id="SVGID_43_" d="M59.4,136.8c-1.4,3.6-4,6.6-7.4,8.4c-5.6-3.6-13.1-1.9-16.6,3.7c-2.7,4.3-2.5,9.8,0.6,13.8
			c-1-7.4,4.1-14.2,11.4-15.2c2.9-0.4,5.8,0.1,8.3,1.5c2.7-1.7,4.8-4.2,6-7.2v-0.1l0.2-0.5c-1.1-1.6-1.9-3.4-2.3-5.4L59.4,136.8z"/>
	</defs>
	<clipPath id="SVGID_44_">
		<use xlink:href="#SVGID_43_"  style="overflow:visible;"/>
	</clipPath>
	<g class="st24">
		<rect x="31" y="133.3" class="st1" width="33.5" height="32"/>
	</g>
</g>
<polygon class="st1" points="66.7,118.3 67.5,120.3 67.5,116.3 "/>
<g>
	<defs>
		<path id="SVGID_45_" d="M48.7,150.2c1.3,0.8,2.3,2,2.7,3.4c1.7,0.5,3.2,1.6,4.2,3.1c0.6,1,1,2.1,1.2,3.2c0.7-1.9,1-3.9,0.8-5.8
			l0,0c0-1.1,0.1-2.1,0.3-3.1c-0.5,0.3-0.9,0.6-1.4,0.9c-0.4,0.3-1,0.3-1.5,0c-1.7-1.1-3.7-1.6-5.7-1.6L48.7,150.2"/>
	</defs>
	<clipPath id="SVGID_46_">
		<use xlink:href="#SVGID_45_"  style="overflow:visible;"/>
	</clipPath>
	<g class="st25">
		<rect x="46.2" y="147.6" class="st1" width="14.2" height="14.7"/>
	</g>
</g>
<g>
	<defs>
		<path id="SVGID_47_" d="M70.3,114.9v5.4l4.3-10.8C72.1,110,70.4,112.3,70.3,114.9"/>
	</defs>
	<clipPath id="SVGID_48_">
		<use xlink:href="#SVGID_47_"  style="overflow:visible;"/>
	</clipPath>
	<g class="st26">
		<rect x="67.8" y="106.9" class="st1" width="9.3" height="15.9"/>
	</g>
</g>
<g>
	<defs>
		<path id="SVGID_49_" d="M45.6,161.5c-0.3,0-0.6,0-0.9-0.1c0.4,2.6,2.7,4.4,5.3,4c2.6-0.4,4.4-2.7,4-5.3c-0.2-1.5-1.1-2.8-2.4-3.5
			C51,159.5,48.5,161.5,45.6,161.5"/>
	</defs>
	<clipPath id="SVGID_50_">
		<use xlink:href="#SVGID_49_"  style="overflow:visible;"/>
	</clipPath>
	<g class="st27">
		<rect x="42.2" y="154.2" class="st1" width="14.4" height="13.8"/>
	</g>
</g>
<g>
	<defs>
		<path id="SVGID_51_" d="M38.7,160.8c0,1.9,0.5,3.7,1.5,5.4c1.7,0.9,3.6,1.3,5.4,1.3h0.3c-2.5-1.3-4.1-3.9-4.1-6.7
			c0-0.2,0-0.4,0-0.6c-1.2-0.9-2-2.2-2.3-3.7C39,157.9,38.7,159.3,38.7,160.8"/>
	</defs>
	<clipPath id="SVGID_52_">
		<use xlink:href="#SVGID_51_"  style="overflow:visible;"/>
	</clipPath>
	<g class="st28">
		<rect x="36.2" y="154" class="st1" width="12.2" height="16"/>
	</g>
</g>
<g>
	<defs>
		<path id="SVGID_53_" d="M51.8,98.2c0.5,1.6,9.3,32.1,10.6,36.7c0.3,1,0.6,2,0.9,3l4.1-10.3l-2.2-5.5l-1.3,3.2l1.2-3.1l-12.7-32
			C51.6,92.8,51.4,95.5,51.8,98.2"/>
	</defs>
	<clipPath id="SVGID_54_">
		<use xlink:href="#SVGID_53_"  style="overflow:visible;"/>
	</clipPath>
	<g class="st29">
		<rect x="49.1" y="87.8" class="st1" width="20.8" height="52.6"/>
	</g>
</g>
<g>
	<defs>
		<path id="SVGID_55_" d="M108.3,109.4h-5.8v10.5h3.8c-1.6-2.2-1.1-5.4,1.1-7c2-1.4,4.6-1.2,6.4,0.5c2-1.9,5.2-1.9,7.1,0.1
			c1.7,1.7,1.9,4.4,0.5,6.4h24.8v-10.5H108.3z"/>
	</defs>
	<clipPath id="SVGID_56_">
		<use xlink:href="#SVGID_55_"  style="overflow:visible;"/>
	</clipPath>
	<g class="st30">
		<rect x="100.1" y="106.8" class="st1" width="48.7" height="15.5"/>
	</g>
</g>
<g>
	<defs>
		<path id="SVGID_57_" d="M110.4,91.2c-0.4,0-0.7,0.3-0.7,0.7v3.4h35.8c1.6,0,3,1.1,3.4,2.7v-6.8H110.4z"/>
	</defs>
	<clipPath id="SVGID_58_">
		<use xlink:href="#SVGID_57_"  style="overflow:visible;"/>
	</clipPath>
	<g class="st31">
		<rect x="107.2" y="88.7" class="st1" width="44.2" height="11.8"/>
	</g>
</g>
<g>
	<defs>
		<path id="SVGID_59_" d="M115.3,116.8c0,1.2,1,2.2,2.2,2.2s2.2-1,2.2-2.2s-1-2.2-2.2-2.2S115.3,115.6,115.3,116.8L115.3,116.8"/>
	</defs>
	<clipPath id="SVGID_60_">
		<use xlink:href="#SVGID_59_"  style="overflow:visible;"/>
	</clipPath>
	<g class="st32">
		<rect x="112.8" y="112.1" class="st1" width="9.4" height="9.4"/>
	</g>
</g>
<g>
	<defs>
		<path id="SVGID_61_" d="M108.1,116.8c0,1.2,1,2.2,2.2,2.2s2.2-1,2.2-2.2s-1-2.2-2.2-2.2C109.1,114.6,108.1,115.5,108.1,116.8
			C108.1,116.7,108.1,116.8,108.1,116.8"/>
	</defs>
	<clipPath id="SVGID_62_">
		<use xlink:href="#SVGID_61_"  style="overflow:visible;"/>
	</clipPath>
	<g class="st33">
		<rect x="105.6" y="112.1" class="st1" width="9.4" height="9.4"/>
	</g>
</g>
<g>
	<defs>
		<path id="SVGID_63_" d="M106.9,95.3L106.9,95.3z M101.9,89.6v6c0.4-0.2,0.9-0.3,1.3-0.3h3.7v-3.4c0-0.9,0.3-1.7,0.9-2.3
			L101.9,89.6z"/>
	</defs>
	<clipPath id="SVGID_64_">
		<use xlink:href="#SVGID_63_"  style="overflow:visible;"/>
	</clipPath>
	<g class="st34">
		<rect x="99.4" y="87" class="st1" width="10.9" height="11"/>
	</g>
</g>
<g>
	<defs>
		<path id="SVGID_65_" d="M108.3,98.1h-5.1c-0.4,0-0.7,0.3-0.7,0.7v4.2h43.7v-4.2c0-0.4-0.3-0.7-0.7-0.7H108.3z"/>
	</defs>
	<clipPath id="SVGID_66_">
		<use xlink:href="#SVGID_65_"  style="overflow:visible;"/>
	</clipPath>
	<g class="st35">
		<rect x="100" y="95.6" class="st1" width="48.7" height="9.8"/>
	</g>
</g>
<g>
	<defs>
		<path id="SVGID_67_" d="M45.2,33v6.9h5.1v-6l0,0c0-0.4,0.1-0.7,0.4-1L45.2,33z"/>
	</defs>
	<clipPath id="SVGID_68_">
		<use xlink:href="#SVGID_67_"  style="overflow:visible;"/>
	</clipPath>
	<g class="st36">
		<rect x="42.7" y="30.5" class="st1" width="10.5" height="11.9"/>
	</g>
</g>
<g>
	<defs>
		<path id="SVGID_69_" d="M53.1,35.3v4.6h68.3c0.5,0,0.9,0.3,1.2,0.7v-5.2H53.1z"/>
	</defs>
	<clipPath id="SVGID_70_">
		<use xlink:href="#SVGID_69_"  style="overflow:visible;"/>
	</clipPath>
	<g class="st37">
		<rect x="50.6" y="32.8" class="st1" width="74.5" height="10.2"/>
	</g>
</g>
<g>
	<defs>
		<path id="SVGID_71_" d="M27,126.7c0,2.6,1.4,5,3.6,6.2c-1.8-3.7-0.4-8.1,3.3-9.9c1.9-1,4.2-1,6.2-0.2c-2.2-3.3-6.6-4.2-9.9-2.1
			C28.2,122,27,124.3,27,126.7"/>
	</defs>
	<clipPath id="SVGID_72_">
		<use xlink:href="#SVGID_71_"  style="overflow:visible;"/>
	</clipPath>
	<g class="st38">
		<rect x="24.5" y="117.1" class="st1" width="18.2" height="18.4"/>
	</g>
</g>
<g>
	<defs>
		<path id="SVGID_73_" d="M32.7,129.6c0,1.8,1,3.4,2.6,4.1c3.2-0.5,5.7-3.1,6-6.4c-1.3-2.2-4.1-3-6.3-1.7
			C33.6,126.4,32.7,128,32.7,129.6"/>
	</defs>
	<clipPath id="SVGID_74_">
		<use xlink:href="#SVGID_73_"  style="overflow:visible;"/>
	</clipPath>
	<g class="st39">
		<rect x="30.2" y="122.5" class="st1" width="13.6" height="13.7"/>
	</g>
</g>
<g>
	<defs>
		<path id="SVGID_75_" d="M119.2,151.4c0,2.5,1.6,4.6,3.9,5.4c3.8-0.6,6.6-3.7,7-7.5c-1.1-2.9-4.4-4.4-7.3-3.3
			C120.6,146.9,119.1,149,119.2,151.4"/>
	</defs>
	<clipPath id="SVGID_76_">
		<use xlink:href="#SVGID_75_"  style="overflow:visible;"/>
	</clipPath>
	<g class="st40">
		<rect x="116.7" y="143.3" class="st41" width="16" height="16.1"/>
	</g>
</g>
<g>
	<defs>
		<path id="SVGID_77_" d="M113.3,148.5c0,3.1,1.7,5.9,4.3,7.4c-2.5-4-1.2-9.2,2.8-11.7c2.6-1.6,5.8-1.7,8.4-0.3
			c-2.5-3.9-7.8-5-11.7-2.5C114.8,143,113.3,145.7,113.3,148.5"/>
	</defs>
	<clipPath id="SVGID_78_">
		<use xlink:href="#SVGID_77_"  style="overflow:visible;"/>
	</clipPath>
	<g class="st42">
		<rect x="110.8" y="137.6" class="st41" width="20.5" height="20.8"/>
	</g>
</g>
<g>
	<defs>
		<path id="SVGID_79_" d="M135.5,77.4c0.4,0.5,0.9,1,1.4,1.4c-0.2-0.5-0.3-1-0.4-1.4H135.5z"/>
	</defs>
	<clipPath id="SVGID_80_">
		<use xlink:href="#SVGID_79_"  style="overflow:visible;"/>
	</clipPath>
	<g class="st43">
		<rect x="133" y="74.9" class="st1" width="6.4" height="6.5"/>
	</g>
</g>
<g>
	<defs>
		<path id="SVGID_81_" d="M139.2,76c0,1.8,0.9,3.4,2.3,4.4c4.1,0,7.3-3.3,7.3-7.4c0-0.1,0-0.3,0-0.4c-1.8-2.4-5.2-2.8-7.6-0.9
			C140,72.8,139.2,74.3,139.2,76"/>
	</defs>
	<clipPath id="SVGID_82_">
		<use xlink:href="#SVGID_81_"  style="overflow:visible;"/>
	</clipPath>
	<g class="st44">
		<rect x="136.7" y="68.1" class="st41" width="14.7" height="14.9"/>
	</g>
</g>
<g>
	<defs>
		<path id="SVGID_83_" d="M134.1,73.1c0,0.5,0.1,1,0.2,1.5h2.2c0.8-4.5,5-7.5,9.5-6.7c0.3,0.1,0.7,0.1,1,0.2
			c-2.7-3-7.4-3.2-10.4-0.5C135,69,134.1,71,134.1,73.1"/>
	</defs>
	<clipPath id="SVGID_84_">
		<use xlink:href="#SVGID_83_"  style="overflow:visible;"/>
	</clipPath>
	<g class="st45">
		<rect x="131.6" y="63.2" class="st41" width="17.9" height="13.9"/>
	</g>
</g>
<g>
	<defs>
		<path id="SVGID_85_" d="M67.8,89.8c0,0.7,0.6,1.3,1.3,1.3s1.3-0.6,1.3-1.3s-0.6-1.3-1.3-1.3S67.8,89.1,67.8,89.8L67.8,89.8"/>
	</defs>
	<clipPath id="SVGID_86_">
		<use xlink:href="#SVGID_85_"  style="overflow:visible;"/>
	</clipPath>
	<g class="st46">
		<rect x="65.3" y="86" class="st1" width="7.6" height="7.6"/>
	</g>
</g>
<g>
	<defs>
		<path id="SVGID_87_" d="M57.9,86.9c0,2.8,1.4,5.4,3.8,6.9c-0.7-1.2-1-2.6-1-3.9c0-4.7,3.8-8.5,8.5-8.5c1.2,0,2.4,0.3,3.5,0.8
			c-2.7-3.6-7.8-4.4-11.4-1.7C59.1,81.9,57.9,84.3,57.9,86.9"/>
	</defs>
	<clipPath id="SVGID_88_">
		<use xlink:href="#SVGID_87_"  style="overflow:visible;"/>
	</clipPath>
	<g class="st47">
		<rect x="55.4" y="76.2" class="st1" width="19.7" height="20"/>
	</g>
</g>
<g>
	<defs>
		<path id="SVGID_89_" d="M63.5,89.8c0,2.2,1.3,4.3,3.4,5.2c1.4-0.1,2.7-0.6,3.8-1.4c-0.5,0.2-1,0.3-1.5,0.3c-2.3,0-4.1-1.8-4.1-4.1
			c0-2.3,1.8-4.1,4.1-4.1c2.3,0,4.1,1.8,4.1,4.1c0,0.4-0.1,0.8-0.2,1.2c0.7-1.2,1.1-2.5,1.1-3.9c-1.5-2.8-4.9-3.9-7.7-2.4
			C64.6,85.7,63.4,87.7,63.5,89.8"/>
	</defs>
	<clipPath id="SVGID_90_">
		<use xlink:href="#SVGID_89_"  style="overflow:visible;"/>
	</clipPath>
	<g class="st48">
		<rect x="60.9" y="81.6" class="st1" width="15.7" height="15.9"/>
	</g>
</g>
<g>
	<defs>
		<path id="SVGID_91_" d="M133.4,49.5c0,2,1.3,3.7,3.2,4.3c-0.1-0.4-0.2-0.9-0.2-1.3c0-2.5,2-4.6,4.5-4.6c0.4,0,0.7,0,1.1,0.1
			c-0.8-2.3-3.4-3.5-5.7-2.7C134.5,46,133.4,47.6,133.4,49.5"/>
	</defs>
	<clipPath id="SVGID_92_">
		<use xlink:href="#SVGID_91_"  style="overflow:visible;"/>
	</clipPath>
	<g class="st49">
		<rect x="130.9" y="42.6" class="st1" width="13.7" height="13.8"/>
	</g>
</g>
<g>
	<defs>
		<path id="SVGID_93_" d="M139.2,52.5c0,0.4,0.2,0.8,0.4,1.2c1.1-0.5,2-1.4,2.4-2.5c-0.8-0.6-1.9-0.5-2.5,0.3
			C139.3,51.7,139.2,52.1,139.2,52.5"/>
	</defs>
	<clipPath id="SVGID_94_">
		<use xlink:href="#SVGID_93_"  style="overflow:visible;"/>
	</clipPath>
	<g class="st50">
		<rect x="136.7" y="48.2" class="st1" width="7.9" height="7.9"/>
	</g>
</g>
<g>
	<defs>
		<path id="SVGID_95_" d="M141.3,14.9c0-2.8,2.3-5.1,5.1-5.1s5.1,2.3,5.1,5.1s-2.3,5.1-5.1,5.1S141.3,17.7,141.3,14.9
			C141.3,14.9,141.3,14.9,141.3,14.9 M139.3,14.9c0,2.9,1.7,5.4,4.4,6.5c5-0.3,8.9-4.4,8.9-9.4v-0.1c-1.6-3.5-5.8-5.1-9.3-3.4
			C140.9,9.6,139.3,12.1,139.3,14.9"/>
	</defs>
	<clipPath id="SVGID_96_">
		<use xlink:href="#SVGID_95_"  style="overflow:visible;"/>
	</clipPath>
	<g class="st51">
		<rect x="136.8" y="5.4" class="st1" width="18.4" height="18.5"/>
	</g>
</g>
<g>
	<defs>
		<path id="SVGID_97_" d="M144.1,14.9c0,1.3,1,2.3,2.3,2.3c1.3,0,2.3-1,2.3-2.3c0-1.3-1-2.3-2.3-2.3c0,0,0,0,0,0
			C145.1,12.6,144.1,13.6,144.1,14.9"/>
	</defs>
	<clipPath id="SVGID_98_">
		<use xlink:href="#SVGID_97_"  style="overflow:visible;"/>
	</clipPath>
	<g class="st52">
		<rect x="141.6" y="10.1" class="st1" width="9.6" height="9.5"/>
	</g>
</g>
<g>
	<defs>
		<path id="SVGID_99_" d="M133.8,12c0,3.1,1.5,6,4,7.7c-2.7-4.7-1-10.7,3.7-13.4c2.8-1.6,6.2-1.7,9.1-0.3c-3.3-4.1-9.2-4.7-13.3-1.4
			C135.1,6.4,133.8,9.1,133.8,12"/>
	</defs>
	<clipPath id="SVGID_100_">
		<use xlink:href="#SVGID_99_"  style="overflow:visible;"/>
	</clipPath>
	<g class="st53">
		<rect x="131.3" class="st1" width="21.8" height="22.2"/>
	</g>
</g>
<g>
	<defs>
		<path id="SVGID_101_" d="M108.1,116.8c0-1.2,1-2.2,2.2-2.2s2.2,1,2.2,2.2s-1,2.2-2.2,2.2C109.1,118.9,108.1,118,108.1,116.8
			C108.1,116.8,108.1,116.8,108.1,116.8 M115.3,116.8c0-1.2,1-2.2,2.2-2.2s2.2,1,2.2,2.2s-1,2.2-2.2,2.2S115.3,118,115.3,116.8
			L115.3,116.8 M113.9,113.3c-1.9-2-5.1-2.1-7.1-0.1s-2.1,5.1-0.1,7.1s5.1,2.1,7.1,0.1c0,0,0.1-0.1,0.1-0.1c1.9,2,5.1,2.1,7.1,0.1
			s2.1-5.1,0.1-7.1s-5.1-2.1-7.1-0.1C114,113.2,113.9,113.2,113.9,113.3"/>
	</defs>
	<clipPath id="SVGID_102_">
		<use xlink:href="#SVGID_101_"  style="overflow:visible;"/>
	</clipPath>
	<g class="st54">
		<rect x="102.8" y="109.3" class="st3" width="22.2" height="15"/>
	</g>
</g>
<g>
	<defs>
		<path id="SVGID_103_" d="M48.8,67.5v3.6c0,0.8,0.6,1.4,1.4,1.4h3.5c0.8,0,1.4-0.6,1.4-1.4c0,0,0,0,0,0c0-0.1,0-0.2,0-0.3
			c-0.1-0.7-0.7-1.1-1.4-1.1h-2.1v-2.1c-0.1-0.8-0.7-1.4-1.5-1.3C49.4,66.3,48.8,66.8,48.8,67.5"/>
	</defs>
	<clipPath id="SVGID_104_">
		<use xlink:href="#SVGID_103_"  style="overflow:visible;"/>
	</clipPath>
	<g class="st55">
		<rect x="46.3" y="63.6" class="st3" width="11.3" height="11.4"/>
	</g>
</g>
<g>
	<defs>
		<path id="SVGID_105_" d="M50.2,45c-0.8,0-1.4,0.6-1.4,1.4v3.5c0.1,0.8,0.7,1.4,1.5,1.3c0.7-0.1,1.2-0.6,1.3-1.3v-2.1h2.2
			c0.8,0,1.4-0.6,1.4-1.4c0-0.8-0.6-1.4-1.4-1.4L50.2,45z"/>
	</defs>
	<clipPath id="SVGID_106_">
		<use xlink:href="#SVGID_105_"  style="overflow:visible;"/>
	</clipPath>
	<g class="st56">
		<rect x="46.2" y="42.5" class="st3" width="11.4" height="11.3"/>
	</g>
</g>
<g>
	<defs>
		<path id="SVGID_107_" d="M35.3,133.8c-2.3-1.1-3.2-3.9-2.1-6.1c1.1-2.3,3.9-3.2,6.1-2.1c2.3,1.1,3.2,3.9,2.1,6.1
			c-0.8,1.6-2.4,2.6-4.1,2.6C36.6,134.2,35.9,134.1,35.3,133.8 M29.9,129.6c0,1.1,0.3,2.3,0.8,3.3c1.8,3.7,6.3,5.1,9.9,3.3
			s5.1-6.3,3.3-9.9c-1.8-3.7-6.3-5.1-9.9-3.3C31.5,124.3,29.9,126.8,29.9,129.6"/>
	</defs>
	<clipPath id="SVGID_108_">
		<use xlink:href="#SVGID_107_"  style="overflow:visible;"/>
	</clipPath>
	<g class="st57">
		<rect x="27.4" y="119.7" class="st3" width="19.8" height="19.8"/>
	</g>
</g>
<g>
	<defs>
		<path id="SVGID_109_" d="M139.6,53.6c-0.6-0.7-0.6-1.8,0.2-2.5s1.8-0.6,2.5,0.2c0.6,0.7,0.6,1.8-0.2,2.5c-0.3,0.3-0.7,0.4-1.2,0.4
			C140.4,54.2,140,54,139.6,53.6 M136.4,52.5c0,0.5,0.1,0.9,0.2,1.3c0.8,2.4,3.3,3.8,5.7,3c2.4-0.8,3.8-3.3,3-5.7
			c-0.5-1.5-1.7-2.7-3.3-3.1c-0.3-0.1-0.7-0.1-1.1-0.1C138.4,47.9,136.4,49.9,136.4,52.5C136.4,52.4,136.4,52.4,136.4,52.5"/>
	</defs>
	<clipPath id="SVGID_110_">
		<use xlink:href="#SVGID_109_"  style="overflow:visible;"/>
	</clipPath>
	<g class="st58">
		<rect x="133.9" y="45.4" class="st3" width="14.1" height="14.1"/>
	</g>
</g>
<g>
	<defs>
		<path id="SVGID_111_" d="M123.1,156.9c-3-1-4.6-4.2-3.6-7.2c1-3,4.2-4.6,7.2-3.6c3,1,4.6,4.2,3.6,7.2c-0.8,2.3-3,3.9-5.4,3.9
			C124.3,157.1,123.7,157,123.1,156.9 M116.4,151.5c0,4.7,3.8,8.5,8.5,8.5c4.7,0,8.5-3.8,8.5-8.5c0-4.7-3.8-8.5-8.5-8.5
			c-4.7,0-8.5,3.7-8.5,8.4C116.4,151.4,116.4,151.4,116.4,151.5"/>
	</defs>
	<clipPath id="SVGID_112_">
		<use xlink:href="#SVGID_111_"  style="overflow:visible;"/>
	</clipPath>
	<g class="st59">
		<rect x="113.9" y="140.5" class="st3" width="22" height="22"/>
	</g>
</g>
<g>
	<defs>
		<path id="SVGID_113_" d="M66.8,95c-2.9-1.3-4.2-4.6-2.9-7.5c1.3-2.9,4.6-4.2,7.5-2.9c2.9,1.3,4.2,4.6,2.9,7.5
			c-0.9,2.1-3,3.4-5.2,3.4C68.3,95.5,67.6,95.3,66.8,95 M60.6,89.8c0,1.4,0.3,2.7,1,3.9c2.2,4.2,7.3,5.8,11.5,3.6
			c2.3-1.2,4-3.5,4.4-6.1c0.1-0.5,0.1-1,0.1-1.4c0-4.7-3.8-8.5-8.5-8.5S60.7,85.1,60.6,89.8"/>
	</defs>
	<clipPath id="SVGID_114_">
		<use xlink:href="#SVGID_113_"  style="overflow:visible;"/>
	</clipPath>
	<g class="st60">
		<rect x="58.1" y="78.8" class="st3" width="22" height="22"/>
	</g>
</g>
<g>
	<defs>
		<path id="SVGID_115_" d="M67.8,89.8c0-0.7,0.6-1.3,1.3-1.3s1.3,0.6,1.3,1.3s-0.6,1.3-1.3,1.3S67.8,90.5,67.8,89.8L67.8,89.8
			 M65,89.8c0,2.3,1.9,4.1,4.2,4c1.8,0,3.3-1.2,3.8-2.8c0.1-0.4,0.2-0.8,0.2-1.2c0-2.3-1.8-4.1-4.1-4.1C66.9,85.7,65,87.5,65,89.8"
			/>
	</defs>
	<clipPath id="SVGID_116_">
		<use xlink:href="#SVGID_115_"  style="overflow:visible;"/>
	</clipPath>
	<g class="st61">
		<rect x="62.5" y="83.2" class="st3" width="13.2" height="13.2"/>
	</g>
</g>
<g>
	<defs>
		<path id="SVGID_117_" d="M144.1,14.9c0-1.3,1-2.3,2.3-2.3c1.3,0,2.3,1,2.3,2.3s-1,2.3-2.3,2.3C145.1,17.1,144.1,16.1,144.1,14.9
			C144.1,14.9,144.1,14.9,144.1,14.9 M141.3,14.9c0,2.8,2.3,5.1,5.1,5.1c2.8,0,5.1-2.3,5.1-5.1c0-2.8-2.3-5.1-5.1-5.1c0,0,0,0,0,0
			C143.6,9.8,141.3,12.1,141.3,14.9"/>
	</defs>
	<clipPath id="SVGID_118_">
		<use xlink:href="#SVGID_117_"  style="overflow:visible;"/>
	</clipPath>
	<g class="st62">
		<rect x="138.8" y="7.3" class="st3" width="15.2" height="15.2"/>
	</g>
</g>
<g>
	<defs>
		<path id="SVGID_119_" d="M158.8,54.3v1.9h-1.9c-0.8,0-1.4,0.6-1.4,1.4c0,0.8,0.6,1.4,1.4,1.4h1.9V61c0.1,0.8,0.7,1.4,1.5,1.3
			c0.7-0.1,1.2-0.6,1.3-1.3v-1.9h1.9c0.8,0,1.4-0.6,1.4-1.4c0-0.8-0.6-1.4-1.4-1.4h-1.9v-1.9c-0.1-0.8-0.7-1.4-1.5-1.3
			C159.4,53.1,158.8,53.7,158.8,54.3"/>
	</defs>
	<use xlink:href="#SVGID_119_"  style="overflow:visible;fill:#D40005;"/>
	<clipPath id="SVGID_120_">
		<use xlink:href="#SVGID_119_"  style="overflow:visible;"/>
	</clipPath>
	<g class="st63">
		<rect x="152.9" y="50.4" class="st64" width="14.5" height="14.5"/>
	</g>
</g>
<g>
	<defs>
		<path id="SVGID_121_" d="M97,12.1v3.1h-3.1c-0.8,0-1.4,0.6-1.4,1.4c0,0.8,0.6,1.4,1.4,1.4H97v3.1c0.1,0.8,0.7,1.4,1.5,1.3
			c0.7-0.1,1.2-0.6,1.3-1.3V18h3.1c0.8,0,1.4-0.6,1.4-1.4c0-0.8-0.6-1.4-1.4-1.4h-3.1v-3.1c-0.1-0.8-0.7-1.4-1.5-1.3
			C97.6,10.9,97,11.4,97,12.1"/>
	</defs>
	<use xlink:href="#SVGID_121_"  style="overflow:visible;fill:#D40005;"/>
	<clipPath id="SVGID_122_">
		<use xlink:href="#SVGID_121_"  style="overflow:visible;"/>
	</clipPath>
	<g class="st65">
		<rect x="90" y="8.2" class="st64" width="16.8" height="16.8"/>
	</g>
</g>
<g>
	<defs>
		<path id="SVGID_123_" d="M21,101.1v3.7h-3.7c-0.8,0-1.4,0.6-1.4,1.4s0.6,1.4,1.4,1.4H21v3.7c0.1,0.8,0.7,1.4,1.5,1.3
			c0.7-0.1,1.2-0.6,1.3-1.3v-3.7h3.6c0.8,0,1.4-0.6,1.4-1.4s-0.6-1.4-1.4-1.4l0,0h-3.7v-3.7c-0.1-0.8-0.7-1.4-1.5-1.3
			C21.6,99.9,21,100.4,21,101.1"/>
	</defs>
	<use xlink:href="#SVGID_123_"  style="overflow:visible;fill:#D40005;"/>
	<clipPath id="SVGID_124_">
		<use xlink:href="#SVGID_123_"  style="overflow:visible;"/>
	</clipPath>
	<g class="st66">
		<rect x="13.4" y="97.2" class="st64" width="17.9" height="17.9"/>
	</g>
</g>
<g>
	<defs>
		<path id="SVGID_125_" d="M146.2,137.5v2.4h-2.4c-0.8,0-1.4,0.6-1.4,1.4s0.6,1.4,1.4,1.4h2.4v2.4c0.1,0.8,0.7,1.4,1.5,1.3
			c0.7-0.1,1.2-0.6,1.3-1.3v-2.4h2.4c0.8,0,1.4-0.6,1.4-1.4s-0.6-1.4-1.4-1.4H149v-2.4c-0.1-0.8-0.7-1.4-1.5-1.3
			C146.8,136.3,146.2,136.8,146.2,137.5"/>
	</defs>
	<use xlink:href="#SVGID_125_"  style="overflow:visible;fill:#D40005;"/>
	<clipPath id="SVGID_126_">
		<use xlink:href="#SVGID_125_"  style="overflow:visible;"/>
	</clipPath>
	<g class="st67">
		<rect x="139.9" y="133.6" class="st64" width="15.4" height="15.4"/>
	</g>
</g>
<g>
	<defs>
		<path id="SVGID_127_" d="M97,136.7v1.5h-1.5c-0.8,0-1.4,0.6-1.4,1.4s0.6,1.4,1.4,1.4H97v1.5c0.1,0.8,0.7,1.4,1.5,1.3
			c0.7-0.1,1.2-0.6,1.3-1.3V141h1.5c0.8,0,1.4-0.6,1.4-1.4s-0.6-1.4-1.4-1.4h-1.5v-1.5c-0.1-0.8-0.7-1.4-1.5-1.3
			C97.6,135.4,97,136,97,136.7"/>
	</defs>
	<use xlink:href="#SVGID_127_"  style="overflow:visible;fill:#D40005;"/>
	<clipPath id="SVGID_128_">
		<use xlink:href="#SVGID_127_"  style="overflow:visible;"/>
	</clipPath>
	<g class="st68">
		<rect x="91.6" y="132.8" class="st64" width="13.7" height="13.7"/>
	</g>
</g>
<g>
	<defs>
		<path id="SVGID_129_" d="M35.9,83.5V85h-1.5c-0.8,0-1.4,0.6-1.4,1.4s0.6,1.4,1.4,1.4h1.5v1.5c0.1,0.8,0.7,1.4,1.5,1.3
			c0.7-0.1,1.2-0.6,1.3-1.3v-1.5h1.5c0.8,0,1.4-0.6,1.4-1.4S41,85,40.2,85h-1.5v-1.5c-0.1-0.8-0.7-1.4-1.5-1.3
			C36.5,82.3,35.9,82.8,35.9,83.5"/>
	</defs>
	<use xlink:href="#SVGID_129_"  style="overflow:visible;fill:#D40005;"/>
	<clipPath id="SVGID_130_">
		<use xlink:href="#SVGID_129_"  style="overflow:visible;"/>
	</clipPath>
	<g class="st69">
		<rect x="30.4" y="79.6" class="st64" width="13.7" height="13.7"/>
	</g>
</g>
<g>
	<defs>
		<path id="SVGID_131_" d="M66.3,20.4v1.5h-1.5c-0.8,0-1.4,0.6-1.4,1.4c0,0.8,0.6,1.4,1.4,1.4h1.5v1.5c0.1,0.8,0.7,1.4,1.5,1.3
			c0.7-0.1,1.2-0.6,1.3-1.3v-1.5h1.5c0.8,0,1.4-0.6,1.4-1.4c0-0.8-0.6-1.4-1.4-1.4h-1.5v-1.5c-0.1-0.8-0.7-1.4-1.5-1.3
			C67,19.1,66.4,19.7,66.3,20.4"/>
	</defs>
	<use xlink:href="#SVGID_131_"  style="overflow:visible;fill:#D40005;"/>
	<clipPath id="SVGID_132_">
		<use xlink:href="#SVGID_131_"  style="overflow:visible;"/>
	</clipPath>
	<g class="st70">
		<rect x="60.9" y="16.5" class="st64" width="13.7" height="13.7"/>
	</g>
</g>
<g>
	<defs>
		<path id="SVGID_133_" d="M79.3,166.2c-1.2-2-1.7-4.3-1.4-6.6c0,0,0-0.1,0-0.1c-0.1-5.4-2.6-10.5-6.7-13.9c1-0.8,1.8-1.5,2.5-2.1
			c1.5,3.3,3.9,6.1,7,8l0.6,0.4c0.4,0.3,1,0.3,1.5,0c1.5-0.9,3.2-1.5,5-1.6h0.7c5.9,0,10.7,4.8,10.7,10.6c0,5.9-4.8,10.7-10.6,10.7
			C84.7,171.5,81.2,169.5,79.3,166.2 M70.3,114.9c0-2.6,1.8-4.9,4.3-5.5l-4.3,10.8V114.9z M102.5,123.2v-13.8h43.6v13.8
			c0,0.4-0.3,0.7-0.7,0.7h-42.2C102.9,123.9,102.6,123.6,102.5,123.2 M102.6,98.8c0-0.4,0.3-0.7,0.6-0.7c0,0,0,0,0,0h42.3
			c0.4,0,0.7,0.3,0.7,0.7v4.2h-43.6L102.6,98.8z M109.7,91.9c0-0.4,0.3-0.7,0.7-0.7h42.3c0.4,0,0.7,0.3,0.7,0.7v24.4l0,0
			c0,0.4-0.3,0.7-0.7,0.7H149v-9l0,0v-9.1c0-0.3,0-0.5-0.1-0.8c-0.4-1.6-1.8-2.7-3.4-2.7h-35.8L109.7,91.9z M56.5,151.8
			c0.5-0.3,1-0.6,1.4-0.9c3-2,5.3-4.9,6.5-8.3l0.5-1.2l0,0l0.4-1.1l17-42.6l3-7.6c0.8,2.6,1.1,5.4,0.7,8.1
			c-0.5,1.7-9.4,32.1-10.6,36.7c-0.6,2.3-1,3.4-1.9,4.6c-0.2,0.3-0.4,0.5-0.7,0.8c-1.2,1.2-2.5,2.3-3.9,3.4l-1.7,1.3
			c-4.5,3.4-7.3,8.8-7.4,14.4c0,0,0,0.1,0,0.1c0,0.4,0.1,0.8,0.1,1.2c0,5.9-4.8,10.7-10.7,10.7c-3.8,0-7.3-2-9.2-5.3
			c-1.7-2.9-1.9-6.5-0.6-9.6c1.6-3.7,5.1-6.1,9.1-6.4h0.7c2,0,4,0.6,5.7,1.6c0.2,0.1,0.5,0.2,0.8,0.2C56,152,56.2,151.9,56.5,151.8
			 M62.4,134.9c-1.3-4.6-10.1-35-10.6-36.7c-0.4-2.7-0.1-5.4,0.7-7.9v-0.1l12.7,32l2.2,5.5l-4.1,10.3
			C62.9,136.9,62.6,135.9,62.4,134.9 M141.5,80.4c-2.4-1.7-3-5.1-1.3-7.5c1.7-2.4,5.1-3,7.5-1.3s3,5.1,1.3,7.5
			c-1,1.4-2.7,2.3-4.5,2.3C143.4,81.4,142.4,81,141.5,80.4 M28.8,58.6c0-8.4,6.6-15.4,15-15.9v31.8C35.4,74,28.9,67.1,28.8,58.6
			 M46.6,70.8V42.7H120v31.8H46.6V70.8z M53.1,35.4h73.4v6l0,0v25.9h-3.7V41.3c0-0.8-0.6-1.4-1.4-1.4c0,0,0,0,0,0H53.1V35.4z
			 M143.8,21.4c-3.6-1.4-5.3-5.5-3.9-9.1s5.5-5.3,9.1-3.9s5.3,5.5,3.9,9.1c-1.1,2.7-3.6,4.4-6.5,4.4
			C145.5,21.9,144.6,21.7,143.8,21.4 M136.5,14.9c0,4.9,3.6,9.1,8.5,9.7v3.6c0,6.4-5.2,11.7-11.7,11.7c0,0,0,0,0,0h-3.9v-6
			c0-0.7-0.6-1.3-1.4-1.4H51.7c-0.4,0-0.7,0.2-1,0.5c-0.3,0.3-0.4,0.6-0.4,1v6h-5.6C34.4,40,26,48.4,26,58.7s8.4,18.7,18.7,18.7
			h91.7c0.1,0.5,0.2,1,0.4,1.4c1.6,4.3,6.3,6.4,10.6,4.8c2.7-1,4.7-3.4,5.2-6.3h0.2c8.1,0,14.6,6.6,14.6,14.6
			c0,6.8-4.7,12.6-11.3,14.2V91.9c0-1.9-1.6-3.5-3.5-3.5h-42.3c-1.9,0-3.5,1.6-3.5,3.5v3.4h-3.7c-1.9,0-3.5,1.6-3.5,3.5v0v7.8H86.6
			l2.2-7.6c0,0,0-0.1,0-0.1c0.7-4.5-0.1-9.1-2.2-13.1c-0.4-0.7-1.2-0.9-1.9-0.6c-0.3,0.2-0.5,0.4-0.6,0.7L83.6,87l-7.8,19.5
			c-4.6,0.1-8.3,3.8-8.3,8.4v5.4l-0.8-2L53.8,85.9c-0.3-0.7-1.1-1.1-1.8-0.8c-0.3,0.1-0.6,0.4-0.7,0.6c-0.1,0.2-0.2,0.5-0.4,0.7
			c-1.9,3.8-2.6,8.1-1.9,12.3c0,0,0,0.1,0,0.1c0.1,0.3,8.8,30.3,10.5,36.3l0.1,0.4c0,0.1,0,0.1,0,0.2c0.4,1.9,1.2,3.7,2.4,5.4
			l-0.2,0.5v0.1c-1.2,3-3.3,5.5-6,7.2c-6.6-3.5-14.7-1.1-18.3,5.5c-1.1,2-1.6,4.1-1.6,6.4c0,0.7,0,1.3,0.2,2
			c1.1,7.4,7.9,12.5,15.3,11.4c6.6-1,11.6-6.7,11.5-13.4c0-0.5,0-1-0.1-1.5c0-1.4,0.3-2.8,0.7-4.2c0.8-2.5,2.2-4.8,4.1-6.6v39.3
			l-2.7-2.6c-0.6-0.6-1.4-0.6-2,0s-0.6,1.4,0,2l5.1,5l0,0l0.1,0.1l0,0l0.1,0.1l0,0h0.1l0,0h0.1h0.1h0.1h0.1h0.1H69h0.1h0.1h0.1h0.1
			h0.1h0.1h0.1l0,0h0.1l0,0l0.1-0.1l0,0l0.1-0.1l0,0l0,0l5-5c0.6-0.6,0.6-1.4,0-2s-1.4-0.6-2,0l-2.6,2.6v-39.3
			c1.9,1.8,3.3,4.1,4.1,6.6c0.4,1.4,0.7,2.8,0.7,4.2c-0.1,0.5-0.1,1-0.1,1.5c0,0.7,0,1.3,0.2,2c1,7.4,7.8,12.5,15.2,11.4
			s12.5-7.8,11.4-15.2c-1-7.4-7.8-12.5-15.2-11.4c-1.5,0.2-3,0.7-4.3,1.4c-1.7-1.1-3.1-2.5-4.3-4.1c-0.7-1-1.3-2-1.7-3.1v-0.1
			l-0.2-0.5c1.2-1.6,1.6-3.1,2.3-5.5c0.8-2.9,4.7-16.5,7.6-26.3h14v13.8c0,1.9,1.6,3.5,3.5,3.5h42.3c1.9,0,3.5-1.6,3.5-3.5v-3.5h3.7
			c1.9,0,3.5-1.6,3.5-3.5v-7.2c9.4-1.8,15.7-10.9,13.9-20.3c-1.5-8.2-8.8-14.2-17.1-14.2h-0.2c-0.8-4.5-5-7.5-9.5-6.7
			c-3.4,0.6-6.1,3.3-6.7,6.7h-13.7V70h5.1c0.8,0,1.4-0.6,1.4-1.4V42.7h3.9c8,0,14.5-6.5,14.5-14.5v-3.6c5.4-0.8,9.1-5.8,8.3-11.1
			c-0.8-5.4-5.8-9.1-11.1-8.3C140.1,5.9,136.6,10,136.5,14.9"/>
	</defs>
	<clipPath id="SVGID_134_">
		<use xlink:href="#SVGID_133_"  style="overflow:visible;"/>
	</clipPath>
	<g class="st71">
		<rect x="23.5" y="2.5" class="st3" width="149.3" height="192.6"/>
	</g>
</g>
<g>
	<defs>
		<path id="SVGID_135_" d="M83.9,161.4c0-0.2-0.1-0.4-0.1-0.6c0-0.9,0.3-1.8,0.8-2.6l0.2-0.2c0.8-1.1,2.1-1.8,3.5-1.9h0.3
			c2.6,0,4.7,2.1,4.7,4.7c0,2.6-2.1,4.7-4.7,4.7C86.2,165.5,84.2,163.8,83.9,161.4 M88.1,153.3c-0.2,0-0.5,0-0.7,0.1
			c-2.1,0.3-3.9,1.5-5.1,3.3c-0.7,1.1-1.1,2.3-1.2,3.6c0,0.2,0,0.4,0,0.6c0.2,4.1,3.7,7.3,7.9,7.1c3.8-0.2,6.9-3.3,7.1-7.1
			c0-0.3,0-0.6-0.1-0.9c-0.5-3.8-3.7-6.6-7.4-6.6L88.1,153.3"/>
	</defs>
	<clipPath id="SVGID_136_">
		<use xlink:href="#SVGID_135_"  style="overflow:visible;"/>
	</clipPath>
	<g class="st72">
		<rect x="78.5" y="150.8" class="st3" width="20" height="20"/>
	</g>
</g>
<g>
	<defs>
		<path id="SVGID_137_" d="M44.7,161.4c0-0.2,0-0.4,0-0.6c0-2.6,2.1-4.7,4.7-4.7h0.3c1.5,0.1,2.8,0.9,3.7,2.1
			c0.5,0.8,0.8,1.7,0.8,2.6c0,2.6-2.1,4.7-4.7,4.7C47,165.4,45.1,163.7,44.7,161.4 M41.9,160.2c0,0.2,0,0.4,0,0.6
			c0.2,4.1,3.7,7.3,7.9,7.1c3.8-0.2,6.9-3.3,7.1-7.1c0-0.3,0-0.6-0.1-0.9c-0.1-1.1-0.5-2.2-1.2-3.2c-1-1.5-2.5-2.6-4.2-3.1
			c-0.5-0.2-1.1-0.2-1.6-0.3h-0.4C45.5,153.3,42.2,156.3,41.9,160.2"/>
	</defs>
	<clipPath id="SVGID_138_">
		<use xlink:href="#SVGID_137_"  style="overflow:visible;"/>
	</clipPath>
	<g class="st73">
		<rect x="39.3" y="150.8" class="st3" width="20" height="20"/>
	</g>
</g>
<g>
	<defs>
		<path id="SVGID_139_" d="M69.2,138.7c0-0.3,0.2-0.5,0.5-0.5h0c0.2,0,0.5,0.2,0.5,0.4c0,0,0,0,0,0c0,0.3-0.3,0.4-0.5,0.4
			C69.4,139.1,69.2,138.9,69.2,138.7 M67.3,138.7c-0.1,1.3,1,2.4,2.3,2.4c1.3,0.1,2.4-1,2.4-2.3c0-0.1,0-0.1,0-0.2
			c0-0.8-0.4-1.5-1-1.9c-0.4-0.3-0.9-0.4-1.4-0.4C68.3,136.3,67.3,137.4,67.3,138.7"/>
	</defs>
	<clipPath id="SVGID_140_">
		<use xlink:href="#SVGID_139_"  style="overflow:visible;"/>
	</clipPath>
	<g class="st74">
		<rect x="64.8" y="133.8" class="st3" width="9.7" height="9.7"/>
	</g>
</g>
<g>
	<defs>
		<path id="SVGID_141_" d="M81.5,56.7c-1,0-1.9,0.6-1.9,1.4s0.8,1.4,1.9,1.4h5.4c1,0,1.9-0.6,1.9-1.4s-0.8-1.4-1.9-1.4H81.5z"/>
	</defs>
	<clipPath id="SVGID_142_">
		<use xlink:href="#SVGID_141_"  style="overflow:visible;"/>
	</clipPath>
	<g class="st75">
		<rect x="77.1" y="54.2" class="st3" width="14.2" height="7.9"/>
	</g>
</g>
<g>
	<defs>
		<path id="SVGID_143_" d="M76.1,61.8c-0.8-0.2-1.6,0.2-1.8,1s0.2,1.6,1,1.8c0.3,0.1,0.5,0.1,0.8,0h10.8c0.9,0.1,1.7-0.5,1.9-1.4
			c0-0.8-0.8-1.4-1.9-1.4L76.1,61.8z"/>
	</defs>
	<clipPath id="SVGID_144_">
		<use xlink:href="#SVGID_143_"  style="overflow:visible;"/>
	</clipPath>
	<g class="st76">
		<rect x="71.7" y="59.3" class="st3" width="19.6" height="7.9"/>
	</g>
</g>
</svg>
