<?xml version="1.0" encoding="utf-8"?>
<!-- Generator: Adobe Illustrator 21.0.0, SVG Export Plug-In . SVG Version: 6.00 Build 0)  -->
<svg version="1.1" id="Layer_1" xmlns="http://www.w3.org/2000/svg" xmlns:xlink="http://www.w3.org/1999/xlink" x="0px" y="0px"
	 viewBox="0 0 320 80" style="enable-background:new 0 0 320 80;" xml:space="preserve">
<style type="text/css">
	.st0{clip-path:url(#SVGID_2_);}
	.st1{clip-path:url(#SVGID_4_);fill:#DAEEEB;}
	.st2{fill:none;stroke:#414042;stroke-width:3;stroke-linecap:round;stroke-linejoin:round;stroke-miterlimit:10;}
	.st3{clip-path:url(#SVGID_6_);}
	.st4{clip-path:url(#SVGID_8_);fill:#414042;}
	.st5{clip-path:url(#SVGID_10_);}
	.st6{clip-path:url(#SVGID_12_);enable-background:new    ;}
	.st7{clip-path:url(#SVGID_14_);}
	.st8{clip-path:url(#SVGID_16_);}
	.st9{clip-path:url(#SVGID_18_);fill:#414042;}
	.st10{clip-path:url(#SVGID_20_);}
	.st11{clip-path:url(#SVGID_22_);fill:#414042;}
	.st12{clip-path:url(#SVGID_24_);}
	.st13{clip-path:url(#SVGID_26_);fill:#414042;}
	.st14{clip-path:url(#SVGID_28_);}
	.st15{clip-path:url(#SVGID_30_);fill:#414042;}
	.st16{clip-path:url(#SVGID_32_);}
	.st17{clip-path:url(#SVGID_34_);fill:#414042;}
	.st18{clip-path:url(#SVGID_36_);}
	.st19{clip-path:url(#SVGID_38_);fill:#414042;}
	.st20{clip-path:url(#SVGID_40_);}
	.st21{clip-path:url(#SVGID_42_);fill:#414042;}
	.st22{clip-path:url(#SVGID_44_);}
	.st23{clip-path:url(#SVGID_46_);fill:#414042;}
	.st24{clip-path:url(#SVGID_48_);}
	.st25{clip-path:url(#SVGID_50_);fill:#414042;}
	.st26{clip-path:url(#SVGID_52_);}
	.st27{clip-path:url(#SVGID_54_);fill:#414042;}
	.st28{clip-path:url(#SVGID_56_);}
	.st29{clip-path:url(#SVGID_58_);fill:#414042;}
	.st30{clip-path:url(#SVGID_60_);}
	.st31{clip-path:url(#SVGID_62_);fill:#414042;}
	.st32{clip-path:url(#SVGID_64_);}
	.st33{clip-path:url(#SVGID_66_);fill:#414042;}
	.st34{clip-path:url(#SVGID_68_);}
	.st35{clip-path:url(#SVGID_70_);fill:#414042;}
	.st36{clip-path:url(#SVGID_72_);}
	.st37{clip-path:url(#SVGID_74_);fill:#414042;}
	.st38{clip-path:url(#SVGID_76_);}
	.st39{clip-path:url(#SVGID_78_);fill:#5D9288;}
</style>
<g>
	<g>
		<defs>
			<path id="SVGID_1_" d="M125.7,52.5H8.2V10.9c0-1.9,1.5-3.4,3.4-3.4h114.1V52.5z"/>
		</defs>
		<clipPath id="SVGID_2_">
			<use xlink:href="#SVGID_1_"  style="overflow:visible;"/>
		</clipPath>
		<g class="st0">
			<defs>
				<rect id="SVGID_3_" x="-131.8" y="-5.5" width="1440" height="3399"/>
			</defs>
			<clipPath id="SVGID_4_">
				<use xlink:href="#SVGID_3_"  style="overflow:visible;"/>
			</clipPath>
			<rect x="3.2" y="2.5" class="st1" width="127.5" height="55"/>
		</g>
	</g>
	<polygon class="st2" points="15.3,14.1 130.4,14.1 130.4,56.9 49.7,56.9 34.8,70.6 34.8,56 15.3,56 	"/>
	<g>
		<defs>
			<path id="SVGID_5_" d="M32.5,42.5c0.7,0,1.3-0.1,1.8-0.2c0.5-0.1,0.8-0.3,1.1-0.5c0.3-0.2,0.5-0.4,0.6-0.7
				c0.1-0.3,0.2-0.6,0.2-0.9c0-0.7-0.3-1.3-1-1.8c-0.7-0.5-1.9-1-3.5-1.6c-0.7-0.3-1.5-0.6-2.2-0.9c-0.7-0.3-1.4-0.8-2-1.3
				c-0.6-0.5-1.1-1.1-1.4-1.8c-0.4-0.7-0.5-1.6-0.5-2.6c0-1,0.2-2,0.6-2.8c0.4-0.8,0.9-1.5,1.6-2.1c0.7-0.6,1.6-1,2.6-1.3
				c1-0.3,2.1-0.5,3.4-0.5c1.5,0,2.8,0.2,3.9,0.5c1.1,0.3,2,0.7,2.7,1.1l-1.4,4c-0.6-0.3-1.3-0.6-2.1-0.9c-0.8-0.2-1.7-0.4-2.8-0.4
				c-1.2,0-2.1,0.2-2.6,0.5c-0.5,0.3-0.8,0.8-0.8,1.5c0,0.4,0.1,0.8,0.3,1c0.2,0.3,0.5,0.5,0.8,0.8c0.4,0.2,0.8,0.4,1.2,0.6
				c0.5,0.2,1,0.4,1.5,0.6c1.2,0.4,2.2,0.9,3,1.3c0.9,0.4,1.6,0.9,2.1,1.5c0.6,0.6,1,1.2,1.3,2c0.3,0.8,0.4,1.7,0.4,2.7
				c0,2.1-0.7,3.7-2.2,4.9c-1.5,1.2-3.7,1.7-6.6,1.7c-1,0-1.9-0.1-2.7-0.2c-0.8-0.1-1.5-0.3-2.1-0.4c-0.6-0.2-1.1-0.4-1.6-0.5
				c-0.4-0.2-0.8-0.4-1.1-0.5l1.4-4c0.7,0.4,1.5,0.7,2.5,1C29.9,42.3,31,42.5,32.5,42.5"/>
		</defs>
		<clipPath id="SVGID_6_">
			<use xlink:href="#SVGID_5_"  style="overflow:visible;"/>
		</clipPath>
		<g class="st3">
			<defs>
				<rect id="SVGID_7_" x="-131.8" y="-5.5" width="1440" height="3399"/>
			</defs>
			<clipPath id="SVGID_8_">
				<use xlink:href="#SVGID_7_"  style="overflow:visible;"/>
			</clipPath>
			<rect x="20" y="18.4" class="st4" width="26.2" height="33.3"/>
		</g>
	</g>
	<g>
		<defs>
			<rect id="SVGID_9_" x="8.2" y="7.5" width="303.5" height="65"/>
		</defs>
		<clipPath id="SVGID_10_">
			<use xlink:href="#SVGID_9_"  style="overflow:visible;"/>
		</clipPath>
		<g class="st5">
			<defs>
				<rect id="SVGID_11_" x="-131.8" y="-5.5" width="1440" height="3399"/>
			</defs>
			<clipPath id="SVGID_12_">
				<use xlink:href="#SVGID_11_"  style="overflow:visible;"/>
			</clipPath>
			<g class="st6">
				<g>
					<defs>
						<rect id="SVGID_13_" x="42.2" y="20.5" width="270" height="32"/>
					</defs>
					<clipPath id="SVGID_14_">
						<use xlink:href="#SVGID_13_"  style="overflow:visible;"/>
					</clipPath>
					<g class="st7">
						<defs>
							<path id="SVGID_15_" d="M48.8,24.4c0,0.9-0.3,1.6-0.9,2.1c-0.6,0.5-1.2,0.8-2,0.8c-0.8,0-1.4-0.3-2-0.8
								c-0.6-0.5-0.9-1.2-0.9-2.1c0-0.9,0.3-1.6,0.9-2.1c0.6-0.5,1.2-0.8,2-0.8c0.8,0,1.4,0.3,2,0.8C48.5,22.9,48.8,23.6,48.8,24.4z
								 M43.6,46.3h4.8v-17h-4.8V46.3z"/>
						</defs>
						<clipPath id="SVGID_16_">
							<use xlink:href="#SVGID_15_"  style="overflow:visible;"/>
						</clipPath>
						<g class="st8">
							<defs>
								<rect id="SVGID_17_" x="8.2" y="7.5" width="304" height="65"/>
							</defs>
							<clipPath id="SVGID_18_">
								<use xlink:href="#SVGID_17_"  style="overflow:visible;"/>
							</clipPath>
							<rect x="38.1" y="16.6" class="st9" width="15.7" height="34.7"/>
						</g>
					</g>
					<g class="st7">
						<defs>
							<path id="SVGID_19_" d="M61,37.3c0-1.6-0.2-2.6-0.6-3.3c-0.4-0.6-1.1-1-2-1c-0.3,0-0.6,0-0.9,0c-0.3,0-0.6,0.1-0.9,0.1v13.1
								h-4.8V29.9c0.4-0.1,0.9-0.2,1.4-0.3c0.5-0.1,1.1-0.2,1.7-0.3c0.6-0.1,1.2-0.2,1.9-0.2C57.4,29,58,29,58.6,29
								c1.2,0,2.2,0.2,3,0.5c0.8,0.3,1.4,0.7,1.9,1.1c0.7-0.5,1.5-0.9,2.4-1.2c0.9-0.3,1.7-0.4,2.5-0.4c1.4,0,2.5,0.2,3.3,0.6
								c0.9,0.4,1.6,0.9,2.1,1.6c0.5,0.7,0.9,1.5,1.1,2.5c0.2,0.9,0.3,2,0.3,3.2v9.6h-4.8v-9c0-1.6-0.2-2.6-0.6-3.3
								c-0.4-0.6-1.1-1-2-1c-0.3,0-0.6,0.1-1.1,0.2c-0.5,0.1-0.8,0.3-1.1,0.5c0.1,0.5,0.2,1,0.3,1.6c0,0.5,0.1,1.1,0.1,1.8v9.3H61
								V37.3z"/>
						</defs>
						<clipPath id="SVGID_20_">
							<use xlink:href="#SVGID_19_"  style="overflow:visible;"/>
						</clipPath>
						<g class="st10">
							<defs>
								<rect id="SVGID_21_" x="8.2" y="7.5" width="304" height="65"/>
							</defs>
							<clipPath id="SVGID_22_">
								<use xlink:href="#SVGID_21_"  style="overflow:visible;"/>
							</clipPath>
							<rect x="46.7" y="24" class="st11" width="33.4" height="27.4"/>
						</g>
					</g>
					<g class="st7">
						<defs>
							<path id="SVGID_23_" d="M93.9,37.8c0,1.3-0.2,2.5-0.5,3.6c-0.3,1.1-0.8,2-1.4,2.8c-0.6,0.8-1.4,1.4-2.3,1.8
								c-0.9,0.4-2,0.6-3.2,0.6c-0.7,0-1.3-0.1-1.9-0.2c-0.6-0.1-1.1-0.3-1.7-0.5v6.4h-4.8V29.9c0.4-0.1,0.9-0.3,1.5-0.4
								c0.6-0.1,1.1-0.2,1.8-0.3c0.6-0.1,1.2-0.2,1.9-0.2c0.6-0.1,1.2-0.1,1.8-0.1c1.4,0,2.6,0.2,3.7,0.6c1.1,0.4,2,1,2.8,1.8
								c0.7,0.8,1.3,1.7,1.7,2.8C93.7,35.3,93.9,36.5,93.9,37.8 M89,38c0-1.5-0.3-2.7-1-3.6c-0.7-0.9-1.7-1.3-3-1.3
								c-0.4,0-0.8,0-1.2,0c-0.4,0-0.7,0.1-0.9,0.1v8.7c0.3,0.2,0.7,0.4,1.2,0.5c0.5,0.1,1,0.2,1.5,0.2C87.9,42.6,89,41,89,38"/>
						</defs>
						<clipPath id="SVGID_24_">
							<use xlink:href="#SVGID_23_"  style="overflow:visible;"/>
						</clipPath>
						<g class="st12">
							<defs>
								<rect id="SVGID_25_" x="8.2" y="7.5" width="304" height="65"/>
							</defs>
							<clipPath id="SVGID_26_">
								<use xlink:href="#SVGID_25_"  style="overflow:visible;"/>
							</clipPath>
							<rect x="73.2" y="24" class="st13" width="25.7" height="33.3"/>
						</g>
					</g>
					<g class="st7">
						<defs>
							<path id="SVGID_27_" d="M103.5,46.7c-1.4,0-2.5-0.2-3.4-0.5c-0.9-0.3-1.6-0.7-2.1-1.2c-0.5-0.5-0.8-1.1-1-1.8
								c-0.2-0.7-0.3-1.5-0.3-2.4V22l4.8-0.8v18.5c0,0.4,0,0.8,0.1,1.2c0.1,0.3,0.2,0.6,0.4,0.9c0.2,0.2,0.4,0.4,0.8,0.6
								c0.3,0.2,0.8,0.2,1.4,0.3L103.5,46.7z"/>
						</defs>
						<clipPath id="SVGID_28_">
							<use xlink:href="#SVGID_27_"  style="overflow:visible;"/>
						</clipPath>
						<g class="st14">
							<defs>
								<rect id="SVGID_29_" x="8.2" y="7.5" width="304" height="65"/>
							</defs>
							<clipPath id="SVGID_30_">
								<use xlink:href="#SVGID_29_"  style="overflow:visible;"/>
							</clipPath>
							<rect x="91.7" y="16.3" class="st15" width="17.4" height="35.4"/>
						</g>
					</g>
					<g class="st7">
						<defs>
							<path id="SVGID_31_" d="M105.9,38c0-1.5,0.2-2.8,0.7-4c0.5-1.1,1.1-2.1,1.8-2.8c0.8-0.8,1.6-1.3,2.6-1.7c1-0.4,2-0.6,3-0.6
								c2.4,0,4.3,0.7,5.7,2.2c1.4,1.5,2.1,3.6,2.1,6.5c0,0.3,0,0.6,0,0.9c0,0.3,0,0.6-0.1,0.9h-10.9c0.1,1,0.6,1.8,1.4,2.4
								c0.8,0.6,1.9,0.9,3.3,0.9c0.9,0,1.7-0.1,2.6-0.2c0.8-0.2,1.5-0.4,2.1-0.6l0.6,3.9c-0.3,0.1-0.6,0.3-1,0.4
								c-0.4,0.1-0.9,0.2-1.4,0.3c-0.5,0.1-1.1,0.2-1.7,0.2c-0.6,0.1-1.2,0.1-1.8,0.1c-1.5,0-2.8-0.2-4-0.7
								c-1.1-0.5-2.1-1.1-2.8-1.9c-0.7-0.8-1.3-1.7-1.6-2.8C106.1,40.4,105.9,39.2,105.9,38z M117.1,36.1c0-0.4-0.1-0.8-0.2-1.2
								c-0.1-0.4-0.3-0.7-0.5-1c-0.2-0.3-0.6-0.5-0.9-0.7c-0.4-0.2-0.8-0.3-1.4-0.3c-0.5,0-1,0.1-1.4,0.3c-0.4,0.2-0.7,0.4-1,0.7
								c-0.3,0.3-0.5,0.7-0.6,1c-0.1,0.4-0.2,0.8-0.3,1.2H117.1z"/>
						</defs>
						<clipPath id="SVGID_32_">
							<use xlink:href="#SVGID_31_"  style="overflow:visible;"/>
						</clipPath>
						<g class="st16">
							<defs>
								<rect id="SVGID_33_" x="8.2" y="7.5" width="304" height="65"/>
							</defs>
							<clipPath id="SVGID_34_">
								<use xlink:href="#SVGID_33_"  style="overflow:visible;"/>
							</clipPath>
							<rect x="100.9" y="23.9" class="st17" width="25.9" height="27.9"/>
						</g>
					</g>
					<g class="st7">
						<defs>
							<path id="SVGID_35_" d="M158.1,35.1c0,2-0.3,3.7-0.9,5.1c-0.6,1.5-1.5,2.7-2.6,3.7c-1.1,1-2.4,1.7-4,2.2
								c-1.5,0.5-3.2,0.7-5.1,0.7c-0.9,0-1.9-0.1-2.9-0.1c-1-0.1-1.9-0.3-2.7-0.5V24c0.8-0.2,1.7-0.4,2.7-0.5c1-0.1,2-0.1,2.9-0.1
								c1.9,0,3.6,0.2,5.1,0.7c1.5,0.5,2.9,1.2,4,2.2c1.1,1,2,2.2,2.6,3.7C157.8,31.4,158.1,33.1,158.1,35.1z M142.1,44.6
								c0.1,0,0.5,0.1,1,0.1c0.5,0.1,1.4,0.1,2.6,0.1c1.7,0,3.1-0.2,4.3-0.7c1.2-0.5,2.3-1.1,3.1-1.9c0.8-0.8,1.5-1.9,1.9-3.1
								c0.4-1.2,0.6-2.6,0.6-4.1c0-1.5-0.2-2.9-0.6-4.1c-0.4-1.2-1-2.2-1.9-3.1c-0.8-0.8-1.9-1.5-3.1-1.9c-1.2-0.5-2.7-0.7-4.3-0.7
								c-1.2,0-2.1,0-2.6,0.1c-0.5,0.1-0.9,0.1-1,0.1V44.6z"/>
						</defs>
						<clipPath id="SVGID_36_">
							<use xlink:href="#SVGID_35_"  style="overflow:visible;"/>
						</clipPath>
						<g class="st18">
							<defs>
								<rect id="SVGID_37_" x="8.2" y="7.5" width="304" height="65"/>
							</defs>
							<clipPath id="SVGID_38_">
								<use xlink:href="#SVGID_37_"  style="overflow:visible;"/>
							</clipPath>
							<rect x="134.9" y="18.4" class="st19" width="28.2" height="33.4"/>
						</g>
					</g>
					<g class="st7">
						<defs>
							<path id="SVGID_39_" d="M160.7,38c0-1.5,0.2-2.8,0.6-3.9c0.4-1.1,1-2.1,1.7-2.8c0.7-0.8,1.5-1.3,2.4-1.7
								c0.9-0.4,1.8-0.5,2.8-0.5c2.1,0,3.8,0.7,5,2.1c1.2,1.4,1.9,3.5,1.9,6.3c0,0.2,0,0.4,0,0.5c0,0.2,0,0.3,0,0.5h-12
								c0.1,2.1,0.6,3.7,1.6,4.8c1,1.1,2.5,1.7,4.6,1.7c1.2,0,2.1-0.1,2.8-0.3c0.7-0.2,1.2-0.4,1.5-0.6l0.4,1.9
								c-0.3,0.2-0.9,0.4-1.7,0.6c-0.8,0.2-1.8,0.4-3,0.4c-1.5,0-2.8-0.2-3.8-0.7c-1.1-0.4-1.9-1.1-2.6-1.9
								c-0.7-0.8-1.2-1.7-1.5-2.8C160.9,40.5,160.7,39.3,160.7,38z M172.8,36.6c0-1.8-0.5-3.2-1.3-4.2c-0.8-1-1.9-1.5-3.4-1.5
								c-0.8,0-1.5,0.2-2.1,0.5c-0.6,0.3-1.1,0.7-1.6,1.2c-0.5,0.5-0.8,1.1-1.1,1.8c-0.3,0.7-0.4,1.4-0.4,2.2H172.8z"/>
						</defs>
						<clipPath id="SVGID_40_">
							<use xlink:href="#SVGID_39_"  style="overflow:visible;"/>
						</clipPath>
						<g class="st20">
							<defs>
								<rect id="SVGID_41_" x="8.2" y="7.5" width="304" height="65"/>
							</defs>
							<clipPath id="SVGID_42_">
								<use xlink:href="#SVGID_41_"  style="overflow:visible;"/>
							</clipPath>
							<rect x="155.7" y="24" class="st21" width="24.4" height="27.9"/>
						</g>
					</g>
					<g class="st7">
						<defs>
							<path id="SVGID_43_" d="M179.5,30.5c0.4-0.3,1-0.6,1.8-0.9c0.8-0.3,1.8-0.5,2.9-0.5c1.2,0,2.3,0.2,3.3,0.7
								c1,0.4,1.8,1.1,2.4,1.9c0.7,0.8,1.2,1.7,1.5,2.8c0.3,1.1,0.5,2.3,0.5,3.6c0,1.4-0.2,2.6-0.6,3.8c-0.4,1.1-1,2-1.7,2.8
								c-0.7,0.8-1.6,1.4-2.6,1.8c-1,0.4-2.2,0.6-3.4,0.6c-1.5,0-2.8-0.1-3.8-0.3c-1-0.2-1.8-0.4-2.4-0.6V21.2l2.2-0.4V30.5z
								 M179.5,44.6c0.3,0.1,0.8,0.2,1.5,0.3c0.7,0.1,1.5,0.2,2.6,0.2c1.9,0,3.3-0.6,4.5-1.8c1.1-1.2,1.7-2.9,1.7-5.2
								c0-1-0.1-1.9-0.3-2.7c-0.2-0.9-0.5-1.6-1-2.2c-0.4-0.6-1-1.1-1.7-1.5c-0.7-0.4-1.6-0.6-2.7-0.6c-0.5,0-1,0.1-1.5,0.2
								c-0.5,0.1-0.9,0.2-1.3,0.4c-0.4,0.2-0.7,0.3-1,0.5c-0.3,0.2-0.5,0.3-0.7,0.5V44.6z"/>
						</defs>
						<clipPath id="SVGID_44_">
							<use xlink:href="#SVGID_43_"  style="overflow:visible;"/>
						</clipPath>
						<g class="st22">
							<defs>
								<rect id="SVGID_45_" x="8.2" y="7.5" width="304" height="65"/>
							</defs>
							<clipPath id="SVGID_46_">
								<use xlink:href="#SVGID_45_"  style="overflow:visible;"/>
							</clipPath>
							<rect x="172.4" y="15.8" class="st23" width="24.6" height="36.2"/>
						</g>
					</g>
					<g class="st7">
						<defs>
							<path id="SVGID_47_" d="M197.5,29.4h6.8v1.8h-6.8v9.1c0,1,0.1,1.8,0.2,2.4c0.2,0.6,0.4,1.1,0.7,1.4c0.3,0.3,0.7,0.6,1.1,0.7
								C200,45,200.5,45,201,45c0.9,0,1.6-0.1,2.2-0.3c0.6-0.2,1-0.4,1.3-0.6l0.5,1.8c-0.3,0.2-0.8,0.4-1.6,0.7
								c-0.8,0.3-1.6,0.4-2.5,0.4c-1.1,0-1.9-0.1-2.7-0.4c-0.7-0.3-1.3-0.7-1.7-1.3c-0.4-0.6-0.7-1.3-0.9-2.1
								c-0.2-0.8-0.3-1.8-0.3-3V24.4l2.2-0.4V29.4z"/>
						</defs>
						<clipPath id="SVGID_48_">
							<use xlink:href="#SVGID_47_"  style="overflow:visible;"/>
						</clipPath>
						<g class="st24">
							<defs>
								<rect id="SVGID_49_" x="8.2" y="7.5" width="304" height="65"/>
							</defs>
							<clipPath id="SVGID_50_">
								<use xlink:href="#SVGID_49_"  style="overflow:visible;"/>
							</clipPath>
							<rect x="190.3" y="19" class="st25" width="19.7" height="33"/>
						</g>
					</g>
					<g class="st7">
						<defs>
							<path id="SVGID_51_" d="M229.3,46.6c-0.4-1.1-0.8-2.2-1.2-3.3c-0.4-1-0.7-2.1-1.1-3h-11.2c-0.4,1-0.8,2-1.1,3.1
								c-0.4,1-0.8,2.1-1.2,3.3h-2.4c0.9-2.4,1.7-4.6,2.5-6.7c0.8-2.1,1.5-4,2.3-5.9c0.7-1.8,1.5-3.6,2.2-5.3
								c0.7-1.7,1.5-3.4,2.3-5.1h2c0.8,1.7,1.6,3.4,2.3,5.1c0.7,1.7,1.5,3.5,2.2,5.3c0.7,1.8,1.5,3.8,2.3,5.9
								c0.8,2.1,1.6,4.3,2.5,6.7H229.3z M221.4,26.2c-0.8,1.9-1.6,3.9-2.4,5.8c-0.8,2-1.6,4.1-2.4,6.4h9.8c-0.8-2.3-1.7-4.4-2.5-6.4
								C223.1,30,222.2,28.1,221.4,26.2z"/>
						</defs>
						<clipPath id="SVGID_52_">
							<use xlink:href="#SVGID_51_"  style="overflow:visible;"/>
						</clipPath>
						<g class="st26">
							<defs>
								<rect id="SVGID_53_" x="8.2" y="7.5" width="304" height="65"/>
							</defs>
							<clipPath id="SVGID_54_">
								<use xlink:href="#SVGID_53_"  style="overflow:visible;"/>
							</clipPath>
							<rect x="206.2" y="18.6" class="st27" width="30.6" height="33"/>
						</g>
					</g>
					<g class="st7">
						<defs>
							<path id="SVGID_55_" d="M247.3,46.1c-0.6,0.2-1.5,0.4-2.4,0.6c-1,0.2-2.3,0.3-3.8,0.3c-1.3,0-2.4-0.2-3.4-0.6
								c-1-0.4-1.9-1-2.6-1.8c-0.7-0.8-1.3-1.7-1.7-2.8c-0.4-1.1-0.6-2.4-0.6-3.8c0-1.3,0.2-2.5,0.5-3.6c0.3-1.1,0.8-2,1.5-2.8
								c0.7-0.8,1.5-1.4,2.4-1.9c1-0.4,2.1-0.7,3.3-0.7c1.1,0,2.1,0.2,2.9,0.5c0.8,0.3,1.4,0.6,1.8,0.9v-9.2l2.2-0.4V46.1z
								 M245.1,32.6c-0.2-0.2-0.4-0.3-0.7-0.5c-0.3-0.2-0.6-0.3-1-0.5c-0.4-0.2-0.8-0.3-1.3-0.4c-0.5-0.1-0.9-0.2-1.5-0.2
								c-1.1,0-1.9,0.2-2.7,0.6c-0.7,0.4-1.3,0.9-1.7,1.5c-0.4,0.6-0.8,1.4-1,2.2c-0.2,0.9-0.3,1.8-0.3,2.7c0,2.3,0.6,4,1.7,5.2
								c1.1,1.2,2.6,1.8,4.5,1.8c1.1,0,1.9,0,2.6-0.1c0.7-0.1,1.1-0.2,1.5-0.3V32.6z"/>
						</defs>
						<clipPath id="SVGID_56_">
							<use xlink:href="#SVGID_55_"  style="overflow:visible;"/>
						</clipPath>
						<g class="st28">
							<defs>
								<rect id="SVGID_57_" x="8.2" y="7.5" width="304" height="65"/>
							</defs>
							<clipPath id="SVGID_58_">
								<use xlink:href="#SVGID_57_"  style="overflow:visible;"/>
							</clipPath>
							<rect x="227.7" y="15.8" class="st29" width="24.6" height="36.2"/>
						</g>
					</g>
					<g class="st7">
						<defs>
							<path id="SVGID_59_" d="M256.9,44.3c0.5-1,0.9-2,1.4-3.3c0.5-1.2,1-2.5,1.4-3.8c0.5-1.3,0.9-2.6,1.3-4c0.4-1.3,0.7-2.6,1-3.8
								h2.2c-0.4,1.6-0.8,3.1-1.3,4.7c-0.5,1.5-1,3-1.5,4.5c-0.5,1.5-1.1,2.9-1.7,4.2c-0.6,1.4-1.2,2.6-1.7,3.8h-2
								c-0.6-1.2-1.2-2.5-1.7-3.8c-0.6-1.4-1.1-2.8-1.7-4.2c-0.5-1.5-1.1-3-1.5-4.5c-0.5-1.5-0.9-3.1-1.3-4.7h2.3
								c0.3,1.2,0.6,2.4,1,3.8c0.4,1.3,0.8,2.7,1.3,4c0.5,1.3,0.9,2.6,1.4,3.8C256,42.2,256.5,43.3,256.9,44.3"/>
						</defs>
						<clipPath id="SVGID_60_">
							<use xlink:href="#SVGID_59_"  style="overflow:visible;"/>
						</clipPath>
						<g class="st30">
							<defs>
								<rect id="SVGID_61_" x="8.2" y="7.5" width="304" height="65"/>
							</defs>
							<clipPath id="SVGID_62_">
								<use xlink:href="#SVGID_61_"  style="overflow:visible;"/>
							</clipPath>
							<rect x="244.6" y="24.4" class="st31" width="24.6" height="27.2"/>
						</g>
					</g>
					<g class="st7">
						<defs>
							<path id="SVGID_63_" d="M270.3,24.2c0,0.5-0.2,0.9-0.5,1.2c-0.3,0.3-0.7,0.4-1.1,0.4c-0.4,0-0.8-0.1-1.1-0.4
								c-0.3-0.3-0.5-0.7-0.5-1.2s0.2-0.9,0.5-1.2c0.3-0.3,0.7-0.4,1.1-0.4c0.4,0,0.8,0.1,1.1,0.4C270.1,23.3,270.3,23.7,270.3,24.2
								z M267.6,46.6h2.2V29.4h-2.2V46.6z"/>
						</defs>
						<clipPath id="SVGID_64_">
							<use xlink:href="#SVGID_63_"  style="overflow:visible;"/>
						</clipPath>
						<g class="st32">
							<defs>
								<rect id="SVGID_65_" x="8.2" y="7.5" width="304" height="65"/>
							</defs>
							<clipPath id="SVGID_66_">
								<use xlink:href="#SVGID_65_"  style="overflow:visible;"/>
							</clipPath>
							<rect x="262.1" y="17.6" class="st33" width="13.2" height="34"/>
						</g>
					</g>
					<g class="st7">
						<defs>
							<path id="SVGID_67_" d="M281.3,47c-1.3,0-2.5-0.2-3.5-0.6c-1-0.4-1.9-1-2.5-1.8c-0.7-0.8-1.2-1.7-1.5-2.8
								c-0.4-1.1-0.5-2.3-0.5-3.6c0-1.4,0.2-2.6,0.5-3.7c0.4-1.1,0.9-2.1,1.6-2.9c0.7-0.8,1.5-1.4,2.5-1.8c1-0.4,2.1-0.6,3.3-0.6
								c0.9,0,1.8,0.1,2.6,0.2c0.8,0.2,1.4,0.4,1.9,0.6l-0.6,1.9c-0.4-0.2-0.9-0.4-1.5-0.5c-0.6-0.1-1.3-0.2-2.2-0.2
								c-1.9,0-3.3,0.6-4.3,1.8c-1,1.2-1.5,3-1.5,5.2c0,1,0.1,2,0.3,2.8c0.2,0.9,0.6,1.6,1.1,2.2c0.5,0.6,1.1,1.1,1.9,1.4
								c0.8,0.3,1.7,0.5,2.9,0.5c0.9,0,1.7-0.1,2.3-0.3c0.6-0.2,1.1-0.4,1.4-0.5l0.5,1.9c-0.4,0.2-1,0.4-1.9,0.6
								C283.1,46.9,282.2,47,281.3,47"/>
						</defs>
						<clipPath id="SVGID_68_">
							<use xlink:href="#SVGID_67_"  style="overflow:visible;"/>
						</clipPath>
						<g class="st34">
							<defs>
								<rect id="SVGID_69_" x="8.2" y="7.5" width="304" height="65"/>
							</defs>
							<clipPath id="SVGID_70_">
								<use xlink:href="#SVGID_69_"  style="overflow:visible;"/>
							</clipPath>
							<rect x="268.2" y="24" class="st35" width="22.6" height="27.9"/>
						</g>
					</g>
					<g class="st7">
						<defs>
							<path id="SVGID_71_" d="M288.4,38c0-1.5,0.2-2.8,0.6-3.9c0.4-1.1,1-2.1,1.7-2.8c0.7-0.8,1.5-1.3,2.4-1.7
								c0.9-0.4,1.8-0.5,2.8-0.5c2.1,0,3.8,0.7,5,2.1c1.2,1.4,1.9,3.5,1.9,6.3c0,0.2,0,0.4,0,0.5c0,0.2,0,0.3,0,0.5h-12
								c0.1,2.1,0.6,3.7,1.6,4.8c1,1.1,2.5,1.7,4.6,1.7c1.2,0,2.1-0.1,2.8-0.3c0.7-0.2,1.2-0.4,1.5-0.6l0.4,1.9
								c-0.3,0.2-0.9,0.4-1.7,0.6c-0.8,0.2-1.8,0.4-3,0.4c-1.5,0-2.8-0.2-3.8-0.7c-1.1-0.4-1.9-1.1-2.6-1.9
								c-0.7-0.8-1.2-1.7-1.5-2.8C288.6,40.5,288.4,39.3,288.4,38z M300.6,36.6c0-1.8-0.5-3.2-1.3-4.2c-0.8-1-1.9-1.5-3.4-1.5
								c-0.8,0-1.5,0.2-2.1,0.5c-0.6,0.3-1.1,0.7-1.6,1.2c-0.5,0.5-0.8,1.1-1.1,1.8c-0.3,0.7-0.4,1.4-0.4,2.2H300.6z"/>
						</defs>
						<clipPath id="SVGID_72_">
							<use xlink:href="#SVGID_71_"  style="overflow:visible;"/>
						</clipPath>
						<g class="st36">
							<defs>
								<rect id="SVGID_73_" x="8.2" y="7.5" width="304" height="65"/>
							</defs>
							<clipPath id="SVGID_74_">
								<use xlink:href="#SVGID_73_"  style="overflow:visible;"/>
							</clipPath>
							<rect x="283.4" y="24" class="st37" width="24.4" height="27.9"/>
						</g>
					</g>
					<g class="st7">
						<defs>
							<path id="SVGID_75_" d="M311.8,44.3c0,0.8-0.3,1.5-0.8,2.1c-0.5,0.6-1.2,0.9-2.2,0.9s-1.6-0.3-2.2-0.9
								c-0.5-0.6-0.8-1.3-0.8-2.1c0-0.8,0.3-1.5,0.8-2.1c0.5-0.6,1.2-0.9,2.2-0.9s1.6,0.3,2.2,0.9C311.5,42.8,311.8,43.5,311.8,44.3
								"/>
						</defs>
						<clipPath id="SVGID_76_">
							<use xlink:href="#SVGID_75_"  style="overflow:visible;"/>
						</clipPath>
						<g class="st38">
							<defs>
								<rect id="SVGID_77_" x="8.2" y="7.5" width="304" height="65"/>
							</defs>
							<clipPath id="SVGID_78_">
								<use xlink:href="#SVGID_77_"  style="overflow:visible;"/>
							</clipPath>
							<rect x="300.9" y="36.4" class="st39" width="15.9" height="15.9"/>
						</g>
					</g>
				</g>
			</g>
		</g>
	</g>
</g>
</svg>
