<svg id="Layer_1" data-name="Layer 1" xmlns="http://www.w3.org/2000/svg" xmlns:xlink="http://www.w3.org/1999/xlink" viewBox="0 0 313.51 69.61"><defs><style>.cls-1,.cls-2,.cls-6{fill:none;}.cls-1{clip-rule:evenodd;}.cls-3{clip-path:url(#clip-path);}.cls-4{clip-path:url(#clip-path-2);}.cls-5{fill:#daeeeb;}.cls-6{stroke:#414042;stroke-linecap:round;stroke-linejoin:round;stroke-width:3px;}.cls-7{clip-path:url(#clip-path-3);}.cls-8{fill:#414042;}.cls-9{clip-path:url(#clip-path-5);}.cls-10{isolation:isolate;}.cls-11{clip-path:url(#clip-path-7);}.cls-12{clip-path:url(#clip-path-8);}.cls-13{clip-path:url(#clip-path-9);}.cls-14{clip-path:url(#clip-path-10);}.cls-15{clip-path:url(#clip-path-12);}.cls-16{clip-path:url(#clip-path-14);}.cls-17{clip-path:url(#clip-path-16);}.cls-18{clip-path:url(#clip-path-18);}.cls-19{clip-path:url(#clip-path-20);}.cls-20{clip-path:url(#clip-path-22);}.cls-21{clip-path:url(#clip-path-24);}.cls-22{clip-path:url(#clip-path-26);}.cls-23{clip-path:url(#clip-path-28);}.cls-24{clip-path:url(#clip-path-30);}.cls-25{clip-path:url(#clip-path-32);}.cls-26{clip-path:url(#clip-path-34);}.cls-27{clip-path:url(#clip-path-36);}.cls-28{clip-path:url(#clip-path-38);}.cls-29{fill:#5d9288;}</style><clipPath id="clip-path" transform="translate(4.75 3.49)"><path class="cls-1" d="M117.74,46.53H.25V4.87A3.36,3.36,0,0,1,3.6,1.51H117.74Z"/></clipPath><clipPath id="clip-path-2" transform="translate(4.75 3.49)"><rect class="cls-2" x="-139.75" y="-11.49" width="1440" height="3399"/></clipPath><clipPath id="clip-path-3" transform="translate(4.75 3.49)"><path class="cls-1" d="M24.46,36.49a7.14,7.14,0,0,0,1.75-.18,3.21,3.21,0,0,0,1.11-.48,1.63,1.63,0,0,0,.58-.73,2.61,2.61,0,0,0,.16-.94,2.17,2.17,0,0,0-1-1.82,14.61,14.61,0,0,0-3.54-1.56q-1.09-.39-2.19-.89a8,8,0,0,1-2-1.26,6,6,0,0,1-1.42-1.84,5.78,5.78,0,0,1-.55-2.63A6.54,6.54,0,0,1,18,21.36a6,6,0,0,1,1.64-2.11,7.5,7.5,0,0,1,2.57-1.34,11.49,11.49,0,0,1,3.41-.47A13.61,13.61,0,0,1,32.19,19l-1.45,4a13.94,13.94,0,0,0-2.07-.86,9,9,0,0,0-2.75-.37,5,5,0,0,0-2.59.5,1.69,1.69,0,0,0-.79,1.53,1.78,1.78,0,0,0,.29,1,2.8,2.8,0,0,0,.82.76,7.23,7.23,0,0,0,1.22.61q.69.27,1.53.56,1.74.65,3,1.28a8.05,8.05,0,0,1,2.14,1.47,5.32,5.32,0,0,1,1.27,2,8,8,0,0,1,.42,2.75,5.84,5.84,0,0,1-2.19,4.86q-2.19,1.73-6.6,1.73a18.42,18.42,0,0,1-2.67-.18,17.11,17.11,0,0,1-2.11-.44A11.7,11.7,0,0,1,17,39.07l1.42-4a12.09,12.09,0,0,0,6,1.42"/></clipPath><clipPath id="clip-path-5" transform="translate(4.75 3.49)"><rect class="cls-2" x="0.25" y="1.51" width="303.51" height="64.98"/></clipPath><clipPath id="clip-path-7" transform="translate(4.75 3.49)"><rect class="cls-2" x="34.25" y="14.51" width="270" height="32"/></clipPath><clipPath id="clip-path-8" transform="translate(4.75 3.49)"><path class="cls-1" d="M40.82,18.44A2.65,2.65,0,0,1,40,20.52a3,3,0,0,1-4,0,2.65,2.65,0,0,1-.85-2.08,2.65,2.65,0,0,1,.85-2.08,3,3,0,0,1,4,0A2.65,2.65,0,0,1,40.82,18.44ZM35.58,40.33h4.79v-17H35.58Z"/></clipPath><clipPath id="clip-path-9" transform="translate(4.75 3.49)"><rect class="cls-2" x="0.25" y="1.51" width="304" height="65"/></clipPath><clipPath id="clip-path-10" transform="translate(4.75 3.49)"><path class="cls-1" d="M53,31.32a6.66,6.66,0,0,0-.6-3.3,2.21,2.21,0,0,0-2-1c-.3,0-.61,0-.93,0l-.93.11V40.33H43.67V23.93q.61-.16,1.43-.34t1.74-.32q.92-.15,1.88-.22t1.9-.08a8,8,0,0,1,3,.47,6.67,6.67,0,0,1,1.88,1.12A8.9,8.9,0,0,1,60.31,23a8.46,8.46,0,0,1,3.33.56,5,5,0,0,1,2.08,1.6,6,6,0,0,1,1.06,2.45,15.86,15.86,0,0,1,.29,3.16v9.59H62.27v-9a6.68,6.68,0,0,0-.59-3.3,2.21,2.21,0,0,0-2-1,4.28,4.28,0,0,0-1.08.19,4.23,4.23,0,0,0-1.14.48,7.47,7.47,0,0,1,.29,1.57c0,.55.06,1.14.06,1.76v9.27H53Z"/></clipPath><clipPath id="clip-path-12" transform="translate(4.75 3.49)"><path class="cls-1" d="M85.93,31.84a12.45,12.45,0,0,1-.48,3.58A8.06,8.06,0,0,1,84,38.2,6.4,6.4,0,0,1,81.72,40a7.47,7.47,0,0,1-3.19.65,8.52,8.52,0,0,1-1.87-.2A8.93,8.93,0,0,1,75,39.91V46.3H70.2V23.93q.64-.2,1.48-.37c.56-.12,1.14-.22,1.75-.31s1.23-.16,1.87-.21S76.54,23,77.12,23a10.38,10.38,0,0,1,3.73.63,7.39,7.39,0,0,1,4.49,4.57,10.74,10.74,0,0,1,.6,3.68M81,32a5.84,5.84,0,0,0-1-3.57,3.46,3.46,0,0,0-3-1.34c-.43,0-.83,0-1.19,0s-.67.07-.9.11V35.9a4.18,4.18,0,0,0,1.17.48,5.64,5.64,0,0,0,1.46.19Q81,36.58,81,32"/></clipPath><clipPath id="clip-path-14" transform="translate(4.75 3.49)"><path class="cls-1" d="M95.51,40.65a12,12,0,0,1-3.39-.45A5,5,0,0,1,90.05,39a3.9,3.9,0,0,1-1-1.84,9.91,9.91,0,0,1-.27-2.44V16l4.79-.77v18.5a6.34,6.34,0,0,0,.1,1.16,2,2,0,0,0,.37.87,1.94,1.94,0,0,0,.79.58,4.35,4.35,0,0,0,1.38.29Z"/></clipPath><clipPath id="clip-path-16" transform="translate(4.75 3.49)"><path class="cls-1" d="M97.89,32a10.43,10.43,0,0,1,.69-4,8.51,8.51,0,0,1,1.82-2.83A7.61,7.61,0,0,1,103,23.47a8.1,8.1,0,0,1,3-.58,7.46,7.46,0,0,1,5.7,2.21q2.09,2.21,2.09,6.51c0,.28,0,.59,0,.92s0,.63-.06.89H102.81a3.2,3.2,0,0,0,1.38,2.36,5.55,5.55,0,0,0,3.28.87,13.86,13.86,0,0,0,2.59-.24,9.67,9.67,0,0,0,2.08-.6l.64,3.91a6.63,6.63,0,0,1-1,.39,13.59,13.59,0,0,1-1.43.34q-.79.15-1.69.24a16.75,16.75,0,0,1-1.8.1,10.63,10.63,0,0,1-4-.68,7.74,7.74,0,0,1-2.8-1.86,7.34,7.34,0,0,1-1.64-2.79A11.11,11.11,0,0,1,97.89,32Zm11.26-1.84a5,5,0,0,0-.21-1.19,3,3,0,0,0-.55-1,2.93,2.93,0,0,0-.93-.74,3,3,0,0,0-1.4-.29,3.19,3.19,0,0,0-1.38.28,2.83,2.83,0,0,0-1,.73,3.24,3.24,0,0,0-.6,1,6.9,6.9,0,0,0-.31,1.21Z"/></clipPath><clipPath id="clip-path-18" transform="translate(4.75 3.49)"><path class="cls-1" d="M150.07,29.08a13.16,13.16,0,0,1-.93,5.15,9.87,9.87,0,0,1-2.6,3.65,11,11,0,0,1-4,2.19,16.89,16.89,0,0,1-5.1.73q-1.39,0-2.91-.15a17.81,17.81,0,0,1-2.68-.45V18a15.23,15.23,0,0,1,2.68-.48q1.52-.15,2.91-.15a16.88,16.88,0,0,1,5.1.73,11,11,0,0,1,4,2.19,9.88,9.88,0,0,1,2.6,3.65A13.08,13.08,0,0,1,150.07,29.08Zm-16,9.53,1,.13a24,24,0,0,0,2.6.1,12.58,12.58,0,0,0,4.34-.68,8.42,8.42,0,0,0,3.11-1.94,8,8,0,0,0,1.89-3.07,12.33,12.33,0,0,0,.63-4.07,12.19,12.19,0,0,0-.63-4.05A8,8,0,0,0,145.17,22,8.42,8.42,0,0,0,142.06,20a12.58,12.58,0,0,0-4.34-.68,24.55,24.55,0,0,0-2.6.1l-1,.14Z"/></clipPath><clipPath id="clip-path-20" transform="translate(4.75 3.49)"><path class="cls-1" d="M152.7,32a11,11,0,0,1,.65-3.94A8.7,8.7,0,0,1,155,25.26a6.63,6.63,0,0,1,2.38-1.68,7.22,7.22,0,0,1,2.76-.55,6.44,6.44,0,0,1,5,2.06q1.87,2.06,1.87,6.34c0,.18,0,.35,0,.53s0,.34,0,.5H155a7.6,7.6,0,0,0,1.56,4.85A5.79,5.79,0,0,0,161.18,39a9.31,9.31,0,0,0,2.78-.33,11.91,11.91,0,0,0,1.49-.56l.4,1.86a8.79,8.79,0,0,1-1.74.63,11,11,0,0,1-3,.36,10,10,0,0,1-3.84-.66,6.9,6.9,0,0,1-2.61-1.86,7.37,7.37,0,0,1-1.49-2.84A13.25,13.25,0,0,1,152.7,32Zm12.15-1.36a6.85,6.85,0,0,0-1.26-4.18,4.07,4.07,0,0,0-3.38-1.5,4.48,4.48,0,0,0-2.07.47,5.26,5.26,0,0,0-1.59,1.24,5.76,5.76,0,0,0-1.06,1.81,7.48,7.48,0,0,0-.45,2.16Z"/></clipPath><clipPath id="clip-path-22" transform="translate(4.75 3.49)"><path class="cls-1" d="M171.53,24.46a7.67,7.67,0,0,1,1.8-.91,8.11,8.11,0,0,1,2.93-.48,7.79,7.79,0,0,1,3.29.67A6.86,6.86,0,0,1,182,25.59a8.24,8.24,0,0,1,1.51,2.84A12.06,12.06,0,0,1,184,32a10.79,10.79,0,0,1-.61,3.75,8.08,8.08,0,0,1-1.72,2.82A7.38,7.38,0,0,1,179,40.38a9.18,9.18,0,0,1-3.42.61,19.73,19.73,0,0,1-3.77-.3,19.28,19.28,0,0,1-2.45-.63V15.23l2.15-.4Zm0,14.12a9.26,9.26,0,0,0,1.47.31,17.54,17.54,0,0,0,2.56.15A5.82,5.82,0,0,0,180,37.23a7.33,7.33,0,0,0,1.69-5.2,11.92,11.92,0,0,0-.3-2.71,6.38,6.38,0,0,0-1-2.22,4.83,4.83,0,0,0-1.74-1.51,5.7,5.7,0,0,0-2.66-.56,6.89,6.89,0,0,0-1.46.15,8.47,8.47,0,0,0-1.29.38,7.1,7.1,0,0,0-1,.5,7.53,7.53,0,0,0-.74.5Z"/></clipPath><clipPath id="clip-path-24" transform="translate(4.75 3.49)"><path class="cls-1" d="M189.46,23.43h6.82v1.83h-6.82v9.13a9.26,9.26,0,0,0,.25,2.37,3.32,3.32,0,0,0,.71,1.41,2.25,2.25,0,0,0,1.13.66A5.88,5.88,0,0,0,193,39a6.23,6.23,0,0,0,2.18-.32,9.38,9.38,0,0,0,1.29-.58L197,39.9a7.76,7.76,0,0,1-1.62.68,8,8,0,0,1-2.52.38,7.44,7.44,0,0,1-2.66-.42,3.85,3.85,0,0,1-1.72-1.26,5.19,5.19,0,0,1-.91-2.11,14.77,14.77,0,0,1-.26-3V18.38l2.15-.4Z"/></clipPath><clipPath id="clip-path-26" transform="translate(4.75 3.49)"><path class="cls-1" d="M221.31,40.6q-.66-1.7-1.21-3.26t-1.05-3h-11.2q-.57,1.49-1.12,3.06t-1.16,3.25h-2.35q1.31-3.59,2.47-6.7T208,28q1.12-2.77,2.22-5.32t2.32-5.12h2q1.21,2.56,2.3,5.11T219,28q1.12,2.77,2.27,5.88t2.53,6.7Zm-7.89-20.43Q212.17,23,211,26t-2.44,6.37h9.79q-1.27-3.42-2.47-6.38T213.42,20.17Z"/></clipPath><clipPath id="clip-path-28" transform="translate(4.75 3.49)"><path class="cls-1" d="M239.3,40.07a19.28,19.28,0,0,1-2.45.63,19.71,19.71,0,0,1-3.77.3,9.14,9.14,0,0,1-3.43-.62A7.38,7.38,0,0,1,227,38.61a8.07,8.07,0,0,1-1.72-2.82,10.8,10.8,0,0,1-.61-3.75,12.08,12.08,0,0,1,.51-3.6,8.25,8.25,0,0,1,1.51-2.84,6.85,6.85,0,0,1,2.43-1.86,7.79,7.79,0,0,1,3.29-.67,8.1,8.1,0,0,1,2.93.48,7.75,7.75,0,0,1,1.8.91V15.23l2.15-.4Zm-2.15-13.52a7.14,7.14,0,0,0-1.79-1,8.44,8.44,0,0,0-1.29-.38,6.89,6.89,0,0,0-1.46-.15,5.69,5.69,0,0,0-2.66.56,4.81,4.81,0,0,0-1.74,1.51,6.37,6.37,0,0,0-1,2.23A11.9,11.9,0,0,0,227,32a7.34,7.34,0,0,0,1.69,5.2A5.81,5.81,0,0,0,233.11,39a17.56,17.56,0,0,0,2.56-.15,9.29,9.29,0,0,0,1.47-.31Z"/></clipPath><clipPath id="clip-path-30" transform="translate(4.75 3.49)"><path class="cls-1" d="M248.93,38.28q.7-1.43,1.43-3.27t1.41-3.82q.68-2,1.26-4t1-3.77h2.15q-.6,2.36-1.33,4.65t-1.55,4.48q-.82,2.19-1.7,4.22t-1.71,3.82h-2q-.87-1.79-1.73-3.82t-1.68-4.22q-.82-2.19-1.55-4.48t-1.33-4.65h2.28q.4,1.76,1,3.77t1.26,4q.68,2,1.41,3.82t1.43,3.27"/></clipPath><clipPath id="clip-path-32" transform="translate(4.75 3.49)"><path class="cls-1" d="M262.28,18.25a1.61,1.61,0,0,1-.46,1.21,1.64,1.64,0,0,1-2.25,0,1.82,1.82,0,0,1,0-2.43,1.64,1.64,0,0,1,2.25,0A1.61,1.61,0,0,1,262.28,18.25ZM259.63,40.6h2.15V23.43h-2.15Z"/></clipPath><clipPath id="clip-path-34" transform="translate(4.75 3.49)"><path class="cls-1" d="M273.32,41a9.11,9.11,0,0,1-3.51-.63,6.6,6.6,0,0,1-2.53-1.81,8.09,8.09,0,0,1-1.54-2.82,12.72,12.72,0,0,1,0-7.32,8.32,8.32,0,0,1,1.57-2.86,7,7,0,0,1,2.48-1.84,8,8,0,0,1,3.28-.65,13.83,13.83,0,0,1,2.6.23,6.53,6.53,0,0,1,1.87.6L277,25.72a7,7,0,0,0-1.49-.53,9.89,9.89,0,0,0-2.22-.2A5.2,5.2,0,0,0,269,26.83a8.2,8.2,0,0,0-1.47,5.23,11.17,11.17,0,0,0,.33,2.81,5.63,5.63,0,0,0,1.07,2.19,5,5,0,0,0,1.92,1.43,7.14,7.14,0,0,0,2.86.51,7.42,7.42,0,0,0,2.33-.32,9.27,9.27,0,0,0,1.37-.55l.46,1.86a8,8,0,0,1-1.87.65,11,11,0,0,1-2.66.32"/></clipPath><clipPath id="clip-path-36" transform="translate(4.75 3.49)"><path class="cls-1" d="M280.43,32a10.92,10.92,0,0,1,.65-3.94,8.68,8.68,0,0,1,1.69-2.81,6.63,6.63,0,0,1,2.38-1.68,7.23,7.23,0,0,1,2.76-.55,6.44,6.44,0,0,1,5,2.06q1.87,2.06,1.87,6.34c0,.18,0,.35,0,.53s0,.34,0,.5h-12a7.61,7.61,0,0,0,1.55,4.85A5.79,5.79,0,0,0,288.9,39a9.3,9.3,0,0,0,2.78-.33,11.91,11.91,0,0,0,1.49-.56l.4,1.86a8.78,8.78,0,0,1-1.74.63,10.94,10.94,0,0,1-3,.36A10,10,0,0,1,285,40.3a6.89,6.89,0,0,1-2.61-1.86,7.34,7.34,0,0,1-1.49-2.84A13.2,13.2,0,0,1,280.43,32Zm12.15-1.36a6.84,6.84,0,0,0-1.26-4.18,4.07,4.07,0,0,0-3.37-1.5,4.48,4.48,0,0,0-2.07.47,5.26,5.26,0,0,0-1.59,1.24,5.79,5.79,0,0,0-1.06,1.81,7.44,7.44,0,0,0-.45,2.16Z"/></clipPath><clipPath id="clip-path-38" transform="translate(4.75 3.49)"><path class="cls-1" d="M303.75,38.3a3,3,0,0,1-.77,2.09,3.16,3.16,0,0,1-4.32,0,3.21,3.21,0,0,1,0-4.18,3.16,3.16,0,0,1,4.32,0,3,3,0,0,1,.77,2.09"/></clipPath></defs><title>logo</title><g class="cls-3"><g class="cls-4"><rect class="cls-5" width="127.5" height="55.02"/></g></g><polygon class="cls-6" points="12.07 11.64 127.11 11.64 127.11 54.36 46.5 54.36 31.56 68.11 31.56 53.53 12.07 53.53 12.07 11.64"/><g class="cls-7"><g class="cls-4"><rect class="cls-8" x="16.75" y="15.92" width="26.25" height="33.34"/></g></g><g class="cls-9"><g class="cls-4"><g class="cls-10"><g class="cls-11"><g class="cls-12"><g class="cls-13"><rect class="cls-8" x="34.85" y="14.08" width="15.73" height="34.74"/></g></g><g class="cls-14"><g class="cls-13"><rect class="cls-8" x="43.43" y="21.45" width="33.39" height="27.37"/></g></g><g class="cls-15"><g class="cls-13"><rect class="cls-8" x="69.95" y="21.45" width="25.73" height="33.35"/></g></g><g class="cls-16"><g class="cls-13"><rect class="cls-8" x="88.5" y="13.76" width="17.43" height="35.38"/></g></g><g class="cls-17"><g class="cls-13"><rect class="cls-8" x="97.64" y="21.38" width="25.89" height="27.89"/></g></g><g class="cls-18"><g class="cls-13"><rect class="cls-8" x="131.62" y="15.87" width="28.2" height="33.42"/></g></g><g class="cls-19"><g class="cls-13"><rect class="cls-8" x="152.46" y="21.52" width="24.36" height="27.93"/></g></g><g class="cls-20"><g class="cls-13"><rect class="cls-8" x="169.14" y="13.32" width="24.63" height="36.17"/></g></g><g class="cls-21"><g class="cls-13"><rect class="cls-8" x="187.06" y="16.47" width="19.7" height="32.98"/></g></g><g class="cls-22"><g class="cls-13"><rect class="cls-8" x="202.96" y="16.07" width="30.59" height="33.02"/></g></g><g class="cls-23"><g class="cls-13"><rect class="cls-8" x="224.42" y="13.32" width="24.63" height="36.17"/></g></g><g class="cls-24"><g class="cls-13"><rect class="cls-8" x="241.32" y="21.92" width="24.6" height="27.17"/></g></g><g class="cls-25"><g class="cls-13"><rect class="cls-8" x="258.86" y="15.08" width="13.18" height="34.01"/></g></g><g class="cls-26"><g class="cls-13"><rect class="cls-8" x="264.96" y="21.52" width="22.64" height="27.93"/></g></g><g class="cls-27"><g class="cls-13"><rect class="cls-8" x="280.19" y="21.52" width="24.36" height="27.93"/></g></g><g class="cls-28"><g class="cls-13"><rect class="cls-29" x="297.64" y="33.85" width="15.87" height="15.89"/></g></g></g></g></g></g></svg>