<?xml version="1.0" encoding="utf-8"?>
<!-- Generator: Adobe Illustrator 21.0.0, SVG Export Plug-In . SVG Version: 6.00 Build 0)  -->
<svg version="1.1" id="Layer_1" xmlns="http://www.w3.org/2000/svg" xmlns:xlink="http://www.w3.org/1999/xlink" x="0px" y="0px"
	 viewBox="0 0 42 48" style="enable-background:new 0 0 42 48;" xml:space="preserve">
<style type="text/css">
	.st0{clip-path:url(#SVGID_2_);}
	.st1{clip-path:url(#SVGID_4_);enable-background:new    ;}
	.st2{clip-path:url(#SVGID_6_);}
	.st3{clip-path:url(#SVGID_8_);}
	.st4{clip-path:url(#SVGID_10_);fill:#D9F4EF;}
	.st5{clip-path:url(#SVGID_12_);}
	.st6{clip-path:url(#SVGID_14_);enable-background:new    ;}
	.st7{clip-path:url(#SVGID_16_);}
	.st8{clip-path:url(#SVGID_18_);}
	.st9{clip-path:url(#SVGID_20_);fill:#414042;}
	.st10{clip-path:url(#SVGID_22_);}
	.st11{clip-path:url(#SVGID_24_);enable-background:new    ;}
	.st12{clip-path:url(#SVGID_26_);}
	.st13{clip-path:url(#SVGID_28_);}
	.st14{clip-path:url(#SVGID_30_);fill:#D9F4EF;}
	.st15{clip-path:url(#SVGID_32_);}
	.st16{clip-path:url(#SVGID_34_);enable-background:new    ;}
	.st17{clip-path:url(#SVGID_36_);}
	.st18{clip-path:url(#SVGID_38_);}
	.st19{clip-path:url(#SVGID_40_);fill:#414042;}
</style>
<g>
	<defs>
		<rect id="SVGID_1_" x="442" y="-1540.6" width="20.8" height="24.6"/>
	</defs>
	<clipPath id="SVGID_2_">
		<use xlink:href="#SVGID_1_"  style="overflow:visible;"/>
	</clipPath>
	<g class="st0">
		<defs>
			<rect id="SVGID_3_" x="-697" y="-1572" width="1440" height="3399"/>
		</defs>
		<clipPath id="SVGID_4_">
			<use xlink:href="#SVGID_3_"  style="overflow:visible;"/>
		</clipPath>
		<g class="st1">
			<g>
				<defs>
					<rect id="SVGID_5_" x="442" y="-1541" width="21" height="25"/>
				</defs>
				<clipPath id="SVGID_6_">
					<use xlink:href="#SVGID_5_"  style="overflow:visible;"/>
				</clipPath>
				<g class="st2">
					<defs>
						<path id="SVGID_7_" d="M457.4-1516.1c-0.1,0-0.2,0-0.3,0l-0.3,0c-9.2-1.8-15.6-10.3-14.8-19.7c0.1-1.3,0.7-2.5,1.8-3.3
							l1.7-1.3c0.4-0.3,0.9-0.2,1.2,0.2l4.1,5.4c0.3,0.4,0.2,1-0.2,1.3l-2.5,2c0,0-0.1,0.1,0,0.1l0,0.3c0.4,3.6,2.8,6.6,6.1,7.8
							c0,0,0.1,0,0.1,0l2.5-2c0.4-0.3,0.9-0.2,1.2,0.2l4.4,5.7c0.3,0.4,0.2,0.9-0.2,1.3l-1.7,1.3
							C459.8-1516.2,458.6-1515.9,457.4-1516.1"/>
					</defs>
					<clipPath id="SVGID_8_">
						<use xlink:href="#SVGID_7_"  style="overflow:visible;"/>
					</clipPath>
					<g class="st3">
						<defs>
							<rect id="SVGID_9_" x="442" y="-1541" width="21" height="25"/>
						</defs>
						<clipPath id="SVGID_10_">
							<use xlink:href="#SVGID_9_"  style="overflow:visible;"/>
						</clipPath>
						<rect x="437" y="-1545.6" class="st4" width="30.8" height="34.6"/>
					</g>
				</g>
			</g>
		</g>
	</g>
</g>
<g>
	<defs>
		<rect id="SVGID_11_" x="446.9" y="-1540.7" width="20.8" height="24.6"/>
	</defs>
	<clipPath id="SVGID_12_">
		<use xlink:href="#SVGID_11_"  style="overflow:visible;"/>
	</clipPath>
	<g class="st5">
		<defs>
			<rect id="SVGID_13_" x="-697" y="-1572" width="1440" height="3399"/>
		</defs>
		<clipPath id="SVGID_14_">
			<use xlink:href="#SVGID_13_"  style="overflow:visible;"/>
		</clipPath>
		<g class="st6">
			<g>
				<defs>
					<rect id="SVGID_15_" x="446" y="-1541" width="22" height="25"/>
				</defs>
				<clipPath id="SVGID_16_">
					<use xlink:href="#SVGID_15_"  style="overflow:visible;"/>
				</clipPath>
				<g class="st7">
					<defs>
						<path id="SVGID_17_" d="M462.3-1516.1c-0.1,0-0.2,0-0.3,0l-0.3,0c-9.2-1.8-15.6-10.3-14.8-19.7c0.1-1.3,0.7-2.5,1.8-3.3
							l1.7-1.3c0.4-0.3,0.9-0.2,1.2,0.2l4.1,5.4c0.3,0.4,0.2,1-0.2,1.3l-2.5,2c0,0-0.1,0.1,0,0.1l0,0.3c0.4,3.6,2.8,6.6,6.1,7.8
							c0,0,0.1,0,0.1,0l2.5-2c0.4-0.3,0.9-0.2,1.2,0.2l4.4,5.7c0.3,0.4,0.2,1-0.2,1.3l-1.7,1.3
							C464.8-1516.3,463.5-1516,462.3-1516.1z M450.8-1538.6l-1,0.8c-0.6,0.5-1,1.2-1.1,2c-0.7,8.5,5.1,16.2,13.4,17.8l0.3,0
							c0.8,0.2,1.6,0,2.3-0.5l1-0.7l-3.3-4.3l-1.8,1.4c-0.5,0.4-1.2,0.5-1.8,0.3c-4-1.5-6.8-5.1-7.3-9.3l0-0.3
							c-0.1-0.7,0.2-1.3,0.7-1.7l1.8-1.4L450.8-1538.6z"/>
					</defs>
					<clipPath id="SVGID_18_">
						<use xlink:href="#SVGID_17_"  style="overflow:visible;"/>
					</clipPath>
					<g class="st8">
						<defs>
							<rect id="SVGID_19_" x="446" y="-1541" width="22" height="25"/>
						</defs>
						<clipPath id="SVGID_20_">
							<use xlink:href="#SVGID_19_"  style="overflow:visible;"/>
						</clipPath>
						<rect x="441.9" y="-1545.7" class="st9" width="30.8" height="34.6"/>
					</g>
				</g>
			</g>
		</g>
	</g>
</g>
<g>
	<g>
		<defs>
			<rect id="SVGID_21_" x="8.1" y="11.7" width="20.8" height="24.6"/>
		</defs>
		<clipPath id="SVGID_22_">
			<use xlink:href="#SVGID_21_"  style="overflow:visible;"/>
		</clipPath>
		<g class="st10">
			<defs>
				<rect id="SVGID_23_" x="-1130.9" y="-19.6" width="1440" height="3399"/>
			</defs>
			<clipPath id="SVGID_24_">
				<use xlink:href="#SVGID_23_"  style="overflow:visible;"/>
			</clipPath>
			<g class="st11">
				<g>
					<defs>
						<rect id="SVGID_25_" x="8.1" y="11.4" width="21" height="25"/>
					</defs>
					<clipPath id="SVGID_26_">
						<use xlink:href="#SVGID_25_"  style="overflow:visible;"/>
					</clipPath>
					<g class="st12">
						<defs>
							<path id="SVGID_27_" d="M23.5,36.3c-0.1,0-0.2,0-0.3,0l-0.3,0C13.8,34.4,7.4,25.9,8.2,16.5c0.1-1.3,0.7-2.5,1.8-3.3l1.7-1.3
								c0.4-0.3,0.9-0.2,1.2,0.2l4.1,5.4c0.3,0.4,0.2,1-0.2,1.3l-2.5,2c0,0-0.1,0.1,0,0.1l0,0.3c0.4,3.6,2.8,6.6,6.1,7.8
								c0,0,0.1,0,0.1,0l2.5-2c0.4-0.3,0.9-0.2,1.2,0.2l4.4,5.7c0.3,0.4,0.2,0.9-0.2,1.3l-1.7,1.3C26,36.1,24.7,36.5,23.5,36.3"/>
						</defs>
						<clipPath id="SVGID_28_">
							<use xlink:href="#SVGID_27_"  style="overflow:visible;"/>
						</clipPath>
						<g class="st13">
							<defs>
								<rect id="SVGID_29_" x="8.1" y="11.4" width="21" height="25"/>
							</defs>
							<clipPath id="SVGID_30_">
								<use xlink:href="#SVGID_29_"  style="overflow:visible;"/>
							</clipPath>
							<rect x="3.1" y="6.7" class="st14" width="30.8" height="34.6"/>
						</g>
					</g>
				</g>
			</g>
		</g>
	</g>
	<g>
		<defs>
			<rect id="SVGID_31_" x="13.1" y="11.7" width="20.8" height="24.6"/>
		</defs>
		<clipPath id="SVGID_32_">
			<use xlink:href="#SVGID_31_"  style="overflow:visible;"/>
		</clipPath>
		<g class="st15">
			<defs>
				<rect id="SVGID_33_" x="-1130.9" y="-19.6" width="1440" height="3399"/>
			</defs>
			<clipPath id="SVGID_34_">
				<use xlink:href="#SVGID_33_"  style="overflow:visible;"/>
			</clipPath>
			<g class="st16">
				<g>
					<defs>
						<rect id="SVGID_35_" x="12.1" y="11.4" width="22" height="25"/>
					</defs>
					<clipPath id="SVGID_36_">
						<use xlink:href="#SVGID_35_"  style="overflow:visible;"/>
					</clipPath>
					<g class="st17">
						<defs>
							<path id="SVGID_37_" d="M28.5,36.2c-0.1,0-0.2,0-0.3,0l-0.3,0c-9.2-1.8-15.6-10.3-14.8-19.7c0.1-1.3,0.7-2.5,1.8-3.3l1.7-1.3
								c0.4-0.3,0.9-0.2,1.2,0.2l4.1,5.4c0.3,0.4,0.2,1-0.2,1.3l-2.5,2c0,0-0.1,0.1,0,0.1l0,0.3c0.4,3.6,2.8,6.6,6.1,7.8
								c0,0,0.1,0,0.1,0l2.5-2c0.4-0.3,0.9-0.2,1.2,0.2l4.4,5.7c0.3,0.4,0.2,1-0.2,1.3l-1.7,1.3C30.9,36.1,29.7,36.4,28.5,36.2z
								 M17,13.8l-1,0.8c-0.6,0.5-1,1.2-1.1,2c-0.7,8.5,5.1,16.2,13.4,17.8l0.3,0c0.8,0.2,1.6,0,2.3-0.5l1-0.7l-3.3-4.3l-1.8,1.4
								c-0.5,0.4-1.2,0.5-1.8,0.3c-4-1.5-6.8-5.1-7.3-9.3l0-0.3c-0.1-0.7,0.2-1.3,0.7-1.7l1.8-1.4L17,13.8z"/>
						</defs>
						<clipPath id="SVGID_38_">
							<use xlink:href="#SVGID_37_"  style="overflow:visible;"/>
						</clipPath>
						<g class="st18">
							<defs>
								<rect id="SVGID_39_" x="12.1" y="11.4" width="22" height="25"/>
							</defs>
							<clipPath id="SVGID_40_">
								<use xlink:href="#SVGID_39_"  style="overflow:visible;"/>
							</clipPath>
							<rect x="8.1" y="6.7" class="st19" width="30.8" height="34.6"/>
						</g>
					</g>
				</g>
			</g>
		</g>
	</g>
</g>
</svg>
