<svg xmlns="http://www.w3.org/2000/svg" xmlns:xlink="http://www.w3.org/1999/xlink" viewBox="0 0 63 72"><defs><style>.cls-1{fill:#414042;}.cls-2{fill:#d9f4ef;}.cls-3{clip-path:url(#clip-path);}</style><clipPath id="clip-path"><path class="cls-1" d="M43.07,58.43l-.51-.1A34.34,34.34,0,0,1,15,21.77a5.87,5.87,0,0,1,2.25-4.15l2-1.58,6.28,8.21-3.75,2.91a4,4,0,0,0-1.49,3.59l.07.62a23.43,23.43,0,0,0,15,19.08,3.85,3.85,0,0,0,3.75-.56L42.93,47l6.75,8.84-2,1.53a5.78,5.78,0,0,1-3.53,1.21,5.88,5.88,0,0,1-1.11-.11M18.54,12,15.08,14.7a9.55,9.55,0,0,0-3.63,6.75A38,38,0,0,0,41.84,62a16.71,16.71,0,0,0,3.94.22,8.6,8.6,0,0,0,4.17-1.55l3.4-2.83a2,2,0,0,0,.33-2.67l-9-11.79A1.82,1.82,0,0,0,42.16,43l-5.23,4a.24.24,0,0,1-.24,0A19.77,19.77,0,0,1,24.07,30.95L24,30.32a.27.27,0,0,1,.1-.24l5.19-4a1.84,1.84,0,0,0,.33-2.57L21.1,12.35a1.82,1.82,0,0,0-1.44-.71,1.8,1.8,0,0,0-1.11.38"/></clipPath></defs><title>phone-icon</title><g id="Layer_2" data-name="Layer 2"><g id="Layer_2-2" data-name="Layer 2"><path class="cls-2" d="M9.52,12a1.69,1.69,0,0,0-1.1.26L5,14.89a9.5,9.5,0,0,0-3.63,6.72,38,38,0,0,0,30.4,40.48l.51.09c.21,0,.41.38.6.41.36,0,.73.4,1.09.4h.25a9.62,9.62,0,0,0,5.65-2.31l3.93-2.8c.46-.35,1.24-1.05,1.24-1.59v0c0-.38-.66-.77-.91-1.09L34.86,43.4a2,2,0,0,0-2.69-.33l-5.29,4a.34.34,0,0,1-.28,0A19.78,19.78,0,0,1,14,31.08l-.08-.63a.25.25,0,0,1,.09-.23l5.19-4a1.85,1.85,0,0,0,.33-2.57L11,12.6A1.69,1.69,0,0,0,9.55,12Z"/><path class="cls-1" d="M43.07,58.43l-.51-.1A34.34,34.34,0,0,1,15,21.77a5.87,5.87,0,0,1,2.25-4.15l2-1.58,6.28,8.21-3.75,2.91a4,4,0,0,0-1.49,3.59l.07.62a23.43,23.43,0,0,0,15,19.08,3.85,3.85,0,0,0,3.75-.56L42.93,47l6.75,8.84-2,1.53a5.78,5.78,0,0,1-3.53,1.21,5.88,5.88,0,0,1-1.11-.11M18.54,12,15.08,14.7a9.55,9.55,0,0,0-3.63,6.75A38,38,0,0,0,41.84,62a16.71,16.71,0,0,0,3.94.22,8.6,8.6,0,0,0,4.17-1.55l3.4-2.83a2,2,0,0,0,.33-2.67l-9-11.79A1.82,1.82,0,0,0,42.16,43l-5.23,4a.24.24,0,0,1-.24,0A19.77,19.77,0,0,1,24.07,30.95L24,30.32a.27.27,0,0,1,.1-.24l5.19-4a1.84,1.84,0,0,0,.33-2.57L21.1,12.35a1.82,1.82,0,0,0-1.44-.71,1.8,1.8,0,0,0-1.11.38"/><g class="cls-3"><rect class="cls-1" width="63" height="72"/></g></g></g></svg>